<?xml version="1.0" encoding="utf-8"?>
<!-- Generator: Adobe Illustrator 16.0.3, SVG Export Plug-In . SVG Version: 6.00 Build 0)  -->
<!DOCTYPE svg PUBLIC "-//W3C//DTD SVG 1.1//EN" "http://www.w3.org/Graphics/SVG/1.1/DTD/svg11.dtd">
<svg version="1.1" id="Layer_1" xmlns="http://www.w3.org/2000/svg" xmlns:xlink="http://www.w3.org/1999/xlink" x="0px" y="0px"
	 width="280px" height="140px" viewBox="0 0 280 140" enable-background="new 0 0 280 140" xml:space="preserve">
<g enable-background="new    ">
	<path fill="#5D5D5D" d="M115.42,19.482h2.206v22.919h-2.206V19.482z"/>
	<path fill="#5D5D5D" d="M122.516,19.482h2.781l11.347,20.161h0.064V19.482h2.206v22.919h-2.973l-11.155-19.767h-0.064v19.767
		h-2.206V19.482z"/>
	<path fill="#5D5D5D" d="M143.931,19.482h5.53c2.002,0,3.707,0.279,5.113,0.837s2.558,1.346,3.452,2.364
		c0.896,1.018,1.55,2.228,1.966,3.628c0.415,1.401,0.623,2.934,0.623,4.597c0,2.08-0.319,3.848-0.959,5.303
		c-0.639,1.456-1.529,2.643-2.669,3.563s-2.487,1.587-4.043,2.003c-1.556,0.416-3.26,0.624-5.114,0.624h-3.899V19.482z
		 M146.137,40.431h1.821c1.577,0,3.01-0.175,4.299-0.525c1.289-0.35,2.387-0.908,3.293-1.674c0.905-0.766,1.608-1.762,2.109-2.988
		c0.5-1.226,0.751-2.714,0.751-4.466c0-1.751-0.24-3.223-0.72-4.417c-0.479-1.193-1.124-2.15-1.934-2.873
		c-0.81-0.722-1.769-1.242-2.876-1.56c-1.108-0.317-2.28-0.476-3.517-0.476h-3.228V40.431z"/>
	<path fill="#5D5D5D" d="M181.454,34.39c0,1.686-0.267,3.076-0.799,4.17c-0.533,1.095-1.204,1.954-2.014,2.578
		s-1.689,1.056-2.637,1.297c-0.948,0.241-1.827,0.361-2.637,0.361c-0.811,0-1.689-0.121-2.638-0.361s-1.827-0.673-2.637-1.297
		s-1.481-1.483-2.014-2.578c-0.532-1.094-0.799-2.484-0.799-4.17V19.482h2.205V34.39c0,0.941,0.123,1.806,0.368,2.594
		c0.244,0.788,0.617,1.467,1.118,2.036c0.501,0.57,1.119,1.013,1.854,1.33c0.734,0.317,1.582,0.476,2.541,0.476
		s1.806-0.159,2.541-0.476c0.734-0.317,1.353-0.76,1.854-1.33c0.5-0.569,0.873-1.248,1.119-2.036
		c0.244-0.788,0.367-1.652,0.367-2.594V19.482h2.205V34.39z"/>
	<path fill="#5D5D5D" d="M186.152,39.479c0.66,0.438,1.385,0.771,2.173,1.001s1.705,0.345,2.749,0.345
		c0.682,0,1.327-0.093,1.934-0.279c0.607-0.186,1.14-0.47,1.599-0.854c0.458-0.383,0.82-0.87,1.087-1.461
		c0.266-0.591,0.399-1.292,0.399-2.102c0-0.744-0.251-1.396-0.751-1.954c-0.501-0.558-1.135-1.083-1.902-1.576
		c-0.767-0.493-1.588-0.974-2.461-1.445c-0.874-0.471-1.694-0.99-2.461-1.56c-0.768-0.569-1.401-1.215-1.902-1.937
		c-0.5-0.723-0.751-1.587-0.751-2.594c0-0.919,0.181-1.746,0.544-2.479c0.361-0.733,0.862-1.363,1.502-1.888
		s1.391-0.924,2.253-1.198c0.863-0.273,1.785-0.411,2.766-0.411c0.554,0,1.23,0.049,2.029,0.148
		c0.799,0.098,1.582,0.301,2.349,0.607l-0.352,2.068c-0.49-0.284-1.103-0.498-1.837-0.64c-0.735-0.142-1.477-0.213-2.222-0.213
		c-0.575,0-1.15,0.065-1.727,0.197c-0.575,0.131-1.092,0.351-1.55,0.657c-0.458,0.307-0.831,0.712-1.118,1.215
		c-0.288,0.504-0.432,1.128-0.432,1.872c0,0.766,0.25,1.423,0.751,1.97c0.5,0.548,1.135,1.057,1.901,1.527
		c0.768,0.471,1.587,0.931,2.461,1.379c0.874,0.449,1.694,0.969,2.462,1.56c0.767,0.591,1.4,1.275,1.901,2.052
		c0.5,0.777,0.751,1.724,0.751,2.84c0,1.161-0.219,2.151-0.655,2.972s-1.007,1.489-1.71,2.003c-0.703,0.515-1.491,0.892-2.365,1.133
		s-1.737,0.361-2.589,0.361c-1.087,0-2.051-0.099-2.893-0.295c-0.842-0.197-1.562-0.427-2.157-0.689L186.152,39.479z"/>
	<path fill="#5D5D5D" d="M206.896,21.452h-6.585v-1.97h15.374v1.97h-6.584v20.949h-2.205V21.452z"/>
	<path fill="#5D5D5D" d="M218.786,19.482h5.754c1.981,0,3.568,0.465,4.762,1.396c1.193,0.931,1.79,2.446,1.79,4.548
		c0,0.744-0.128,1.417-0.384,2.02s-0.607,1.133-1.055,1.592c-0.447,0.46-0.975,0.832-1.582,1.117s-1.252,0.471-1.934,0.558v0.065
		c0.447,0.066,0.815,0.17,1.103,0.312c0.288,0.143,0.532,0.334,0.735,0.575c0.202,0.241,0.384,0.515,0.543,0.821
		c0.16,0.307,0.325,0.657,0.496,1.051l3.803,8.866h-2.429l-3.229-7.75c-0.319-0.744-0.629-1.318-0.927-1.724
		c-0.299-0.405-0.612-0.706-0.942-0.903c-0.331-0.197-0.693-0.317-1.087-0.361c-0.395-0.043-0.858-0.066-1.391-0.066h-1.821v10.803
		h-2.206V19.482z M220.992,29.628h2.333c0.639,0,1.289-0.071,1.949-0.214c0.66-0.142,1.257-0.377,1.79-0.706
		c0.532-0.329,0.97-0.761,1.311-1.297c0.341-0.536,0.512-1.198,0.512-1.986c0-0.941-0.149-1.675-0.447-2.2
		c-0.299-0.525-0.704-0.919-1.215-1.182c-0.512-0.263-1.108-0.427-1.79-0.492c-0.683-0.066-1.406-0.099-2.174-0.099h-2.269V29.628z"
		/>
	<path fill="#5D5D5D" d="M236.206,19.482h2.206v22.919h-2.206V19.482z"/>
	<path fill="#5D5D5D" d="M250.396,19.482h2.493l8.854,22.919h-2.301l-2.397-6.14h-11.251l-2.397,6.14h-2.142L250.396,19.482z
		 M251.483,21.649l-4.858,12.642h9.685L251.483,21.649z"/>
	<path fill="#5D5D5D" d="M264.715,19.482h2.206v20.949h8.949v1.97h-11.155V19.482z"/>
</g>
<g enable-background="new    ">
	<path fill="#5D5D5D" d="M115.772,57.923h2.206V68.07h11.283V57.923h2.206v22.919h-2.206V70.04h-11.283v10.803h-2.206V57.923z"/>
	<path fill="#5D5D5D" d="M136.563,64.917c0.394-1.423,0.996-2.681,1.806-3.776c0.81-1.094,1.832-1.97,3.069-2.627
		c1.235-0.657,2.694-0.985,4.378-0.985s3.145,0.328,4.379,0.985c1.236,0.657,2.26,1.533,3.068,2.627
		c0.811,1.095,1.412,2.354,1.807,3.776c0.395,1.423,0.58,2.912,0.559,4.465c-0.021,1.752-0.238,3.355-0.654,4.811
		c-0.416,1.456-1.033,2.704-1.854,3.743c-0.82,1.04-1.844,1.851-3.068,2.43c-1.227,0.58-2.637,0.87-4.236,0.87
		c-1.598,0-3.01-0.29-4.234-0.87c-1.226-0.579-2.249-1.39-3.069-2.43c-0.82-1.039-1.438-2.287-1.854-3.743
		c-0.416-1.455-0.634-3.059-0.655-4.811C135.983,67.829,136.169,66.341,136.563,64.917z M142.414,60.353
		c-0.949,0.57-1.738,1.325-2.367,2.266c-0.628,0.942-1.092,2.003-1.39,3.185c-0.299,1.182-0.448,2.375-0.448,3.579
		c0,1.227,0.149,2.425,0.448,3.596c0.298,1.171,0.762,2.228,1.39,3.169s1.417,1.696,2.367,2.266
		c0.947,0.569,2.082,0.854,3.402,0.854c1.301,0,2.43-0.284,3.389-0.854s1.752-1.324,2.381-2.266s1.092-1.998,1.391-3.169
		s0.447-2.369,0.447-3.596c0-1.204-0.148-2.397-0.447-3.579c-0.299-1.182-0.762-2.243-1.391-3.185
		c-0.629-0.941-1.422-1.696-2.381-2.266c-0.959-0.569-2.088-0.854-3.389-0.854C144.496,59.5,143.361,59.784,142.414,60.353z"/>
	<path fill="#5D5D5D" d="M159.912,57.923h2.206v20.95h8.949v1.97h-11.155V57.923z"/>
	<path fill="#5D5D5D" d="M174.103,57.923h5.53c2.002,0,3.707,0.279,5.113,0.837s2.558,1.346,3.452,2.364
		c0.896,1.018,1.55,2.228,1.966,3.628c0.415,1.401,0.623,2.934,0.623,4.597c0,2.079-0.319,3.847-0.959,5.303
		c-0.639,1.456-1.529,2.644-2.669,3.563c-1.14,0.92-2.487,1.588-4.043,2.003c-1.556,0.416-3.26,0.624-5.114,0.624h-3.899V57.923z
		 M176.309,78.873h1.821c1.577,0,3.01-0.176,4.299-0.525c1.289-0.351,2.387-0.908,3.293-1.675c0.905-0.767,1.608-1.762,2.109-2.988
		c0.5-1.226,0.751-2.714,0.751-4.466c0-1.751-0.24-3.223-0.72-4.417c-0.479-1.193-1.124-2.15-1.934-2.873
		c-0.81-0.722-1.769-1.242-2.876-1.56c-1.108-0.317-2.28-0.476-3.517-0.476h-3.228V78.873z"/>
	<path fill="#5D5D5D" d="M195.325,57.923h2.206v22.919h-2.206V57.923z"/>
	<path fill="#5D5D5D" d="M202.421,57.923h2.781l11.347,20.162h0.063V57.923h2.205v22.919h-2.972L204.69,61.076h-0.063v19.767h-2.206
		V57.923z"/>
	<path fill="#5D5D5D" d="M239.305,70.401h-5.178v-1.971h7.384v11.395c-1.15,0.504-2.285,0.864-3.404,1.083
		c-1.118,0.219-2.296,0.328-3.532,0.328c-1.769,0-3.345-0.284-4.729-0.854c-1.386-0.568-2.563-1.373-3.532-2.413
		s-1.71-2.287-2.222-3.743c-0.511-1.456-0.767-3.07-0.767-4.844c0-1.729,0.261-3.321,0.783-4.777
		c0.521-1.456,1.272-2.709,2.253-3.76c0.979-1.051,2.162-1.866,3.548-2.446c1.385-0.58,2.94-0.87,4.666-0.87
		c0.427,0,0.906,0.022,1.438,0.065c0.532,0.044,1.071,0.104,1.614,0.181c0.544,0.077,1.071,0.187,1.582,0.329
		c0.512,0.143,0.959,0.312,1.343,0.509l-0.256,2.102c-0.874-0.503-1.801-0.832-2.78-0.985c-0.98-0.153-1.961-0.23-2.941-0.23
		c-1.449,0-2.732,0.246-3.851,0.739c-1.119,0.493-2.062,1.182-2.829,2.069c-0.767,0.886-1.354,1.932-1.758,3.136
		c-0.405,1.204-0.607,2.518-0.607,3.94c0,1.445,0.197,2.774,0.592,3.99c0.394,1.215,0.969,2.255,1.726,3.119
		c0.756,0.865,1.699,1.543,2.828,2.036c1.13,0.492,2.43,0.738,3.899,0.738c0.341,0,0.73-0.011,1.167-0.033
		c0.437-0.021,0.874-0.065,1.311-0.131s0.857-0.147,1.263-0.246c0.404-0.099,0.735-0.235,0.99-0.411V70.401z"/>
</g>
<g enable-background="new    ">
	<path fill="#5D5D5D" d="M115.612,96.365h6.041c1.15,0,2.21,0.104,3.18,0.313c0.969,0.208,1.795,0.542,2.477,1.001
		c0.682,0.46,1.215,1.057,1.598,1.79c0.384,0.733,0.575,1.625,0.575,2.676c0,1.576-0.416,2.786-1.247,3.629
		c-0.831,0.843-1.95,1.45-3.356,1.822v0.065c0.767,0.065,1.465,0.241,2.094,0.525c0.628,0.285,1.171,0.662,1.63,1.133
		c0.458,0.471,0.815,1.029,1.071,1.675s0.384,1.374,0.384,2.184c0,1.227-0.229,2.232-0.688,3.021
		c-0.458,0.788-1.076,1.412-1.854,1.872c-0.778,0.46-1.684,0.777-2.717,0.952c-1.034,0.176-2.115,0.263-3.245,0.263h-5.945V96.365z
		 M118.809,106.15h1.758c0.767,0,1.497-0.032,2.189-0.098c0.692-0.066,1.3-0.225,1.822-0.477c0.522-0.251,0.938-0.618,1.247-1.1
		c0.309-0.481,0.463-1.149,0.463-2.003c0-0.679-0.127-1.237-0.383-1.675s-0.586-0.788-0.991-1.051
		c-0.405-0.263-0.847-0.443-1.327-0.542s-0.954-0.147-1.422-0.147h-3.356V106.15z M118.809,116.593h2.397
		c0.725,0,1.417-0.05,2.078-0.147c0.66-0.099,1.241-0.285,1.742-0.559c0.5-0.273,0.9-0.651,1.199-1.133
		c0.298-0.481,0.447-1.105,0.447-1.872c0-0.875-0.171-1.581-0.511-2.117c-0.341-0.536-0.789-0.947-1.343-1.231
		s-1.177-0.471-1.87-0.559c-0.693-0.087-1.38-0.131-2.062-0.131h-2.078V116.593z"/>
	<path fill="#5D5D5D" d="M152.689,109.796c0,3.239-0.752,5.696-2.254,7.371s-3.639,2.512-6.408,2.512
		c-2.771,0-4.907-0.837-6.409-2.512c-1.502-1.675-2.253-4.132-2.253-7.371V96.365h3.196v13.004c0,1.095,0.09,2.096,0.272,3.004
		c0.181,0.909,0.484,1.691,0.911,2.348c0.426,0.657,0.991,1.166,1.695,1.527c0.703,0.361,1.565,0.542,2.589,0.542
		s1.885-0.181,2.588-0.542c0.705-0.361,1.268-0.87,1.695-1.527c0.426-0.656,0.729-1.438,0.91-2.348
		c0.182-0.908,0.271-1.909,0.271-3.004V96.365h3.197V109.796z"/>
	<path fill="#5D5D5D" d="M158.378,96.365h3.196v20.03h9.333v2.89h-12.529V96.365z"/>
	<path fill="#5D5D5D" d="M191.332,100.438c-0.789-0.525-1.646-0.92-2.573-1.183s-2.115-0.394-3.563-0.394
		c-1.279,0-2.445,0.225-3.5,0.673c-1.055,0.449-1.961,1.079-2.717,1.889c-0.757,0.81-1.338,1.762-1.742,2.856
		c-0.405,1.095-0.607,2.276-0.607,3.546c0,1.357,0.218,2.583,0.655,3.678c0.437,1.095,1.039,2.036,1.806,2.824
		c0.768,0.788,1.662,1.396,2.685,1.822c1.023,0.427,2.11,0.641,3.261,0.641c0.554,0,1.012-0.011,1.374-0.033
		c0.362-0.021,0.677-0.055,0.943-0.099c0.266-0.044,0.495-0.087,0.687-0.131c0.192-0.044,0.384-0.088,0.576-0.132v-6.961h-4.699
		v-2.692h7.896v11.919c-0.619,0.219-1.471,0.443-2.558,0.673c-1.087,0.23-2.504,0.345-4.251,0.345c-1.769,0-3.377-0.278-4.826-0.837
		s-2.685-1.357-3.708-2.396c-1.022-1.04-1.816-2.299-2.381-3.776s-0.847-3.125-0.847-4.942c0-1.772,0.292-3.382,0.879-4.826
		c0.586-1.445,1.406-2.682,2.461-3.711c1.055-1.028,2.301-1.822,3.739-2.381c1.438-0.558,3.01-0.837,4.715-0.837
		c0.81,0,1.523,0.027,2.142,0.082c0.617,0.055,1.171,0.137,1.662,0.246c0.489,0.11,0.953,0.235,1.39,0.378s0.89,0.29,1.358,0.443
		L191.332,100.438z"/>
	<path fill="#5D5D5D" d="M204.531,96.365h3.356l9.429,22.92h-3.484l-2.269-5.779h-10.932l-2.27,5.779h-3.355L204.531,96.365z
		 M206.098,99.452l-4.442,11.361h8.885L206.098,99.452z"/>
	<path fill="#5D5D5D" d="M220.353,96.365h5.465c1.108,0,2.179,0.066,3.213,0.197c1.033,0.132,1.954,0.416,2.765,0.854
		c0.81,0.438,1.459,1.063,1.949,1.872c0.49,0.811,0.735,1.904,0.735,3.283c0,0.701-0.117,1.347-0.352,1.938s-0.56,1.111-0.975,1.56
		c-0.416,0.449-0.906,0.821-1.471,1.117c-0.564,0.295-1.166,0.498-1.806,0.607v0.065c0.49,0.197,0.884,0.454,1.183,0.771
		c0.298,0.317,0.628,0.826,0.991,1.527l4.219,9.128h-3.644l-3.42-7.946c-0.256-0.547-0.512-0.974-0.768-1.28
		s-0.533-0.531-0.831-0.674c-0.299-0.142-0.623-0.224-0.975-0.246c-0.352-0.021-0.74-0.032-1.167-0.032h-1.917v10.179h-3.196V96.365
		z M223.549,106.217h2.717c1.534,0,2.722-0.317,3.563-0.952s1.263-1.511,1.263-2.627c0-1.051-0.379-1.877-1.135-2.479
		c-0.757-0.602-1.87-0.903-3.34-0.903h-3.068V106.217z"/>
	<path fill="#5D5D5D" d="M240.072,96.365h3.196v22.92h-3.196V96.365z"/>
	<path fill="#5D5D5D" d="M256.021,96.365h3.356l9.429,22.92h-3.484l-2.269-5.779h-10.932l-2.27,5.779h-3.355L256.021,96.365z
		 M257.588,99.452l-4.442,11.361h8.885L257.588,99.452z"/>
</g>
<path fill="#5D5D5D" d="M105.27,70.614c0-28.058-22.829-50.886-50.886-50.886C26.326,19.729,3.5,42.556,3.5,70.614
	c0,27.365,21.715,49.748,48.819,50.834c0.684,0.036,1.374,0.052,2.064,0.052c0.694,0,1.382-0.016,2.065-0.052
	C83.551,120.362,105.27,97.979,105.27,70.614z M54.474,107.856c-9.696,0-17.583-7.889-17.583-17.584
	c0-9.693,7.887-17.58,17.583-17.58c9.695,0,17.581,7.887,17.581,17.58C72.054,99.968,64.168,107.856,54.474,107.856z M54.474,62.925
	c-15.082,0-27.35,12.27-27.35,27.348c0,1.936,0.208,3.823,0.594,5.649c-2.386-4.339-3.749-9.313-3.749-14.604
	c0-16.77,13.645-30.412,30.415-30.412c16.771,0,30.415,13.642,30.415,30.412c0,5.074-1.266,9.853-3.472,14.063
	c0.315-1.656,0.497-3.361,0.497-5.107C81.823,75.194,69.553,62.925,54.474,62.925z M54.383,29.497
	c22.673,0,41.117,18.444,41.117,41.118c0,3.056-0.344,6.034-0.981,8.899c-0.946-21.32-18.585-38.376-40.137-38.376
	c-21.553,0-39.192,17.062-40.135,38.388c-0.636-2.871-0.984-5.852-0.984-8.911C13.266,47.94,31.712,29.497,54.383,29.497z"/>
</svg>
