<?xml version="1.0" standalone="no"?>
<!DOCTYPE svg PUBLIC "-//W3C//DTD SVG 20010904//EN"
 "http://www.w3.org/TR/2001/REC-SVG-20010904/DTD/svg10.dtd">
<svg version="1.0" xmlns="http://www.w3.org/2000/svg"
 width="300.000000pt" height="250.000000pt" viewBox="0 0 300.000000 250.000000"
 preserveAspectRatio="xMidYMid meet">
<metadata>
Created by potrace 1.15, written by Peter Selinger 2001-2017
</metadata>
<g transform="translate(0.000000,250.000000) scale(0.100000,-0.100000)"
fill="#000000" stroke="none">
<path d="M0 1250 l0 -1250 1500 0 1500 0 0 1250 0 1250 -1500 0 -1500 0 0
-1250z m2989 483 l0 -758 -45 159 c-46 164 -63 202 -111 248 -25 24 -37 27
-103 29 -41 2 -84 -2 -96 -9 -27 -14 -71 -72 -90 -118 -15 -35 -94 -327 -94
-345 0 -5 31 -9 69 -9 l69 0 11 47 c7 27 16 65 22 86 l10 37 89 0 89 0 16 -57
c33 -118 24 -108 98 -111 l67 -3 0 -459 0 -460 -1490 0 -1490 0 0 465 0 465
175 0 175 0 0 159 c0 145 2 161 21 185 19 25 25 26 115 26 136 0 134 4 134
-205 l0 -165 71 0 71 0 -4 198 c-3 216 -10 242 -64 262 -14 6 -107 10 -207 10
-266 0 -275 -7 -276 -220 l-1 -115 -35 0 -35 0 0 168 0 167 -70 0 -70 0 0 40
0 40 20 -20 c27 -27 56 -25 85 5 30 29 31 45 4 79 -25 31 -61 34 -89 6 l-20
-20 0 475 0 475 1490 0 1490 0 -1 -757z"/>
<path d="M949 1409 c-93 -15 -109 -50 -109 -234 0 -237 2 -238 323 -243 l227
-4 0 136 0 136 -70 0 -70 0 0 -81 0 -81 -115 4 c-149 4 -150 5 -150 134 0 136
-4 134 226 134 l179 0 0 53 0 52 -204 0 c-112 0 -219 -3 -237 -6z"/>
<path d="M1464 1411 c-2 -2 -4 -112 -4 -243 l0 -238 70 0 70 0 0 243 0 242
-66 0 c-36 0 -67 -2 -70 -4z"/>
<path d="M1779 1409 c-99 -16 -109 -44 -109 -289 l0 -190 69 0 70 0 3 170 c3
195 5 200 87 208 l51 5 0 -192 0 -191 70 0 70 0 0 190 0 190 49 0 c33 0 56 -6
72 -19 23 -19 24 -24 27 -191 l3 -171 67 3 67 3 3 180 c3 204 -6 248 -58 279
-27 15 -60 18 -269 19 -131 1 -253 -1 -272 -4z"/>
</g>
</svg>
