<?xml version="1.0" encoding="utf-8"?>
<!-- Generator: Adobe Illustrator 16.0.3, SVG Export Plug-In . SVG Version: 6.00 Build 0)  -->
<!DOCTYPE svg PUBLIC "-//W3C//DTD SVG 1.1//EN" "http://www.w3.org/Graphics/SVG/1.1/DTD/svg11.dtd">
<svg version="1.1" id="Layer_1" xmlns="http://www.w3.org/2000/svg" xmlns:xlink="http://www.w3.org/1999/xlink" x="0px" y="0px"
	 width="280px" height="140px" viewBox="0 0 280 140" enable-background="new 0 0 280 140" xml:space="preserve">
<path fill-rule="evenodd" clip-rule="evenodd" fill="#5E5E5E" d="M34.614,25.552c-1.11,0.018-2.426,0.896-3.784,1.569
	c-2.118,1.053-4.334,2.273-6.023,4.047c-2.539,2.668-3.597,7.399-4.289,9.835c-0.117,0.409,1.051-0.563,2.804-2.148
	c1.547-1.399,3.576-3.245,5.222-5.499C31.152,29.79,32.048,28.537,34.614,25.552L34.614,25.552z"/>
<path fill-rule="evenodd" clip-rule="evenodd" fill="#5E5E5E" d="M23.464,31.31c-1.357,0.561-2.507,2.461-3.407,4.966
	c-0.352,0.981-0.568,2.469-0.892,3.383c-0.459,1.303-0.64,2.702-0.946,3.951c-0.434,1.767-0.95,3.323-1.375,4.637
	c-0.263,0.814,0.474-1.714,2.809-4.29c0.826-0.912,2.027-1.9,3.227-2.733c0.769-0.536,1.588-0.889,2.139-1.509
	c0.995-1.119,2.561-2.34,3.434-3.428c0.679-0.844,0.799-1.68,0.787-1.383c-0.037,0.76-0.074,2.179-0.512,3.45
	c-0.385,1.118-1.154,2.099-1.506,2.671c-1.06,1.723-1.766,2.451-3.073,3.551c-2.18,1.835-4.045,3.436-4.718,3.931
	c-1.429,1.053-2.782,2.86-3.507,3.946c-0.408,0.61-0.559,1.191-0.561,0.803c-0.001-1.728-0.406-4.197-0.365-8.738
	c0.022-2.588,0.376-5.137,1.352-7.236c0.53-1.138,1.204-1.942,2.202-3.012C19.99,32.729,21.683,31.393,23.464,31.31L23.464,31.31z"
	/>
<path fill-rule="evenodd" clip-rule="evenodd" fill="#5E5E5E" d="M14.055,39.427c-0.153,0.472-0.698,1.804-0.945,3.433
	c-0.216,1.437-0.149,3.117-0.104,4.461c0.069,2.025,0.63,4.009,0.731,6.036c0.144,2.885-0.05,5.576-0.165,7.873
	c-0.004,0.094,0.404-2.554,1.684-5.024c0.741-1.432,1.622-2.74,2.836-3.917c2.166-2.1,4.345-4.431,5.661-5.499
	c0.024-0.018-0.311,3.225-1.764,6.295c-1.323,2.794-3.769,5.437-3.861,5.527c-0.608,0.608-1.202,1.712-1.883,2.867
	c-0.68,1.151-1.448,2.351-1.913,3.469c-0.702,1.687-0.861,3.022-0.893,2.938c-0.667-1.815-0.786-3.515-1.298-5.124
	c-0.646-2.027-1.733-3.886-2.188-6.376c-0.268-1.47-0.63-3.019-0.57-4.583c0.072-1.886,0.354-4.286,0.894-5.727
	C10.643,45.101,13.104,39.979,14.055,39.427L14.055,39.427z"/>
<path fill-rule="evenodd" clip-rule="evenodd" fill="#5E5E5E" d="M20.459,57.589c0,0.996,0.219,1.897,0.17,2.796
	c-0.232,4.329-1.234,7.671-2.167,10.771c-0.72,2.4-1.978,4.753-1.978,8.235c0,3.052,0.295,5.066,0.024,4.499
	c-0.218-0.452-1.606-2.556-3.223-4.495c-2.668-3.204-4.54-5.202-5.737-9.477c-0.881-3.139-1.203-6.556-0.853-9.647
	c0.224-1.98,0.845-3.83,1.377-5.39c0.187-0.55-0.389,1.394,0.113,4.126C8.4,60.163,9.089,61.5,9.475,62.932
	c0.516,1.908,1.803,3.468,2.574,5.458c0.771,1.989,1.025,4.409,1.428,5.923c0.66,2.486,1.092,3.978,1.085,3.717
	c-0.038-1.347-0.418-2.508-0.468-3.614c-0.101-2.263,0.276-4.282,1.444-7.136c0.68-1.662,1.774-2.802,2.604-4.36
	C19.134,61.054,20.459,59.456,20.459,57.589L20.459,57.589z"/>
<path fill-rule="evenodd" clip-rule="evenodd" fill="#5E5E5E" d="M6.686,72.762c0.604,1.484,1.081,3.698,2.79,5.924
	c2.063,2.687,5.497,5.464,7.54,7.968c1.013,1.241,1.622,2.588,2.286,3.547c0.664,0.961,1.383,1.535,1.646,1.883
	c0.534,0.704-2.197-3.012-2.388-7.276c-0.149-3.334,1.034-7.424,1.099-8.89c0.122-2.773,0.333-5.063,0.628-3.997
	c0.115,0.417,0.896,2.438,1.434,5.126c0.611,3.046,0.978,6.831,0.978,7.989c0,2.855,0.297,5.748,1.096,8.38
	c0.449,1.475,1.193,2.896,1.795,4.111c0.483,0.978-10.444-6.109-13.044-8.935c-2.83-3.072-5.136-6.25-5.884-10.566
	C6.362,76.306,6.728,74.628,6.686,72.762L6.686,72.762z"/>
<path fill-rule="evenodd" clip-rule="evenodd" fill="#5E5E5E" d="M23.874,83.413c1.024,1.024,1.721,2.205,2.459,3.23
	c1.13,1.575,2.128,2.901,2.895,4.534c1.196,2.545,2.007,5.484,3.236,8.588c0.546,1.377,1.392,3.515,2.356,4.762
	c1.24,1.604,2.48,2.835,2.353,2.871c-0.071,0.02-0.603-0.392-2.17-0.691c-3.993-0.768-6.84-1.037-9.403-1.803
	c-3.19-0.956-5.926-2.74-9.824-6.415c-3.546-3.341-5.379-9.736-5.191-9.6c0.489,0.366,1.631,2.907,5.193,5.743
	c1.272,1.014,3.065,1.58,4.753,2.433c2.316,1.171,4.257,2.141,6.177,3.402c1.152,0.759,2.271,1.75,3.533,2.592
	c1.269,0.849,2.21,1.23,2.32,1.363c0.752,0.901-2.154-1.514-3.938-4.428c-0.679-1.107-1.551-2.429-1.967-3.854
	c-0.717-2.454-0.789-5.224-1.323-7.748C24.951,86.579,24.384,84.999,23.874,83.413L23.874,83.413z"/>
<path fill-rule="evenodd" clip-rule="evenodd" fill="#5E5E5E" d="M32.683,96.086c1.638,1.253,3.936,3.113,6.563,5.51
	c1.23,1.126,2.287,2.46,3.605,3.644c1.163,1.048,2.588,1.963,3.723,2.72c2.098,1.397,3.876,1.625,5.757,2.085
	c0.306,0.076-0.534,0.19-2.158,0.67c-1.623,0.478-4.029,1.325-7.359,1.85c-2.219,0.352-4.567,0.742-6.903,0.67
	c-4.162-0.131-8.278-1.327-11.531-3.942c-2.599-2.092-3.791-4.138-4.44-5.044c-0.053-0.072,3.326,2.505,7.983,3.708
	c2.512,0.648,5.456,0.464,8.494,0.799c1.013,0.11,2.303,0.081,3.335,0.24c1.968,0.305,3.66,0.797,5.352,0.771
	c0.02,0-3.943-0.88-6.571-3.379C35.151,103.174,33.66,98.109,32.683,96.086L32.683,96.086z"/>
<path fill-rule="evenodd" clip-rule="evenodd" fill="#5E5E5E" d="M29.891,113.915c1.133,1.066,1.981,1.964,3.063,2.717
	c8.807,6.133,16.125,2.527,21.229-0.934c2.137-1.449,3.234-2.57,4.936-3.305c0.774-0.335,1.413-0.643,2.786-0.774
	c1.603-0.152,4.444,0.474,6.287,1.394c0.404,0.202,3.252,1.875,6.025,4.128c2.61,2.114,5.115,4.77,6.526,6.352
	c0.141,0.155,2.733-2.055,2.643-2.12c-1.872-1.398-3.468-3.138-5.379-4.662c-1.484-1.186-3.261-2.188-4.843-3.137
	c-1.937-1.16-3.523-1.73-5.162-2.251c-1.539-0.489-3.122-0.958-5.086-1.143c-2.936-0.276-5.998-0.486-8.829,0.697L43,115.521
	c-1.977-0.293-4.281,0.852-6.257,0.558C34.502,115.749,32.261,115.094,29.891,113.915L29.891,113.915z"/>
<path fill-rule="evenodd" clip-rule="evenodd" fill="#5E5E5E" d="M99.74,25.552c1.111,0.018,2.425,0.896,3.783,1.569
	c2.118,1.053,4.333,2.273,6.023,4.047c2.537,2.668,3.597,7.399,4.289,9.835c0.116,0.409-1.053-0.563-2.804-2.148
	c-1.546-1.399-3.577-3.245-5.224-5.499C103.2,29.79,102.306,28.537,99.74,25.552L99.74,25.552z"/>
<path fill-rule="evenodd" clip-rule="evenodd" fill="#5E5E5E" d="M110.889,31.31c1.356,0.561,2.508,2.461,3.405,4.966
	c0.355,0.981,0.568,2.469,0.891,3.383c0.46,1.303,0.641,2.702,0.948,3.951c0.435,1.767,0.949,3.323,1.376,4.637
	c0.26,0.814-0.475-1.714-2.809-4.29c-0.825-0.912-2.027-1.9-3.228-2.733c-0.768-0.536-1.589-0.889-2.139-1.509
	c-0.996-1.119-2.56-2.34-3.432-3.428c-0.681-0.844-0.8-1.68-0.786-1.383c0.033,0.76,0.072,2.179,0.51,3.45
	c0.384,1.118,1.151,2.099,1.506,2.671c1.061,1.723,1.767,2.451,3.073,3.551c2.178,1.835,4.042,3.436,4.716,3.931
	c1.43,1.053,2.784,2.86,3.508,3.946c0.409,0.61,0.561,1.191,0.561,0.803c0.003-1.728,0.405-4.197,0.365-8.738
	c-0.021-2.588-0.376-5.137-1.354-7.236c-0.528-1.138-1.206-1.942-2.201-3.012C114.363,32.729,112.669,31.393,110.889,31.31
	L110.889,31.31z"/>
<path fill-rule="evenodd" clip-rule="evenodd" fill="#5E5E5E" d="M120.296,39.427c0.156,0.472,0.699,1.804,0.945,3.433
	c0.217,1.437,0.152,3.117,0.105,4.461c-0.069,2.025-0.63,4.009-0.731,6.036c-0.145,2.885,0.051,5.576,0.163,7.873
	c0.007,0.094-0.402-2.554-1.68-5.024c-0.746-1.432-1.625-2.74-2.838-3.917c-2.165-2.1-4.344-4.431-5.661-5.499
	c-0.021-0.018,0.312,3.225,1.766,6.295c1.321,2.794,3.768,5.437,3.859,5.527c0.608,0.608,1.202,1.712,1.882,2.867
	c0.68,1.151,1.448,2.351,1.915,3.469c0.703,1.687,0.862,3.022,0.891,2.938c0.67-1.815,0.786-3.515,1.3-5.124
	c0.647-2.027,1.734-3.886,2.186-6.376c0.271-1.47,0.634-3.019,0.572-4.583c-0.072-1.886-0.354-4.286-0.894-5.727
	C123.709,45.101,121.248,39.979,120.296,39.427L120.296,39.427z"/>
<path fill-rule="evenodd" clip-rule="evenodd" fill="#5E5E5E" d="M113.893,57.589c0,0.996-0.217,1.897-0.17,2.796
	c0.232,4.329,1.234,7.671,2.165,10.771c0.724,2.4,1.98,4.753,1.98,8.235c0,3.052-0.293,5.066-0.025,4.499
	c0.221-0.452,1.607-2.556,3.225-4.495c2.668-3.204,4.536-5.202,5.737-9.477c0.88-3.139,1.202-6.556,0.851-9.647
	c-0.224-1.98-0.843-3.83-1.375-5.39c-0.188-0.55,0.387,1.394-0.116,4.126c-0.21,1.155-0.898,2.492-1.285,3.924
	c-0.518,1.908-1.803,3.468-2.574,5.458c-0.771,1.989-1.028,4.409-1.426,5.923c-0.663,2.486-1.097,3.978-1.086,3.717
	c0.037-1.347,0.417-2.508,0.463-3.614c0.102-2.263-0.275-4.282-1.44-7.136c-0.681-1.662-1.774-2.802-2.606-4.36
	C115.217,61.054,113.893,59.456,113.893,57.589L113.893,57.589z"/>
<path fill-rule="evenodd" clip-rule="evenodd" fill="#5E5E5E" d="M127.666,72.762c-0.604,1.484-1.079,3.698-2.791,5.924
	c-2.063,2.687-5.495,5.464-7.54,7.968c-1.014,1.241-1.618,2.588-2.284,3.547c-0.663,0.961-1.383,1.535-1.647,1.883
	c-0.532,0.704,2.197-3.012,2.389-7.276c0.148-3.334-1.036-7.424-1.101-8.89c-0.12-2.773-0.333-5.063-0.626-3.997
	c-0.116,0.417-0.898,2.438-1.434,5.126c-0.612,3.046-0.981,6.831-0.981,7.989c0,2.855-0.296,5.748-1.092,8.38
	c-0.449,1.475-1.195,2.896-1.795,4.111c-0.481,0.978,10.442-6.109,13.045-8.935c2.827-3.072,5.136-6.25,5.882-10.566
	C127.988,76.306,127.626,74.628,127.666,72.762L127.666,72.762z"/>
<path fill-rule="evenodd" clip-rule="evenodd" fill="#5E5E5E" d="M110.48,83.413c-1.024,1.024-1.723,2.205-2.461,3.23
	c-1.129,1.575-2.125,2.901-2.893,4.534c-1.198,2.545-2.009,5.484-3.24,8.588c-0.546,1.377-1.39,3.515-2.356,4.762
	c-1.238,1.604-2.479,2.835-2.349,2.871c0.069,0.02,0.601-0.392,2.168-0.691c3.993-0.768,6.841-1.037,9.4-1.803
	c3.192-0.956,5.928-2.74,9.827-6.415c3.544-3.341,5.375-9.736,5.191-9.6c-0.489,0.366-1.629,2.907-5.194,5.743
	c-1.271,1.014-3.066,1.58-4.753,2.433c-2.315,1.171-4.256,2.141-6.174,3.402c-1.155,0.759-2.27,1.75-3.533,2.592
	c-1.271,0.849-2.211,1.23-2.32,1.363c-0.753,0.901,2.154-1.514,3.938-4.428c0.677-1.107,1.549-2.429,1.966-3.854
	c0.717-2.454,0.789-5.224,1.321-7.748C109.401,86.579,109.969,84.999,110.48,83.413L110.48,83.413z"/>
<path fill-rule="evenodd" clip-rule="evenodd" fill="#5E5E5E" d="M101.669,96.086c-1.636,1.253-3.935,3.113-6.563,5.51
	c-1.23,1.126-2.288,2.46-3.605,3.644c-1.166,1.048-2.588,1.963-3.725,2.72c-2.096,1.397-3.873,1.625-5.755,2.085
	c-0.308,0.076,0.532,0.19,2.157,0.67c1.625,0.478,4.029,1.325,7.359,1.85c2.219,0.352,4.568,0.742,6.903,0.67
	c4.163-0.131,8.278-1.327,11.533-3.942c2.598-2.092,3.789-4.138,4.44-5.044c0.051-0.072-3.326,2.505-7.984,3.708
	c-2.512,0.648-5.455,0.464-8.496,0.799c-1.01,0.11-2.302,0.081-3.334,0.24c-1.969,0.305-3.66,0.797-5.35,0.771
	c-0.021,0,3.942-0.88,6.57-3.379C99.201,103.174,100.692,98.109,101.669,96.086L101.669,96.086z"/>
<path fill-rule="evenodd" clip-rule="evenodd" fill="#5E5E5E" d="M104.464,113.915c-1.133,1.066-1.984,1.964-3.066,2.717
	c-8.807,6.133-16.126,2.527-21.226-0.934c-2.14-1.449-3.236-2.57-4.938-3.305c-0.775-0.335-1.416-0.643-2.788-0.774
	c-1.6-0.152-4.443,0.474-6.285,1.394c-0.405,0.202-3.252,1.875-6.027,4.128c-2.605,2.114-5.113,4.77-6.527,6.352
	c-0.141,0.155-2.728-2.055-2.641-2.12c1.871-1.398,3.467-3.138,5.378-4.662c1.486-1.186,3.264-2.188,4.843-3.137
	c1.938-1.16,3.526-1.73,5.163-2.251c1.537-0.489,3.123-0.958,5.086-1.143c2.936-0.276,5.998-0.486,8.829,0.697l11.087,4.644
	c1.977-0.293,4.282,0.852,6.259,0.558C99.849,115.749,102.093,115.094,104.464,113.915L104.464,113.915z"/>
<g>
	<path fill="#5E5E5E" d="M81.173,27.122c-1.538-0.583-2.078-0.417-3.699-0.167c-0.916,0.123-1.332,0.956-2.204,0.956
		c-0.584,0-0.626,0.873-0.168,1.206c0.997,0.746,3.121,0.331,3.078-0.167c0.666,0,2.371,0.167,2.911-0.083
		C82.382,28.242,82.922,27.786,81.173,27.122z"/>
	<path fill="#5E5E5E" d="M89.306,34.227c0.033-0.344-0.195-1.03,0.083-1.538c0.108-0.197-0.344-0.429-1.003-0.604
		c-0.221-0.058-0.322-0.268-0.659-0.268c-0.786,0-0.865,0.402-0.402,0.97C87.917,33.518,89.288,34.448,89.306,34.227z"/>
	<path fill="#5E5E5E" d="M69.466,70.541c-0.057-0.123-0.662-0.628-0.412-0.67c0.301-0.047,1.684,0.229,1.981,0.015
		c0.41-0.291,0.362-1.035,0.68-1.654c0.298-0.577,0.754-1.245,0.806-1.73c0.064-0.626-0.363-1.024-0.78-1.299
		c-0.385-0.253-1.885-0.463-2.571,0.123c-0.23,0.195-0.031,0.72-0.12,1.042c-0.033,0.498-0.728,1.278-1.316,1.707
		c-0.268,0.193-0.642,0.058-0.696,0.242C66.562,69.977,70.469,72.76,69.466,70.541z"/>
	<path fill="#5E5E5E" d="M67.799,21.759c-23.545,0-42.701,19.142-42.701,42.668c0,23.529,19.156,42.67,42.701,42.67
		c23.545,0,42.701-19.142,42.701-42.67C110.5,40.9,91.344,21.759,67.799,21.759z M67.919,22.601
		c11.442,0.032,21.817,4.677,29.363,12.166l-4.928,4.925c-0.662-1.126-1.221-2.336-1.622-3.305c-0.188-0.458-0.59-0.559-0.843-0.851
		c-0.554-0.643-1.05-1.2-1.701-1.384c-0.181-0.051-0.21-0.344-0.634-0.514c-0.253-0.098-0.402-0.244-1.01-0.398
		c-0.576,0-1.491,0.146-2.187,0.347c-0.315,0.092-0.792-0.013-0.804,0.25l-0.016,0.31c-4.68-2.44-9.988-3.834-15.619-3.854V22.601z
		 M34.528,65.542h8.705c0.062,1.356,0.252,2.678,0.523,3.969c-0.013,0.021-0.031,0.042-0.044,0.063
		c-0.547,0.916-0.719,3.272-1.056,4.134c-0.07,0.182-1.521-0.236-3.032-0.336c-0.216-0.015-0.379-0.948-0.597-0.901
		c-0.774,0.163-0.598,0.518-1.253,0.857c-0.739,0.383-1.568-0.456-2.048,0.043C35.029,70.866,34.618,68.244,34.528,65.542z
		 M63.749,64.703c-0.008-0.422,0.017-0.518,0.536-0.833c0,0.007-0.026-0.152,0.021-0.167c0.459-0.15,0.334-0.08,0.583,0.123
		c0.35,0.283,0.76-0.242,1.023,0.33c0.182,0.396-0.019,1.111,0.597,1.006c0.116-0.018,0.71-0.003,0.783,0.143
		c0.146,0.298-0.002,0.382-0.146,0.646c-0.207,0.384-0.5-0.036-0.545-0.318c-0.016-0.094-0.867-0.284-0.867,0.013
		c0,0.52-0.81,0.253-1.154,0.233c-0.178-0.011-0.332,0.213-0.472,0.054c-0.124-0.141-0.822-0.243-1.275,0.315
		c-0.152,0.185,0.241-0.376,0.241-0.574c0-0.058,0.038-0.092,0.066-0.132c0.15-0.223,0.612-0.244,0.612-0.536
		C63.752,64.878,63.75,64.793,63.749,64.703z M67.032,55.544c-0.242,0.007-0.494-0.165-0.604-0.136
		c-0.562,0.143-0.645-0.592-1.025-0.458c-0.632,0.225-0.135,0.597-0.579,0.487c-0.494-0.12-0.174-0.668-0.261-1.083
		c-0.053-0.248-0.456-0.421-0.704-0.501c-1.38-0.462-1.019-0.304-2.459-0.963c-0.272-0.127-0.916-0.485-1.329-0.293
		c-0.531,0.246-0.86,1.111-1.409,1.446c-0.452,0.275-0.794,0.232-1.168,0.485l-1.513-1.512c2.837-2.934,6.751-4.805,11.1-4.995
		v7.517C67.064,55.54,67.047,55.544,67.032,55.544z M54.821,53.045c-2.678,3.044-4.316,7.022-4.316,11.382
		c0,0.094,0.013,0.183,0.014,0.275H44.03c-0.001-0.094-0.014-0.181-0.014-0.275c0-6.148,2.369-11.741,6.219-15.965L54.821,53.045z
		 M50.8,47.841c4.165-4.26,9.91-6.95,16.28-7.142v6.483c-4.581,0.192-8.705,2.155-11.694,5.241L50.8,47.841z M44.072,65.542h6.489
		c0.006,0.092,0.023,0.182,0.03,0.274c-0.16,0.262-0.317,0.552-0.358,0.776c-0.132,0.721-0.095,1.325,0.055,1.9
		c0.022,0.085,0.041,0.138,0.062,0.203c-0.048,0.573-0.108,1.126-0.327,1.129c-1.024,0.021-2.399-2.345-3.489-2.248
		c-0.588,0.053-1.418,0.501-2.081,1.114C44.267,67.66,44.123,66.614,44.072,65.542z M50.804,67.457
		c0.006,0.031,0.014,0.062,0.02,0.093c-0.011-0.011-0.022-0.018-0.034-0.027C50.791,67.499,50.801,67.48,50.804,67.457z
		 M51.387,63.535c0.069-1.278,0.275-2.519,0.623-3.701c-0.203,0.708-0.234,1.574-0.295,2.277
		C51.671,62.609,51.53,63.081,51.387,63.535z M56.113,64.703h-3.109c0.204-1,0.536-2.22,0.955-2.458
		c0.479-0.275,1.543-0.051,1.853,0.121C56.418,62.706,56.255,63.738,56.113,64.703z M56.373,55.928
		c-0.838,0.798-1.42-0.015-1.61,1.075c-0.032,0.183-0.174,0.634-0.492,0.804c-0.394,0.21-0.585-0.157-1.007,0.114
		c-0.327,0.211-0.512,0.766-0.638,0.863c-0.283,0.224-0.464,0.569-0.588,0.968c0.684-2.283,1.846-4.361,3.378-6.113l1.508,1.507
		C56.729,55.441,56.574,55.737,56.373,55.928z M67.08,39.86c-6.602,0.192-12.558,2.975-16.874,7.388L44.054,41.1
		c5.891-5.987,14.024-9.743,23.025-9.938V39.86z M49.641,47.869c-4.001,4.378-6.464,10.179-6.464,16.559
		c0,0.094,0.013,0.181,0.014,0.275h-8.705c-0.001-0.094-0.014-0.181-0.014-0.275c0-8.778,3.442-16.75,9.017-22.707L49.641,47.869z
		 M38.868,80.108c0.325,0.219,0.604,0.558,0.95,0.787c0.568,0.38,1.164,0.603,1.779,0.99c0.403,0.253-0.243,0.622,0.176,0.876
		c0.504,0.312,0.869,0.726,1.416,1.024c0.24,0.13,0.373-0.409,0.62-0.282c0.405,0.206,0.264,0.807,0.688,1.016
		c0.322,0.16,0.431,0.649,0.77,0.802c0.146,0.064,0.438,0.326,0.778,0.648l-1.895,1.893c-2.274-2.292-4.207-4.917-5.736-7.788
		C38.566,80.026,38.72,80.007,38.868,80.108z M53.762,77.3c-0.331-0.687,0.214-2.201-0.146-2.863
		c-0.063-0.117-0.109-0.253-0.156-0.387c0.598,0.89,1.272,1.726,2.022,2.487l-1.394,1.393C53.979,77.729,53.869,77.522,53.762,77.3z
		 M52.964,71.486c-0.078-0.327-0.194-0.602-0.356-0.816c-0.496-1.208-0.86-2.482-1.058-3.813c0.39-0.072,0.835-0.033,1.099,0.055
		c0.441,0.147,0.092-0.563,0.147-1c0.011-0.09,0.03-0.219,0.054-0.37h3.165c-0.012,0.189-0.014,0.367,0.009,0.518
		c0.106,0.68-0.535,0.673-0.881,0.644c-0.1-0.231-0.615-0.764-1.079-0.453c-0.206,0.14-0.05,0.536-0.082,0.905
		c-0.031,0.366-0.25,0.706,0.243,0.907c0.178,0.072-1.434,0.183-1.215,0.24c0.593,0.16,0.198,1.17,1.159,1.242
		c0.345,0.028,0.456-0.774,0.583-1.155c0.203-0.597-0.202-0.783,0.219-0.781c0.427,0,0.046-0.044,0.544,0.027
		c0.271,0.04,0.74,0.045,1.042,0.1c1.115,0.207,2.28,0.203,3.201,0.463c0.339,0.096,0.136,0.438,0.245,0.604
		c0.153,0.235,0.575,0.278,0.892,0.141c0.401-0.173,0.208,0.379,0.445,1.043c0.044,0.121,0.09,0.325,0.229,0.467l-5.494,5.491
		C54.802,74.65,53.753,73.142,52.964,71.486z M61.974,70.603c0.107,0.002,0.227-0.011,0.378-0.058
		c0.229-0.072-0.589-0.71,0.214-0.91c0.163-0.042,0.154,1.768,0.867,1.768c1.165,0,1.116-0.908,1.159-1.538
		c0.042-0.594,0.919,0.339,1.406,0.094c0.921-0.459,0.805-1.002,0.721-2.258c-0.021-0.304,0.548,0.419,0.713,0.105
		c0.174-0.333,0.231-0.909,0.512-1.419c0.221-0.4,0.702-0.724,0.676-1.101c-0.036-0.514-0.933-0.534-1.214-0.834
		c-0.344-0.369-0.064-0.762-0.091-1.178c-0.044-0.659,0.121-1.404,0.685-1.875c0.73-0.612,1.604-1.683,2.244-1.767
		c0.5-0.063,0.88,0.21,1.314-0.506c0.429-0.704-0.136-1.123-0.049-2.163c0.062-0.724,0.449,0.917,0.933,1.573
		c0.623,0.84,1.382,0.862,1.415,0.724c0.011-0.05,0.203-0.241,0.404-0.33c0.004,0.005,0.009,0.01,0.014,0.015l0.043-0.043
		c0.085-0.028,0.168-0.036,0.239,0.005c0.48,0.273,0.918,1.559,1.704,2.105c0.178,0.123,0.312,0.709,0.456,1.311
		c0.062,0.25-0.853,0.879-0.786,1.1c0.088,0.29,0.377,0.456,0.703,0.485c0.147,0.013,0.391,0.34,0.565,0.796h-0.895
		c-0.009,0.284-0.048,0.561-0.085,0.839h1.195c0.115,0.677,0.146,1.29,0.251,1.093c0.105-0.197,0.583,1.22-0.138,1.627
		c-0.525,0.297-2.125,0.526-2.524,0.794c-1.422,0.949-0.903,1.69-0.769,1.66c0.071-0.017-0.094,0.076-0.347,0.195l-0.279-0.278
		c-0.206,0.193-0.427,0.365-0.651,0.537l0.085,0.085c-0.097,0.032-0.19,0.061-0.276,0.08c-0.813,0.189-2.873-0.367-2.506-0.27
		c0.609,0.164,1.762,1.605,1.776,3.147c0.012,1.12-0.332,2.3,0.512,2.499c0.059,0.015,0.143,0.011,0.216,0.019
		c-0.601,0.096-1.165,0.206-1.587,0.351c-0.301,0.105,0.025,0.431-0.198,0.551c-0.861,0.459-0.369,1.468-0.425,1.549
		c-0.044,0.063-0.065,0.315,0.056,0.506c-0.38,0.151-0.816,0.623-1.229,1.098c-0.482,0.047-0.969,0.074-1.463,0.078v-7.92
		c-0.041,0.001-0.08,0.013-0.12,0.013c-0.246,0-0.479-0.053-0.72-0.073v7.949c-4-0.174-7.627-1.773-10.392-4.313l5.623-5.62
		C62.196,70.803,62.087,70.7,61.974,70.603z M75.732,56.275c0.073-0.081,0.167-0.153,0.254-0.229l-0.248,0.248
		C75.724,56.295,75.719,56.291,75.732,56.275z M71.653,80.246l-0.375-0.362c0.134-0.025,0.285-0.068,0.467-0.148
		c0.885-0.391,2.99-2.348,3.694-2.49c0.487-0.102,0.598,0.512,0.783,0.586c0.203,0.08,0.361,0.226,0.53,0.352
		c-1.42,0.928-2.986,1.646-4.663,2.102L71.653,80.246z M82.98,79.88c-0.078-0.026-0.16-0.078-0.24-0.123l-0.708-0.707
		c0.395-0.031,0.916-0.205,1.458-0.176c0.377,0.021,0.765,0.138,1.148,0.262c-0.124,0.243-0.31,0.563-0.597,0.982
		C83.702,80.057,83.351,80.004,82.98,79.88z M80.324,77.344c0.285-0.116,0.518-0.259,0.672-0.43
		c0.405-0.451,1.115,0.011,1.206,0.172c0.185,0.34-0.507,0.964-0.715,1.419L80.324,77.344z M78.344,78.079
		c0.208,0.127,0.414,0.241,0.589,0.223c0.207-0.021,0.188-0.646,0.38-0.681c0.029-0.005,0.055-0.013,0.083-0.019l1.472,1.471
		c-0.589,0.107-1.324,0.404-1.787,0.753c-0.612,0.463-0.738,1.017-1.488,1.144c-0.625,0.106-1.552-0.694-2.223-1.024
		C76.429,79.426,77.419,78.794,78.344,78.079z M85.898,79.81c-0.02-0.012-0.047-0.013-0.063-0.032
		c-0.061-0.073-0.08-0.205-0.09-0.345c0.123,0.018,0.243,0.027,0.359,0.021c0.024-0.001,0.046,0.003,0.07,0.002
		C86.078,79.571,85.995,79.696,85.898,79.81z M88.959,73.656c-0.546-0.157-1.071,1.29-2.114,1.822
		c-0.478,0.244-1.231-0.091-1.846-0.166c-0.322-0.04,0.641-0.019,0.927-0.116c0.474-0.167,0.854-0.427,1.014-0.424
		c0.242,0.004,1.401-0.781,2.205-1.578c0.59-0.581,0.865-1.218,1.093-1.309c0.035-0.014,0.071-0.004,0.107-0.006
		c-0.242,0.73-0.514,1.446-0.823,2.145C89.372,73.861,89.195,73.725,88.959,73.656z M85.078,48.149
		c1.31,1.386,2.452,2.93,3.403,4.596c-0.085,0.294-0.234,0.59-0.333,0.863c-0.508,0-1.05-0.03-1.603-0.188
		c-1.466-0.42-3.117-1.406-3.67-1.644c-0.203-0.086-1.3,0.974-1.292,1.615c0.004,0.322,0.466,0.481,0.779,0.545
		c-0.169,0.036-0.395,0.144-0.646,0.295c-0.384-0.52-0.786-1.025-1.223-1.499L85.078,48.149z M81.023,54.703
		c-0.371,0.279-0.761,0.607-1.127,0.947c-0.749,0.695-1.412,1.69-1.647,1.549c-0.62-0.371-0.974-0.831-1.195-1.032l2.845-2.842
		C80.3,53.762,80.67,54.226,81.023,54.703z M67.919,81.703c0.219-0.002,0.433-0.025,0.65-0.035c-0.232,0.199-0.45,0.25-0.65,0.324
		V81.703z M68.968,87.746l0.346,0.368c-0.464,0.029-0.924,0.07-1.395,0.073v-1.459C68.279,87.084,68.658,87.416,68.968,87.746z
		 M67.919,89.027c0.725-0.004,1.439-0.048,2.148-0.113l0.948,1.008c0.524,0.558,2.382,0.857,3.996,1.162
		c0.485,0.09,1.235-0.091,1.626,0.016c0.388,0.107,0.42,0.498,0.42,0.786l-0.431,0.902c-0.478,1.007,0.775,1.729,1.361,2.135
		c0.356,0.246,0.682,0.541,1.05,0.837c-3.476,1.256-7.216,1.951-11.119,1.966V89.027z M91.723,86.175
		c0.183-0.341-0.122-0.931-0.389-1.636c-0.17-0.445-0.275-0.986-0.518-1.376c-0.854-1.362-1.144-1.095-1.357-0.38
		c-0.031,0.102-0.062,0.219-0.093,0.337c-1.049-0.296-1.917-0.913-2.791-1.584c0.342-0.462,1.502-0.976,1.295-1.022
		c-0.409-0.093-0.69-0.432-0.992-0.577c0.086-0.106,0.174-0.211,0.259-0.319c0.558,0.181,1.025,0.42,1.45,0.234
		c0.221-0.098,0.742-2.661,0.901-2.893c0.341-0.49,0.52-1.211,0.466-1.859c0.473-0.98,0.882-1.997,1.224-3.044h0
		c0.177-0.047,0.3-0.566,0.481-0.577c4.177-0.21,6.324-0.248,7.515-0.774c1.47-0.648-0.405-1.771-1.531-1.973
		c-0.252-0.046-0.871,0.774-1.078,1.088c0.023-0.32-0.677-1.083-1.543-1.995c-0.456-0.479-0.822-1.174-1.213-1.775
		c-0.13-0.201-0.459-0.15-0.539-0.398c-0.012-0.037,0-0.073-0.004-0.109h7.802c-0.279,8.362-3.635,15.952-8.998,21.659
		c0.002-0.024,0.012-0.045,0.012-0.07C92.083,86.68,91.94,86.4,91.723,86.175z M93.616,64.703c0.453-0.569,1.142-1.209,1.009-2.105
		c-0.152-0.999-0.753-0.489-0.807-1.857c-0.047-1.215-0.239-1.416,0.604-1.694c0.887-0.292,0.637-1.022,0.945-1.417
		c0.185-0.235-0.753-1.006-1.86-1.3c-0.204-0.053-0.432,0.055-0.656,0.184c-0.012-0.137-0.021-0.275-0.025-0.413
		c-0.003-0.241,0.333-0.838,0.3-1.077c-0.076-0.579-0.326-1.422-0.72-1.85c-0.25-0.273-0.623-0.116-0.829-0.471
		c-0.185-0.318,0.565-0.896,0.489-1.066c-0.195-0.433-0.753-0.013-0.894-0.481c-0.054-0.176,0.561-0.546,0.503-0.871
		c-0.029-0.145-0.529-0.177-0.706-0.36c-0.199-0.208-1.053,0.641-1.296,0.5c-0.354-0.204-0.141-0.838-0.5-1.167
		c-0.907-0.831-1.746-1.959-2.26-2.941l1.204-1.203c0.304,0.468,0.867,0.728,1.74,0.839c0.583,0.076,0.735,0.688,1.064,1.139
		c0.554,0.751,1.216,1.442,2.364,1.292c0.564-0.072,1.448,1.289,1.878,1.977c0.445,0.711,0.645,1.227,1.307,1.404
		c0.301,0.08,0.695-0.288,1.252-0.074c0.404,0.157,0.727,0.274,0.989,0.337c1.553,3.833,2.414,8.016,2.414,12.4
		c0,0.094-0.013,0.181-0.014,0.275H93.616z M67.919,31.132c5.627,0.02,10.927,1.443,15.573,3.933l-0.141,2.8
		c-0.032,0.648,0.999,0.774,1.144,1.024c0.09,0.148-0.105,0.38-0.105,0.604c0,0.38,0.3,0.97,0.318,1.495
		c0.022,0.521-0.239,0.977,0.04,1.256c0.083,0.083,0.901-0.768,1.545-1.006c0.293-0.108,0.55,0.29,0.688,0.29
		c0.398,0,1.115,1.267,1.162,1.585c0.055,0.387-0.143,0.724-0.236,1.019l-1.379,1.378c-0.269-0.621-0.813-1.812-1.027-2.06
		c-0.127-0.148-0.138-0.594-0.246-0.695c-0.493-0.467-0.923-0.224-1.267-0.586c-0.221-0.235-0.648-0.651-0.905-1.017
		c-0.188-0.268-1.252-1.48-1.18-1.227l0.865,3.014c0.181,0.624-0.069,1.79,0.08,2.04c0.001,0.001,0,0.003,0,0.004
		c-4.135-3.203-9.31-5.125-14.929-5.152V31.132z M67.919,40.67c6.458,0.033,12.312,2.648,16.584,6.865l-4.587,4.584
		c-3.096-3.044-7.328-4.934-11.997-4.967V40.67z M79.323,52.712l-0.749,0.749c-0.092-0.215-0.267-0.441-0.376-0.595
		c-0.177-0.251,0.142-0.675-0.271-0.612c-0.731,0.116-2.037,1.539-2.256,1.468c-1.502-0.487-4.109-0.436-5.041-0.15
		c-0.588,0.183-0.53-0.811-0.834-0.706c-1.645,0.568-0.348,1.303-1.31,2.211c-0.12,0.115-0.329,0.216-0.566,0.297v-7.381
		C72.356,48.026,76.379,49.821,79.323,52.712z M25.938,64.427c0-22.823,18.391-41.425,41.142-41.811v7.705
		c-9.233,0.196-17.576,4.047-23.619,10.187L38.27,35.32l-0.593,0.594l5.219,5.214c-5.727,6.108-9.263,14.289-9.263,23.299
		c0,0.094,0.014,0.181,0.014,0.275h-7.7C25.944,64.61,25.938,64.52,25.938,64.427z M25.966,65.542h7.722
		c0.1,3.069,0.612,6.033,1.468,8.849c-0.173,0.467-0.282,1.014-0.201,1.576c0.151,1.039,0.057,1.896,0.937,2.773
		c0.602,0.604,0.393-0.031,1.19,0.579c1.647,3.397,3.838,6.483,6.473,9.137l-5.44,5.435C30.838,86.569,26.257,76.583,25.966,65.542z
		 M67.08,106.239c-11.005-0.188-20.985-4.633-28.36-11.764l5.449-5.444c5.98,5.737,14.03,9.317,22.912,9.504V106.239z M67.08,97.695
		c-8.65-0.187-16.49-3.673-22.318-9.258l1.887-1.886c0.588,0.571,1.182,1.143,1.425,1.23c1.48,0.539,1.801-0.313,2.881-0.521
		c0.574-0.108,0.917,0.851,1.669,0.943c0.666,0.081,1.752-0.711,2.196-0.711c0.399,0,2.517-0.097,2.794-0.271
		c0.215-0.137,0.316-0.21,0.354-0.275c2.806,1.228,5.876,1.956,9.111,2.051V97.695z M57.656,85.868
		c-0.015-0.099-0.033-0.188-0.042-0.309c-0.147-1.926-2.706-1.799-3.771-4.412c-0.224-0.551,1.326-1.005,1.09-1.575
		c-0.13-0.315-0.276-0.598-0.425-0.875l1.587-1.586c2.917,2.691,6.753,4.387,10.985,4.561v1.878
		c-0.404,0.587-0.425,0.543-0.399,0.991c0.025,0.433,0.182,0.814,0.399,1.167v2.449C63.711,88.055,60.531,87.231,57.656,85.868z
		 M67.919,106.254v-7.688c4.207-0.015,8.228-0.807,11.943-2.222c1.116,0.683,2.096,2.305,3.175,2.957
		c0.652,0.396,1.343,0.191,2.125-0.112c1.166-0.456,2.132-1.392,2.928-2.509c0.858-1.203,1.9-2.143,2.415-3.396
		c0.174-0.42,0.905-1.856,0.905-2.787c0-0.48-0.327-0.743-0.51-0.99c0.071-0.065,0.146-0.127,0.216-0.193l5.457,5.453
		C89.093,101.854,79.011,106.224,67.919,106.254z M97.181,94.188l-5.443-5.438c6.055-5.953,9.876-14.14,10.171-23.207h7.35v-0.839
		h-7.308c0-0.094,0.014-0.181,0.014-0.275c0-4.502-0.886-8.797-2.482-12.732c0.048-0.209,0.048-0.511-0.001-0.939
		c-0.29-2.538-1.252-3.294-1.799-4.239c-0.916-1.575-1.694-2.516-3.718-4.612c-0.407-0.42-0.792-0.933-1.155-1.482l5.057-5.055
		c7.292,7.533,11.793,17.777,11.793,29.06C109.661,76.062,104.879,86.599,97.181,94.188z"/>
</g>
<g>
	<path fill="#5E5E5E" d="M161.793,39.957v18.01c0,3.529-0.967,6.221-2.902,8.077c-1.936,1.856-4.668,2.785-8.195,2.785
		c-3.713,0-6.57-0.889-8.57-2.667c-2.003-1.777-3.003-4.509-3.003-8.195v-18.01h3.753v18.01c0,2.502,0.684,4.411,2.053,5.727
		c1.369,1.317,3.291,1.975,5.768,1.975c2.395,0,4.219-0.658,5.469-1.975c1.252-1.316,1.877-3.225,1.877-5.727v-18.01H161.793z"/>
	<path fill="#5E5E5E" d="M167.242,68.157V47.738h3.16v3.396c0.736-1.29,1.672-2.257,2.805-2.903c1.131-0.645,2.436-0.968,3.91-0.968
		c4.686,0,7.029,2.488,7.029,7.465v13.429h-3.355V54.333c0-1.264-0.369-2.264-1.107-3.001c-0.736-0.737-1.75-1.106-3.041-1.106
		c-1.975,0-3.475,0.592-4.502,1.777s-1.541,2.725-1.541,4.621v11.533H167.242z"/>
	<path fill="#5E5E5E" d="M192.756,39.957v4.107H189.4v-4.107H192.756z M189.4,68.157V47.738h3.355v20.419H189.4z"/>
	<path fill="#5E5E5E" d="M202.631,41.616v6.122h4.066V50.7h-4.066v12.678c0,0.764,0.164,1.257,0.492,1.481
		c0.33,0.224,1.008,0.335,2.035,0.335h1.539v2.962h-2.566c-1.816,0-3.08-0.297-3.791-0.889c-0.711-0.592-1.066-1.784-1.066-3.574
		V50.7h-3.477v-2.962h3.477v-6.122H202.631z"/>
	<path fill="#5E5E5E" d="M224.512,61.68h3.316c-0.42,2.212-1.402,3.924-2.941,5.135c-1.541,1.212-3.471,1.816-5.787,1.816
		c-3.107,0-5.482-0.96-7.129-2.883c-1.645-1.922-2.533-4.542-2.666-7.86c0-3.054,0.902-5.588,2.705-7.603
		c1.805-2.014,4.102-3.021,6.893-3.021c2.264,0,4.102,0.6,5.51,1.797c1.408,1.198,2.402,2.692,2.982,4.483
		c0.578,1.791,0.83,3.594,0.75,5.411h-15.285c-0.053,1.896,0.467,3.489,1.561,4.779c1.092,1.29,2.691,1.935,4.799,1.935
		C222.141,65.669,223.904,64.34,224.512,61.68z M212.859,55.993h11.73c-0.078-1.659-0.664-3.035-1.758-4.127
		c-1.092-1.092-2.469-1.639-4.127-1.639c-1.686,0-3.049,0.553-4.088,1.659C213.576,52.991,212.992,54.36,212.859,55.993z"/>
	<path fill="#5E5E5E" d="M249.867,39.957v28.2h-3.357v-2.765h-0.078c-1.055,2.159-3.227,3.238-6.518,3.238
		c-1.5,0-2.838-0.276-4.008-0.829c-1.172-0.553-2.168-1.336-2.982-2.35c-0.816-1.013-1.422-2.159-1.816-3.436
		c-0.396-1.277-0.594-2.652-0.594-4.127c0-3.027,0.811-5.555,2.43-7.583c1.619-2.027,3.916-3.042,6.893-3.042
		c1.236,0,2.475,0.251,3.711,0.75c1.238,0.5,2.199,1.317,2.885,2.449h0.078V39.957H249.867z M234.068,58.125
		c0,2.054,0.547,3.825,1.639,5.312c1.094,1.488,2.652,2.231,4.682,2.231c2.105,0,3.672-0.75,4.699-2.251
		c1.027-1.5,1.541-3.317,1.541-5.45c0-2.238-0.527-4.088-1.58-5.549s-2.674-2.192-4.857-2.192c-2.133,0-3.688,0.75-4.662,2.251
		C234.557,53.978,234.068,55.861,234.068,58.125z"/>
	<path fill="#5E5E5E" d="M139.24,107.982v-28.2h3.99l14.85,22.868h0.08V79.782h3.555v28.2h-4.107l-14.732-22.631h-0.08v22.631
		H139.24z"/>
	<path fill="#5E5E5E" d="M185.332,105.297v2.606c-0.605,0.368-1.408,0.553-2.408,0.553c-1.896,0-2.844-1.053-2.844-3.159
		c-1.791,2.106-4.188,3.159-7.189,3.159c-1.975,0-3.594-0.468-4.857-1.401c-1.264-0.935-1.896-2.376-1.896-4.325
		c0-2.054,0.613-3.516,1.838-4.384c1.223-0.869,2.916-1.501,5.074-1.896c1.553-0.236,2.811-0.434,3.771-0.592
		s1.719-0.401,2.271-0.73s0.83-0.889,0.83-1.679c0-2.265-1.516-3.397-4.543-3.397c-3.266,0-4.963,1.291-5.094,3.871h-3.357
		c0.104-2.37,0.947-4.101,2.527-5.193s3.619-1.64,6.121-1.64c5.109,0,7.662,1.87,7.662,5.608v10.506
		c0,0.896,0.061,1.501,0.178,1.817c0.119,0.315,0.416,0.474,0.889,0.474C184.621,105.494,184.963,105.429,185.332,105.297z
		 M179.881,100.873v-3.437c-0.367,0.291-0.875,0.514-1.52,0.672c-0.646,0.158-1.33,0.276-2.055,0.355s-1.559,0.197-2.508,0.355
		c-1.316,0.237-2.33,0.626-3.041,1.165c-0.711,0.54-1.066,1.376-1.066,2.508c0,1.027,0.375,1.784,1.127,2.271
		c0.75,0.487,1.691,0.73,2.822,0.73c1.369,0,2.529-0.243,3.477-0.73s1.645-1.086,2.094-1.797
		C179.658,102.256,179.881,101.559,179.881,100.873z"/>
	<path fill="#5E5E5E" d="M193.113,81.441v6.122h4.066v2.962h-4.066v12.678c0,0.765,0.164,1.258,0.492,1.481
		c0.33,0.224,1.008,0.336,2.035,0.336h1.539v2.962h-2.566c-1.816,0-3.08-0.296-3.791-0.889s-1.066-1.783-1.066-3.574V90.525h-3.477
		v-2.962h3.477v-6.122H193.113z"/>
	<path fill="#5E5E5E" d="M204.447,79.782v4.107h-3.357v-4.107H204.447z M201.09,107.982V87.563h3.357v20.419H201.09z"/>
	<path fill="#5E5E5E" d="M208.555,97.792c0-3.133,0.869-5.7,2.607-7.701s4.172-3.002,7.307-3.002c3.133,0,5.568,1.001,7.307,3.002
		s2.607,4.568,2.607,7.701c0,3.081-0.869,5.629-2.607,7.643c-1.738,2.015-4.174,3.021-7.307,3.021c-3.135,0-5.568-1.007-7.307-3.021
		C209.424,103.421,208.555,100.873,208.555,97.792z M212.109,97.792c0,2.396,0.605,4.279,1.816,5.648s2.727,2.054,4.543,2.054
		s3.33-0.685,4.541-2.054s1.818-3.252,1.818-5.648c0-2.422-0.594-4.317-1.777-5.687c-1.186-1.369-2.713-2.055-4.582-2.055
		c-1.844,0-3.363,0.686-4.563,2.055C212.709,93.475,212.109,95.37,212.109,97.792z"/>
	<path fill="#5E5E5E" d="M232.33,107.982V87.563h3.16v3.396c0.736-1.29,1.672-2.258,2.805-2.903c1.131-0.645,2.436-0.968,3.91-0.968
		c4.686,0,7.029,2.488,7.029,7.465v13.429h-3.355V94.159c0-1.265-0.369-2.265-1.107-3.002c-0.736-0.737-1.75-1.106-3.041-1.106
		c-1.975,0-3.475,0.593-4.502,1.777c-1.027,1.186-1.541,2.726-1.541,4.621v11.533H232.33z"/>
	<path fill="#5E5E5E" d="M252.986,101.545h3.357c0.105,2.633,1.936,3.949,5.49,3.949c1.342,0,2.5-0.217,3.475-0.651
		s1.463-1.23,1.463-2.39c0-1.132-0.527-1.922-1.58-2.37c-1.055-0.447-2.752-0.921-5.096-1.422c-2.158-0.5-3.811-1.146-4.957-1.935
		c-1.145-0.79-1.717-2.067-1.717-3.832c0-1.921,0.77-3.37,2.311-4.344c1.539-0.975,3.311-1.462,5.311-1.462
		c5.346,0,8.137,2.133,8.373,6.398h-3.355c-0.211-2.291-1.791-3.437-4.74-3.437c-1.238,0-2.271,0.198-3.1,0.593
		c-0.83,0.396-1.244,1.066-1.244,2.015c0,0.737,0.309,1.323,0.928,1.758c0.617,0.434,1.52,0.796,2.705,1.086
		s2.197,0.526,3.041,0.711c2.08,0.421,3.713,1.046,4.898,1.876c1.184,0.829,1.777,2.14,1.777,3.93c0,2.212-0.844,3.838-2.529,4.878
		s-3.738,1.56-6.16,1.56c-2.449,0-4.477-0.553-6.082-1.658C253.947,105.691,253.092,103.94,252.986,101.545z"/>
</g>
</svg>
