<?xml version="1.0" encoding="utf-8"?>
<!-- Generator: Adobe Illustrator 16.0.3, SVG Export Plug-In . SVG Version: 6.00 Build 0)  -->
<!DOCTYPE svg PUBLIC "-//W3C//DTD SVG 1.1//EN" "http://www.w3.org/Graphics/SVG/1.1/DTD/svg11.dtd">
<svg version="1.1" id="Layer_1" xmlns="http://www.w3.org/2000/svg" xmlns:xlink="http://www.w3.org/1999/xlink" x="0px" y="0px"
	 width="280px" height="140px" viewBox="0 0 280 140" enable-background="new 0 0 280 140" xml:space="preserve">
<g>
	<g>
		
			<radialGradient id="SVGID_1_" cx="121.7051" cy="-20.4453" r="26.5098" gradientTransform="matrix(1 0 0 -1 -92.6948 49.5645)" gradientUnits="userSpaceOnUse">
			<stop  offset="0" style="stop-color:#7C7C7C"/>
			<stop  offset="1" style="stop-color:#5E5E5E"/>
		</radialGradient>
		<circle fill="url(#SVGID_1_)" cx="29.01" cy="70.01" r="26.51"/>
	</g>
	<g>
		
			<radialGradient id="SVGID_2_" cx="49.4883" cy="15.7197" r="45.3362" gradientTransform="matrix(1.1199 0 0 -1.1199 -42.8592 72.0898)" gradientUnits="userSpaceOnUse">
			<stop  offset="0" style="stop-color:#B0B1B4"/>
			<stop  offset="1" style="stop-color:#5D5D5D"/>
		</radialGradient>
		<circle fill="url(#SVGID_2_)" cx="29.01" cy="70.01" r="26.51"/>
	</g>
	<g>
		<g>
			<defs>
				<filter id="Adobe_OpacityMaskFilter" filterUnits="userSpaceOnUse" x="6.823" y="50.343" width="46.448" height="41.479">
					<feColorMatrix  type="matrix" values="1 0 0 0 0  0 1 0 0 0  0 0 1 0 0  0 0 0 1 0"/>
				</filter>
			</defs>
			<mask maskUnits="userSpaceOnUse" x="6.823" y="50.343" width="46.448" height="41.479" id="SVGID_3_">
				<g filter="url(#Adobe_OpacityMaskFilter)">
					
						<image overflow="visible" enable-background="new    " width="213" height="196" xlink:href="F2F90D02.jpg"  transform="matrix(0.2377 0 0 0.2327 4.8223 48.3413)">
					</image>
				</g>
			</mask>
			<path mask="url(#SVGID_3_)" fill="#FFFFFF" d="M27.068,62.139c0,0,3.094-3.965,3.389-4.452s0.412-0.878-0.427-1.397
				c-0.837-0.521-3.641-2.146-4.197-2.568c-0.558-0.422-0.46-1.981,1.18-2.308c1.641-0.324,15.875-1.494,21.419-0.91
				c5.542,0.586,4.789,2.146,4.82,3.413c0.034,1.268-2.229,3.088-5.247,5.785c0,0-4.985,4.582-8.626,7.734
				S24.094,80.305,21.831,82.061c-2.264,1.756-11.039,8.225-11.608,8.647c-0.57,0.422-2.162,1.692-3.029,0.808
				c-0.868-0.885,0-1.871,0.44-2.476C8.073,88.438,25.755,63.699,27.068,62.139z"/>
		</g>
	</g>
	<g>
		
			<image overflow="visible" opacity="0.4" enable-background="new    " width="229" height="208" xlink:href="F2F90D03.png"  transform="matrix(0.2369 0 0 0.24 5.9106 51.5508)">
		</image>
		<g>
			<path fill="#FFFFFF" d="M27.329,62.648c0,0,3.063-3.962,3.355-4.449c0.292-0.487,0.409-0.876-0.421-1.396
				c-0.831-0.521-3.605-2.144-4.157-2.565c-0.552-0.421-0.455-1.98,1.169-2.307c1.624-0.323,15.716-1.493,21.205-0.908
				c5.489,0.585,4.741,2.144,4.773,3.409c0.033,1.267-2.208,3.086-5.195,5.78c0,0-4.936,4.579-8.541,7.729
				S24.385,80.8,22.144,82.555c-2.24,1.754-10.927,8.217-11.492,8.641c-0.564,0.423-2.14,1.691-3,0.809
				c-0.859-0.885,0-1.871,0.436-2.475S26.031,64.207,27.329,62.648z"/>
		</g>
	</g>
	<path fill="#4D4D4F" d="M26.763,55.979c0.552,0.422,3.326,2.046,4.157,2.565c0.11,0.069,0.204,0.137,0.283,0.202
		c0.064-0.092,0.113-0.163,0.139-0.206c0.292-0.487,0.407-0.877-0.421-1.396c-0.831-0.52-3.604-2.143-4.157-2.565
		c-0.033-0.025-0.881-0.699-0.909-0.733C26.2,54.796,26.429,55.725,26.763,55.979z"/>
	
		<linearGradient id="SVGID_4_" gradientUnits="userSpaceOnUse" x1="98.0103" y1="-38.481" x2="149.3307" y2="-8.8511" gradientTransform="matrix(1 0 0 -1 -92.6948 49.5645)">
		<stop  offset="0.0356" style="stop-color:#48484A"/>
		<stop  offset="0.0814" style="stop-color:#898B8D"/>
		<stop  offset="0.145" style="stop-color:#48484A"/>
		<stop  offset="0.9135" style="stop-color:#48484A"/>
		<stop  offset="0.9695" style="stop-color:#898B8D"/>
		<stop  offset="0.9784" style="stop-color:#737577"/>
		<stop  offset="0.9921" style="stop-color:#58585A"/>
		<stop  offset="1" style="stop-color:#4D4D4F"/>
	</linearGradient>
	<path fill="url(#SVGID_4_)" d="M52.916,52.527c0.225,0.539,0.424,1.569,0.336,1.905c-0.317,1.227-2.208,3.086-5.195,5.78
		c0,0-4.936,4.579-8.541,7.729c-3.604,3.15-15.131,12.859-17.372,14.614c-2.24,1.754-10.927,8.217-11.492,8.641
		c-0.43,0.322-2.344,0.601-3.185,0.576c0.271,0.389,0.757,0.818,1.258,1.304c0.885,0.858,2.436-0.384,2.999-0.808
		c0.564-0.422,9.251-6.889,11.492-8.641c2.241-1.755,13.769-11.464,17.373-14.613c3.605-3.149,8.54-7.729,8.54-7.729
		c2.987-2.695,4.619-4.161,4.937-5.388C54.212,55.332,54.41,53.561,52.916,52.527z"/>
	<path fill="#FFFFFF" d="M27.329,62.648c0,0,3.063-3.962,3.355-4.449c0.292-0.487,0.409-0.876-0.421-1.396
		c-0.831-0.521-3.605-2.144-4.157-2.565c-0.552-0.421-0.455-1.98,1.169-2.307c1.624-0.323,15.716-1.493,21.205-0.908
		c5.489,0.585,4.992,2.567,4.773,3.409c-0.317,1.227-2.208,3.086-5.195,5.78c0,0-4.936,4.579-8.541,7.729S24.385,80.8,22.144,82.555
		c-2.24,1.754-10.927,8.217-11.492,8.641c-0.564,0.423-2.14,1.691-3,0.809c-0.859-0.885,0-1.871,0.436-2.475
		S26.031,64.207,27.329,62.648z"/>
</g>
<path fill="#5E5E5E" d="M94.706,47.974v32.997c0,7.275-6.397,12.805-14.854,12.805C71.402,93.775,65,88.247,65,80.971V55.729
	c0-4.268,3.438-7.755,7.73-7.755h0.541V80.91c0,3.91,3.504,6.314,6.883,6.314c3.26,0,6.766-2.227,6.766-6.314v-25.6
	c0-4.028,3.316-7.336,7.361-7.336H94.706L94.706,47.974z"/>
<path fill="#5E5E5E" d="M111.004,59.634c11.291,0,13.102,6.314,13.102,10.1v23.559h-0.36c-4.167,0-7.73-3.486-7.73-7.633V69.855
	c0-2.226-0.906-4.874-5.311-4.874c-2.052,0-3.263,0.242-4.59,0.723c0,0.544,0,27.588,0,27.588h-8.091V62.1
	C101.469,60.594,107.021,59.634,111.004,59.634L111.004,59.634z"/>
<path fill="#5E5E5E" d="M131.683,47.974c2.415,0,4.345,1.803,4.345,4.026c0,2.165-1.931,3.907-4.345,3.907s-4.408-1.742-4.408-3.907
	C127.274,49.776,129.269,47.974,131.683,47.974L131.683,47.974z"/>
<path fill="#5E5E5E" d="M135.666,59.634L135.666,59.634v26.087c0,4.145-3.38,7.571-7.605,7.571h-0.366V59.634H135.666
	L135.666,59.634z"/>
<path fill="#5E5E5E" d="M158.652,47.313c3.807,0,7.367,0.841,10.324,2.644v7.934c-1.811-2.344-4.404-3.965-8.569-3.965
	c-8.216,0-13.283,8.052-13.283,16.409c0,7.878,5.312,16.468,13.283,16.468c3.5,0,6.7-1.019,8.569-3.547v7.811
	c-2.353,1.75-6.033,2.709-10.381,2.709c-13.045,0-19.925-11.9-19.925-23.382C138.672,59.096,145.553,47.313,158.652,47.313
	L158.652,47.313z"/>
<path fill="#5E5E5E" d="M183.273,59.634c1.33,0,3.022,0.12,4.529,0.361v6.429c-2.777-1.979-6.462-1.316-8.09-0.476v19.773
	c0,4.143-3.438,7.57-7.605,7.57h-0.424v-31.07C174.825,60.718,178.025,59.634,183.273,59.634L183.273,59.634z"/>
<g>
	<path fill="#5E5E5E" d="M215.816,75.563c0-10.098-4.889-15.93-13.707-15.93c-8.933,0-14.365,6.674-14.365,16.95
		c0,10.58,5.857,17.19,15.699,17.19c5.434,0,9.234-1.32,11.289-2.406V84.7c-2.055,1.438-4.895,3.243-10.506,3.243
		c-5.068,0-7.853-2.885-8.516-8.354l20.104-2.768v-1.26H215.816z M195.232,74.12c0-5.947,2.113-9.139,6.639-9.255h0.3
		c2.237,0,6.403,0.718,6.642,7.39L195.232,74.12z"/>
</g>
<g>
	<path fill="#5E5E5E" d="M244.449,47.974c-4.227,0-7.608,3.43-7.608,7.633v5.829c-1.271-0.295-2.717-0.479-4.407-0.479
		c-8.699,0-14.312,6.612-14.312,16.889c0,10.158,5.376,15.811,15.213,15.93h0.547c2.658,0,8.995-0.482,10.927-0.903V47.974H244.449z
		 M236.898,88.186c-0.606,0.119-2.478,0.301-3.32,0.301c-5.006,0-7.487-3.664-7.487-11.061c0-5.287,1.39-11.661,8.033-11.661
		c1.024,0,1.931,0.12,2.774,0.361V88.186z"/>
</g>
<path fill="#5E5E5E" d="M252.563,47.974c2.414,0,4.351,1.803,4.351,4.026c0,2.165-1.937,3.907-4.351,3.907
	c-2.416,0-4.406-1.742-4.406-3.907C248.157,49.776,250.146,47.974,252.563,47.974L252.563,47.974z"/>
<path fill="#5E5E5E" d="M256.549,59.634L256.549,59.634v26.087c0,4.145-3.383,7.571-7.607,7.571h-0.359V59.634H256.549
	L256.549,59.634z"/>
<path fill="#5E5E5E" d="M270.665,47.974v11.66h5.192v6.432h-5.192v17.853c0,2.163,0.724,2.826,3.079,2.826
	c0.604,0,1.51-0.183,2.113-0.423v6.673c-0.363,0.118-1.93,0.78-4.043,0.78c-5.918,0-9.178-2.887-9.178-8.115V66.065h-3.507v-6.432
	h3.507v-4.088c0-4.143,3.379-7.572,7.545-7.572L270.665,47.974L270.665,47.974z"/>
</svg>
