<?xml version="1.0" encoding="utf-8"?>
<!-- Generator: Adobe Illustrator 16.0.3, SVG Export Plug-In . SVG Version: 6.00 Build 0)  -->
<!DOCTYPE svg PUBLIC "-//W3C//DTD SVG 1.1//EN" "http://www.w3.org/Graphics/SVG/1.1/DTD/svg11.dtd">
<svg version="1.1" id="Layer_1" xmlns="http://www.w3.org/2000/svg" xmlns:xlink="http://www.w3.org/1999/xlink" x="0px" y="0px"
	 width="280px" height="140px" viewBox="0 0 280 140" enable-background="new 0 0 280 140" xml:space="preserve">
<g>
	<path fill="none" d="M57.731,64.24L57.731,64.24L57.731,64.24z"/>
	<path fill="none" d="M37.659,30.686L37.659,30.686L37.659,30.686z"/>
	<path fill="none" d="M15.892,121.725L15.892,121.725L15.892,121.725z"/>
	<path fill="none" d="M57.332,57.545L57.332,57.545L57.332,57.545z"/>
	<path fill="#5D5D5D" d="M24.333,47.49c2.223-0.174,4.268-0.607,5.914-1.253c0.429-0.166,0.842-0.355,1.229-0.564
		c-0.936,0.099-1.899,0.201-2.686,0.245c-0.071,0.004-0.133,0.005-0.196,0.006v0.001l-0.087,0.003l-0.02-0.003l-0.106,0.004
		c-0.089,0.004-0.179,0.007-0.259,0.007h-0.025c-2.086,0-3.836-0.544-4.577-0.815c-0.065,0.518-0.053,0.922,0.036,1.264
		C23.669,46.823,23.924,47.185,24.333,47.49z"/>
	<path fill="#5D5D5D" d="M22.214,48.211c-0.547,0-1.103-0.016-1.654-0.047c-0.002,0.513,0.068,1.868,0.838,2.656
		c0.452,0.462,1.077,0.661,1.863,0.591c-0.163-0.874-0.017-1.904-0.015-1.912l0.031-0.265h0.279
		c0.028,0.001,0.429,0.014,1.372,0.003c2.535-0.023,4.493-0.164,5.986-0.432c1.256-0.226,2.207-0.54,3.081-1.021
		c1.414-0.776,2.707-1.439,3.476-1.781c-0.412-0.128-0.905-0.253-1.414-0.355c-0.192-0.04-0.389-0.075-0.582-0.109
		c-0.193-0.032-0.365-0.059-0.512-0.078c-0.242-0.03-0.424-0.045-0.54-0.045c-0.393,0-1.018,0.057-1.589,0.113l-0.013,0.011
		c-0.278,0.227-0.625,0.456-1.021,0.673c-0.386,0.214-0.831,0.421-1.321,0.613C28.211,47.719,25.276,48.211,22.214,48.211z"/>
	<path fill="#5D5D5D" d="M31.735,32.007c-0.218,0.358-0.271,0.921-0.284,1.656c-0.016,0.875,0.126,1.433,0.448,1.757
		c0.294,0.285,0.76,0.412,1.512,0.412c0.332,0,0.538-0.025,0.738-0.05l0.021-0.002c0.259-0.034,0.507-0.065,0.931-0.054h0.037
		c0.443,0,0.818-0.207,1.18-0.407c0.348-0.193,0.675-0.376,1.058-0.376h0.032c0.355,0,0.643,0.048,0.904,0.149l0.161,0.063
		l-0.01,0.005c0.223,0.11,0.414,0.256,0.588,0.401c0.533,0.445,0.837,0.854,1.018,1.367c0.18,0.52,0.214,1.119,0.209,1.859
		c-0.011,1.752-0.192,2.99-0.537,3.681c-0.332,0.67-0.754,0.785-1.124,0.81c-0.292,0.021-1.268,0.084-2.195,0.084
		c-0.565,0-1.014-0.023-1.334-0.07c-0.198-0.027-0.392-0.067-0.605-0.113c-0.144-0.029-0.298-0.061-0.496-0.096
		c-0.367-0.064-0.568-0.114-0.77-0.19c-0.208-0.083-0.396-0.191-0.686-0.373l-0.012-0.007c-0.061-0.037-0.142-0.094-0.23-0.157
		l-0.092-0.065c-0.078-0.055-0.222-0.156-0.345-0.224c0.02,0.038,0.033,0.08,0.033,0.128c-0.006,0.179-0.015,0.448-0.049,0.73
		c-0.09,0.795-0.344,1.535-0.737,2.152l0.075-0.008c0.147-0.015,0.294-0.03,0.442-0.046l0.034-0.004
		c1.111-0.119,2.16-0.231,2.774-0.232h0.023c0.142,0,0.347,0.017,0.595,0.049c0.172,0.022,0.355,0.049,0.538,0.081
		c0.183,0.031,0.386,0.069,0.602,0.114c0.937,0.188,1.76,0.429,2.262,0.66c0.325-0.02,1.355-0.07,1.949-0.098l1.548-0.076
		c0.216-0.127,0.42-0.275,0.608-0.443c0.221-0.199,0.434-0.427,0.63-0.676c0.967-1.222,1.771-3.206,1.388-4.882l-0.018-0.078
		l0.614-0.14l0.018,0.078c0.431,1.88-0.447,4.075-1.508,5.416c-0.235,0.293-0.472,0.548-0.706,0.757
		c-0.092,0.083-0.188,0.147-0.281,0.209c-0.002,0.001-0.004,0.003-0.007,0.004c0.045,0.015,0.092,0.032,0.144,0.049
		c0.961,0.316,2.566,0.845,3.378,2.617c0.184,0.109,1.078,0.675,1.28,1.478c0.033,0.013,0.065,0.025,0.097,0.037
		c0.06,0.022,0.119,0.043,0.177,0.073c0.512,0.254,1.044,0.57,1.583,0.939c0.292-2.523-2.202-4.29-2.31-4.366l-0.911-0.624
		l1.102,0.047c1.022,0.041,1.715-0.039,2.261-0.251c0.462-0.182,0.761-0.445,1.134-0.798c0.656-0.625,0.926-1.4,1.034-1.861
		c-0.009,0-0.018,0-0.026,0c-1.197,0-2.105-0.303-2.697-0.899c-0.69-0.696-0.692-1.545-0.692-1.581V40.27l0.347,0.036
		c0.166,0.017,0.329,0.026,0.486,0.026c2.01,0,2.854-1.393,3.152-2.096c-0.481-0.041-0.905-0.13-1.262-0.267
		c-0.472-0.18-0.848-0.443-1.148-0.806c-0.504-0.615-0.55-1.784-0.594-2.914c-0.013-0.354-0.026-0.7-0.056-1.046l-0.007-0.079
		l0.079-0.018l0.16-0.015l-0.002-0.241l0.198-0.003c0.107,0,0.216,0.002,0.325,0.007c0.05-0.117,0.116-0.233,0.209-0.367
		c0.25-0.349,0.591-0.827,0.587-2.585c-0.001-1.124-0.2-1.876-0.336-2.261c-0.906,0.351-1.476,0.679-1.843,1.061
		c-0.398,0.416-0.614,0.939-0.719,1.75c-0.094,0.735-0.022,1.767-0.007,1.966l0.035,0.35l-0.347,0.001
		c-0.545,0-0.931-0.026-1.288-0.158c-0.383-0.142-0.714-0.401-1.072-0.841l-0.05-0.062l0.489-0.399l0.051,0.062
		c0.277,0.345,0.524,0.545,0.799,0.647c0.191,0.069,0.414,0.105,0.733,0.116c-0.022-0.441-0.042-1.185,0.033-1.763
		c0.122-0.953,0.387-1.583,0.889-2.107c0.324-0.337,0.753-0.628,1.337-0.905c-0.462-0.054-0.924-0.08-1.402-0.08
		c-0.738,0.002-1.321,0.127-1.8,0.382c-0.4,0.21-0.736,0.519-1.027,0.944c-0.255,0.373-0.414,0.924-0.403,1.405
		c0.002,0.094,0.012,0.194,0.028,0.298c0.014,0.088,0.039,0.181,0.075,0.276l0.028,0.076l-0.125,0.044l-0.498,0.192v-0.103
		c-0.044-0.124-0.079-0.25-0.101-0.378c-0.021-0.123-0.034-0.256-0.036-0.396c-0.012-0.617,0.186-1.297,0.516-1.777
		c0.193-0.282,0.443-0.543,0.744-0.778c-0.27-0.021-0.575-0.042-0.902-0.057c-0.589-0.029-1.223-0.042-2.054-0.042h-0.178
		c-1.223,0.001-3.033,0.097-4.336,0.178c-0.275,0.017-0.542,0.034-0.784,0.051c-0.228,0.014-0.437,0.029-0.613,0.042h-0.007
		c-0.058,0.244-0.169,0.607-0.187,0.633l-0.035,0.05l-0.183,0.146l-0.081-0.003c-0.202-0.009-0.408-0.007-0.613,0.003
		c-0.675,0.033-1.313,0.171-1.797,0.39c-0.5,0.223-0.829,0.53-0.952,0.886c-0.04,0.116-0.061,0.238-0.061,0.363
		c0.002,0.29,0.147,0.509,0.252,0.629c0.26-0.062,0.488-0.129,0.697-0.203c0.347-0.119,0.577-0.197,1.106-0.161l0.08,0.006
		l-0.045,0.635l-0.08-0.006c-0.395-0.03-0.565,0.028-0.851,0.126l-0.038,0.013c-0.212,0.072-0.477,0.162-0.898,0.25
		C32.253,31.522,31.921,31.705,31.735,32.007z M36.709,29.093h0.002c0.039-0.12,0.237-0.639,0.546-0.894l0.061-0.051l0.403,0.486
		l-0.062,0.051c-0.059,0.049-0.118,0.125-0.178,0.228c1.836,0.24,2.592,1.548,2.6,1.562l0.354,0.612l-0.691-0.145
		c-0.395-0.083-1.347-0.176-2.085-0.176h-0.018c-0.15,0-0.287,0.004-0.407,0.014c-0.114,0.007-0.217,0.02-0.3,0.037l-0.078,0.017
		l-0.023-0.076l-0.115-0.534l0.1-0.03c0.053-0.012,0.118-0.02,0.188-0.028c-0.106-0.212-0.176-0.415-0.203-0.593
		c-0.003-0.024-0.005-0.048-0.006-0.071l-0.225-0.005L36.709,29.093z"/>
	<path fill="#5D5D5D" d="M74.344,32.735c-0.114,0.007-0.227,0.02-0.327,0.037c-0.123,0.019-0.244,0.047-0.361,0.083
		c-0.119,0.037-0.219,0.078-0.304,0.126c-0.444,0.236-0.668,0.66-0.666,1.261c0,0.147,0.014,0.29,0.041,0.427
		c0.016,0.082,0.038,0.165,0.069,0.254c0.032,0.087,0.063,0.159,0.1,0.223c0.16,0.292,0.414,0.48,0.734,0.545
		c0.134,0.025,0.308,0.046,0.523,0.063c0.217,0.015,0.464,0.025,0.734,0.032c0.222,0.005,0.458,0.007,0.699,0.007
		c1.212,0,2.67-0.06,3.326-0.115c0.102-0.008,0.197-0.044,0.291-0.111c0.089-0.066,0.175-0.161,0.252-0.28
		c0.074-0.118,0.141-0.252,0.196-0.4c0.113-0.315,0.152-0.617,0.15-0.795c0-0.129-0.016-0.261-0.046-0.393
		c-0.055-0.235-0.155-0.453-0.29-0.631c-0.133-0.18-0.302-0.313-0.486-0.384c-0.109-0.042-0.227-0.063-0.349-0.063
		c-0.557,0.006-1.377,0.02-2.189,0.038C75.799,32.673,74.912,32.699,74.344,32.735z"/>
	<path fill="#5D5D5D" d="M36.449,25.018c0.528-0.156,1.193-0.242,2.146-0.278c-0.062-0.399-0.215-0.775-0.36-1.093
		c-0.22-0.482-0.449-0.982-0.449-1.567c-0.003-0.687,0.563-0.961,0.976-1.162c0.069-0.034,0.134-0.065,0.196-0.097
		c-0.099-0.049-0.192-0.096-0.292-0.126c-0.083-0.026-0.161-0.048-0.236-0.067c-0.068-0.016-0.149-0.031-0.233-0.047
		c-0.192-0.037-0.379-0.056-0.541-0.056c-0.645,0-1.209,0.255-1.55,0.697c-0.075,0.097-0.139,0.204-0.188,0.315
		c-0.049,0.11-0.087,0.237-0.115,0.376c-0.021,0.113-0.031,0.23-0.031,0.356c0.004,1.256,0.415,2.313,0.622,2.767
		C36.412,25.03,36.43,25.024,36.449,25.018z"/>
	<path fill="#5D5D5D" d="M26.204,54.018c-0.361,0.018-0.951,0.306-1.576,0.611c-1.025,0.499-2.18,1.06-3.324,1.064
		c-0.331,0-0.675-0.03-0.929-0.06c-0.028,0.563,0.132,1.776,1.811,2.607c0.131-0.013,0.524-0.06,1.63-0.231l0,0l0.388-0.058
		c0.955-0.137,2.261-0.326,5.293-1.42c0.312-0.114,0.749-0.278,1.126-0.45c-1.122-0.012-1.52-0.291-2.116-0.707
		c-0.102-0.072-0.209-0.146-0.31-0.214c-0.431-0.287-0.921-0.649-1.304-1.169c-0.145,0.027-0.303,0.039-0.474,0.034v0.019
		l-0.099-0.02c-0.011-0.002-0.034-0.003-0.052-0.003l-0.057-0.003H26.204z"/>
	<path fill="#5D5D5D" d="M25.431,38.559c0.84,0.407,1.801,0.675,2.937,0.819c1.095,0.143,2.265,0.161,3.162,0.161h0.22
		c0.258,0,0.522-0.014,0.802-0.028l0.159-0.008c0.355-0.021,0.716-0.041,1.081-0.041c0.75,0,1.75,0.077,2.839,0.671
		c1.579,0.862,2.068,1.864,2.218,2.438c0.097-0.052,0.215-0.154,0.33-0.385c0.211-0.422,0.353-1.115,0.421-2.06
		c-0.471-0.012-1.258-0.101-1.813-0.521l-0.25-0.192c-0.646-0.49-1.098-0.791-2.205-0.791c-0.724,0.001-0.916,0.101-1.101,0.198
		c-0.255,0.136-0.512,0.273-1.367,0.276c-0.463,0-0.999-0.002-1.5-0.033c-0.562-0.034-1.004-0.095-1.354-0.187
		c-0.865-0.231-1.631-0.61-2.28-1.128c-0.128-0.103-0.24-0.198-0.341-0.292c-0.085-0.082-0.196-0.188-0.296-0.297l0,0l-0.014-0.014
		c-0.474-0.517-0.708-1.366-0.625-2.271c0.018-0.17,0.043-0.335,0.077-0.493c0.039-0.165,0.083-0.322,0.135-0.469l0.005-0.017
		c0.153-0.42,0.402-0.909,0.607-1.282c-0.782,0.067-1.624,0.373-2.263,0.822c-0.523,0.368-1.161,1.005-1.229,1.955
		c-0.008,0.12-0.008,0.233,0,0.343c0.051,0.728,0.207,1.306,0.477,1.769C24.531,37.961,24.913,38.307,25.431,38.559z"/>
	<path fill="#5D5D5D" d="M33.09,41.418c-0.067,0.17-0.128,0.375-0.179,0.595c0.229,0.139,0.383,0.229,0.535,0.288
		c0.173,0.067,0.362,0.108,0.652,0.159c0.017,0.003,0.034,0.006,0.052,0.009c-0.016-0.026-0.031-0.055-0.042-0.085
		c-0.107-0.276-0.161-0.579-0.164-0.923l-0.001-0.198c-0.002-0.318-0.007-0.526-0.015-0.667c-0.441,0.014-0.495,0.056-0.527,0.122
		l-0.09,0.187C33.255,41.025,33.171,41.208,33.09,41.418z"/>
	<path fill="#5D5D5D" d="M18.13,33.719c0.094-0.339,0.198-0.971,0.005-1.752c-0.065-0.271-0.19-0.671-0.525-1.022
		c-0.26-0.274-0.623-0.489-1.08-0.638c0.189,0.622,0.354,1.708-0.212,2.904c0.184,0.123,0.378,0.215,0.608,0.291
		C17.244,33.607,17.638,33.679,18.13,33.719z"/>
	<path fill="#5D5D5D" d="M9.417,32.023c0.443-0.088,1.334-0.356,1.821-1.138c-0.167-0.359-0.762-1.336-2.252-1.336
		c-0.36,0-0.752,0.057-1.169,0.171C8.433,30.116,9.311,30.875,9.417,32.023z"/>
	<path fill="#5D5D5D" d="M39.031,21.489c-0.336,0.167-0.616,0.326-0.616,0.591c0,0.442,0.188,0.857,0.388,1.296
		c0.175,0.385,0.358,0.838,0.424,1.349c0.225-0.003,0.452-0.004,0.678-0.004c0.231,0,0.461,0.001,0.69,0.004
		c0.272,0.003,0.542,0.004,0.802,0.004h0.147L41.54,21.46c-0.481-0.114-1.615-0.309-1.869-0.352c-0.069,0.06-0.142,0.123-0.23,0.173
		C39.302,21.359,39.165,21.425,39.031,21.489z"/>
	<path fill="#5D5D5D" d="M34.219,36.408c-0.216,0.026-0.439,0.053-0.796,0.056H33.4c-0.186,0-0.372-0.01-0.566-0.032
		c-0.016,0.134-0.016,0.303,0.043,0.533c0.09,0.339,0.299,0.812,0.64,1.443c0.199-0.039,0.316-0.092,0.417-0.145l0.038-0.018
		c0.003-0.002,0.006-0.003,0.009-0.005l0.015-0.207c0.039-0.56,0.078-1.136,0.249-1.629L34.219,36.408z"/>
	<path fill="#5D5D5D" d="M4.725,36.027c0.375,1.754-0.578,2.505-0.929,2.716c-0.149,0.594-0.035,1.367,0.301,2.026
		c0.167,0.328,0.38,0.613,0.632,0.845C5,41.867,5.313,42.053,5.66,42.165c0.832,0.268,1.851,0.107,2.972-0.47l0.071-0.037
		l0.285,0.563l-0.071,0.036c-0.918,0.474-1.801,0.692-2.59,0.654c-0.158,0.371-0.252,0.715-0.289,1.05
		c-0.04,0.36-0.013,0.754,0.082,1.17c0.433,0.128,1.299,0.628,1.156,2.573c0.012,0.008,0.023,0.017,0.039,0.025
		c0.092,0.049,0.178,0.092,0.265,0.128c0.104,0.044,0.22,0.09,0.339,0.134c0.613,0.217,1.293,0.347,1.819,0.347
		c0.284,0,0.553-0.031,0.81-0.093c0.855-0.207,1.446-0.711,1.792-1.099c0.411-0.46,0.717-1.024,0.839-1.546
		c0.036-0.15,0.054-0.289,0.054-0.412s-0.01-0.258-0.028-0.403c-0.009-0.067-0.02-0.136-0.032-0.207
		c-0.013-0.064-0.026-0.13-0.042-0.193c-0.054-0.226-0.121-0.407-0.179-0.484l-0.047-0.063l0.501-0.38l0.048,0.063
		c0.109,0.146,0.214,0.407,0.288,0.716c0.018,0.071,0.036,0.149,0.049,0.229c0.015,0.076,0.027,0.157,0.037,0.241
		c0.022,0.169,0.032,0.331,0.032,0.48c0,0.166-0.022,0.352-0.067,0.555c-0.082,0.348-0.269,0.753-0.556,1.204
		c0.337,0.211,0.928,0.481,1.606,0.785c1.833,0.826,4.33,1.953,5.037,3.418l0.009-0.004c0.04-0.021,0.081-0.043,0.117-0.062
		c0.179-0.087,0.357-0.166,0.533-0.234c0.007-0.003,0.014-0.006,0.021-0.008c-0.467-0.761-0.6-1.695-0.626-2.375
		c-1.065-0.281-2.473-1.049-3.693-2.016c-0.246-0.194-0.466-0.384-0.656-0.562c-0.206-0.192-0.391-0.379-0.549-0.556l-0.02-0.023
		v-0.065l0.025-0.027l0.403-0.368l0.054,0.051c0.145,0.163,0.311,0.331,0.516,0.524c0.197,0.181,0.405,0.359,0.618,0.529
		c1.08,0.857,2.337,1.559,3.309,1.851c0-0.001,0-0.001,0-0.001l0.024-0.317l0.312,0.021c1.05,0.072,2.131,0.082,3.233,0.03
		c-0.295-0.33-0.477-0.648-0.565-0.992c-0.133-0.521-0.129-1.131,0.012-1.918l0.074-0.392l0.361,0.156
		c0.141,0.058,0.719,0.289,1.566,0.502c-0.186-0.079-0.368-0.16-0.545-0.241c-0.305-0.141-0.619-0.294-0.933-0.456
		c-0.304-0.155-0.614-0.32-0.921-0.491l-0.077-0.044c-1.432-0.808-2.829-1.734-3.933-2.606c-0.196-0.155-0.402-0.326-0.629-0.521
		c-0.19-0.168-0.375-0.337-0.549-0.505l-0.309-0.266l0.351-0.23c0.737-0.484,1.224-0.928,1.532-1.398
		c0.325-0.494,0.476-1.046,0.476-1.736c-0.003-0.612-0.183-1.13-0.537-1.543c-0.067-0.079-0.141-0.153-0.221-0.221
		c-0.072-0.064-0.154-0.126-0.244-0.186c-0.057-0.037-0.11-0.068-0.166-0.097c-0.629-0.041-1.129-0.124-1.527-0.254
		c-0.2-0.066-0.382-0.149-0.577-0.264c-0.007,0.127-0.008,0.271-0.003,0.444c0.018,0.733,0.042,1.734-0.493,3.298l-0.025,0.076
		l-0.596-0.205l0.026-0.075c0.496-1.46,0.475-2.394,0.459-3.076v-0.041c-0.007-0.342-0.013-0.639,0.053-0.914
		c-0.43-0.701-0.869-1.185-1.381-1.523c-0.657-0.434-1.447-0.631-2.439-0.601c-0.76,1.198-2.185,1.426-2.521,1.464
		c-0.375,0.275-0.594,0.534-0.707,0.838c-0.106,0.281-0.14,0.67-0.109,1.257l0.025,0.007c0.142,0.037,0.276,0.073,0.423,0.099
		c0.385,0.071,0.736,0.303,1.14,0.75c0.351,0.391,0.724,0.924,1.155,1.542l0.045,0.065l-0.516,0.363l-0.046-0.066
		c-0.452-0.65-0.796-1.137-1.106-1.479c-0.306-0.339-0.548-0.51-0.787-0.553c-0.262-0.048-0.491-0.109-0.711-0.168l-0.1-0.026
		c-0.428-0.114-0.872-0.232-1.512-0.272c-0.4-0.024-0.704,0.031-0.957,0.184C5.227,35.364,4.998,35.613,4.725,36.027z"/>
	<path fill="#5D5D5D" d="M24.198,59.589c0.484,0.851,1.42,1.457,2.276,1.474l0.049,0.002c0.231,0.002,0.486,0.001,0.74-0.01
		c0.259-0.01,0.517-0.029,0.768-0.054c1.445-0.146,2.887-0.534,4.286-1.151l0.029-0.01c0.402-0.176,0.824-0.374,1.233-0.563
		l0.025-0.012c1.474-0.685,2.682-1.214,3.613-1.257c0.112-0.951,0.299-1.741,0.811-2.488c0.433-0.627,1.084-1.184,2.039-1.737
		c-0.871,0.006-2.07,0.06-3.124,0.27c-1.249,0.25-1.952,0.649-2.632,1.035c-0.677,0.384-1.318,0.748-2.383,0.91
		c-0.145,0.179-0.429,0.369-0.865,0.58c-0.34,0.162-0.782,0.341-1.351,0.546c-3.074,1.109-4.428,1.308-5.417,1.453
		c-0.075,0.01-0.133,0.019-0.232,0.033l-0.15,0.023c-0.008,0.001-0.015,0.002-0.023,0.003c0.017,0.165,0.042,0.299,0.078,0.417
		C24.023,59.231,24.1,59.412,24.198,59.589z"/>
	<path fill="#5D5D5D" d="M45.806,48.929l-0.094-0.053l-0.044-0.1c-0.684-1.591-2.159-2.077-3.041-2.367
		c-0.315-0.104-0.507-0.181-0.651-0.263c-0.299,0.016-0.661,0.033-1.04,0.05l-0.519,0.024c-1.116,0.053-1.785,0.089-1.989,0.104
		l-0.015,0.003c-0.048,0.006-0.129,0.029-0.221,0.063c-0.104,0.036-0.235,0.09-0.429,0.175c-1.066,0.467-2.782,1.397-3.47,1.776
		c-0.936,0.515-1.944,0.851-3.268,1.087c-1.516,0.272-3.509,0.416-6.092,0.439c-0.3,0.002-0.786,0.001-1.094,0
		c-0.044,0.523-0.086,1.616,0.279,2.045c0.123,0.146,0.226,0.287,0.326,0.425l0.033,0.044c0.178,0.243,0.346,0.472,0.571,0.639
		c0.045,0.036,0.106,0.067,0.165,0.097c0.078,0.037,0.161,0.07,0.246,0.098c0.362,0.124,0.792,0.192,1.122,0.179
		c-0.226-0.462-0.35-0.907-0.399-1.427l-0.033-0.347h0.349c0.045,0,0.893-0.013,2.389,0.007c0.197,0.003,0.388,0.005,0.571,0.005
		c0.712,0,1.281-0.027,1.789-0.083c0.714-0.08,1.375-0.228,2.078-0.466l0.227-0.075c0.114-0.038,0.221-0.074,0.321-0.105
		l0.013-0.004c0.523-0.166,1.004-0.309,1.47-0.437c0.481-0.134,1.008-0.27,1.567-0.405c2.729-0.657,5.413-1.052,7.182-1.057
		c0.153,0,0.305,0.006,0.449,0.019c0.488,0.043,1.015,0.153,1.565,0.326c0.153,0.048,0.312,0.117,0.464,0.184
		C46.258,49.168,45.812,48.932,45.806,48.929z"/>
	<path fill="#5D5D5D" d="M59.59,41.728c-0.858,0-1.458-0.208-2.072-0.716c-0.689-0.572-0.871-1.364-1.063-2.202
		c-0.081-0.354-0.173-0.755-0.314-1.142c-0.262-0.693-0.549-1.19-0.936-1.628c-0.377-0.426-0.885-0.846-1.699-1.404
		c-1.039-0.714-2.155-0.987-2.91-1.089c-0.189-0.024-0.376-0.043-0.556-0.055c-0.082-0.003-0.16-0.004-0.237-0.004
		c0.015,0.239,0.028,0.484,0.04,0.743c0.039,1.022,0.079,2.079,0.45,2.531c0.23,0.278,0.52,0.481,0.884,0.62
		c0.399,0.151,0.885,0.232,1.485,0.247l0.399,0.014l-0.101,0.384c-0.028,0.099-0.282,0.935-0.974,1.692
		c1.002,0.396,1.763,0.867,2.385,1.477c0.753,0.735,1.383,1.71,1.981,3.069c0.08,0.182,0.167,0.345,0.253,0.501l0.04,0.074
		c3.382-0.264,3.931-2.387,4.017-3.18C60.303,41.696,59.93,41.728,59.59,41.728z"/>
	<path fill="#5D5D5D" d="M61.593,48.372c-1.305,0.019-2.376-0.22-3.257-0.728c-1.068-0.612-1.905-1.634-2.559-3.124
		c-0.56-1.276-1.146-2.189-1.844-2.874c-0.643-0.626-1.422-1.09-2.447-1.458c-0.678,0.517-1.49,0.778-2.417,0.778l0,0
		c-0.05,0-0.101-0.001-0.151-0.002c0.15,0.553,0.746,1.62,3.089,1.494l0.364-0.02l-0.031,0.361c0,0.007-0.137,1.524-1.293,2.625
		c-0.091,0.086-0.186,0.168-0.279,0.248c0.038,0.002,0.078,0.006,0.121,0.016c0.316,0.079,0.647,0.206,0.987,0.376
		c1.782,0.888,3.666,2.852,4.381,4.567c0.183,0.438,0.341,0.781,0.495,1.074c0.065,0.003,0.145,0.005,0.238,0.005
		c0.737,0,2.158-0.139,3.387-1.073C61.347,49.902,61.553,48.864,61.593,48.372z"/>
	<path fill="#5D5D5D" d="M57.338,57.465c1.168,0,2.089-0.288,2.812-0.878c1.036-0.845,1.405-1.859,1.536-2.452
		c-0.337,0.041-0.764,0.063-1.219,0.063c-0.266,0-0.526-0.008-0.774-0.023c-0.171-0.009-0.347-0.024-0.521-0.045
		c-0.156-0.018-0.312-0.042-0.46-0.071l-0.103-0.024c-0.735-0.165-1.278-0.479-1.742-1.008c-0.402-0.461-0.748-1.084-1.192-2.152
		l-0.006-0.015c-0.668-1.589-2.416-3.405-4.071-4.23c-0.304-0.152-0.593-0.262-0.857-0.329c-0.26-0.064-0.493-0.086-0.692-0.061
		l-0.081,0.01l-0.007-0.034c-0.003,0.001-0.007,0.004-0.01,0.006c-0.07,0.044-0.144,0.089-0.237,0.125
		c-0.439,0.173-0.959,0.269-1.621,0.297c0.946,0.882,2.285,2.563,1.842,4.735c1.959,1.501,3.114,3.245,3.175,4.794
		c0.115,0.174,0.247,0.328,0.374,0.476c0.046,0.054,0.093,0.108,0.138,0.163c1.519,0.445,2.699,0.652,3.709,0.652L57.338,57.465
		L57.338,57.465z"/>
	<path fill="#5D5D5D" d="M13.067,60.563c0.222,0.126,0.47,0.229,0.738,0.306c0.286,0.082,0.602,0.135,0.938,0.159
		c0.13,0.008,0.261,0.013,0.394,0.013c0.897-0.001,1.924-0.255,3.139-0.778c1.101-0.474,2.291-1.151,3.23-1.706
		c-1.522-0.935-1.746-2.176-1.755-2.782c-0.723,0.303-1.432,0.671-2.036,0.994c-0.616,0.333-1.197,0.649-1.653,0.8l-0.105,0.035
		v-0.001c-1.762,0.568-3.74,0.806-4.443,0.877C11.699,59.153,12.118,60.029,13.067,60.563z"/>
	<path fill="#5D5D5D" d="M57.747,64.16c3.063-0.008,4.405-2.818,4.873-4.175c-0.109,0.025-0.23,0.05-0.362,0.076
		c-0.703,0.133-1.483,0.208-2.199,0.211h-0.072c-0.134,0-0.268-0.003-0.399-0.008c-0.365-0.014-0.742-0.048-1.121-0.1
		c-0.388-0.057-0.768-0.135-1.129-0.232c-2.072-0.554-3.69-1.729-4.81-3.489c-0.033-0.05-0.08-0.108-0.136-0.167l-0.022-0.025
		c-0.139-0.144-0.339-0.307-0.596-0.482c-0.26-0.179-0.576-0.367-0.941-0.56c-1.659-0.875-4.232-1.76-5.941-1.76
		c-1.507,0.002-3.154,0.285-3.497,0.346c-1.427,0.669-2.333,1.332-2.851,2.085c-0.472,0.688-0.632,1.451-0.737,2.457
		c-0.106,1.042,0.02,1.722,0.144,2.108c0.011,0.032,0.021,0.063,0.032,0.093c0.97-0.79,3.934-2.997,6.8-3.001
		c1.557,0,3.375,0.682,5,1.87c0.388,0.284,0.775,0.603,1.15,0.949c0.391,0.358,0.773,0.754,1.137,1.175
		c0.174,0.201,0.351,0.414,0.524,0.636c0.931,0.778,1.804,1.31,2.656,1.614c0.735,0.263,1.5,0.38,2.479,0.38L57.747,64.16
		L57.747,64.16z"/>
	<path fill="#5D5D5D" d="M17.602,53.296c-0.533,0.435-1.148,0.756-1.831,0.956c-0.509,0.153-1.053,0.242-1.71,0.282
		c-0.304,0.019-0.712,0.029-1.211,0.029c-0.199,0-0.383-0.001-0.531-0.003c0.103,0.66,0.542,2.055,2.405,2.729
		c0.43-0.104,0.783-0.202,1.107-0.308l0.035-0.013c0.397-0.132,0.958-0.434,1.55-0.754c0.804-0.434,1.595-0.849,2.421-1.166
		l0.191-0.104c0.201-0.149,0.435-0.3,0.697-0.449c0.304-0.174,0.657-0.357,1.052-0.544c0.387-0.181,0.777-0.348,1.128-0.484
		c0.485-0.187,0.927-0.328,1.291-0.412c-0.074-0.092-0.151-0.195-0.24-0.321c-0.102-0.14-0.204-0.278-0.316-0.412
		c-0.065-0.078-0.125-0.171-0.179-0.283c-1.057,0.137-1.896-0.091-2.484-0.671c-0.063,0.018-0.127,0.038-0.209,0.068
		c-0.148,0.059-0.312,0.131-0.488,0.215C19.39,52.082,18.164,52.835,17.602,53.296z"/>
	<path fill="#5D5D5D" d="M45.879,21.901c0.001,0.64-0.212,1.152-0.419,1.646c-0.151,0.36-0.296,0.753-0.343,1.186
		c0.222,0.025,0.494,0.064,0.762,0.14c0.253,0.068,0.646,0.189,0.941,0.28c0.315-0.486,0.965-1.633,0.963-2.812
		c0-0.235-0.031-0.459-0.091-0.668c-0.102-0.341-0.295-0.621-0.573-0.831c-0.294-0.225-0.622-0.322-0.845-0.363
		c-0.134-0.025-0.278-0.038-0.416-0.038c-0.458,0-0.868,0.092-1.321,0.236c0.076,0.039,0.156,0.078,0.235,0.116
		C45.292,21.044,45.879,21.328,45.879,21.901z"/>
	<path fill="#5D5D5D" d="M21.306,55.057c1.001,0,2.088-0.529,3.047-0.997c0.259-0.126,0.487-0.233,0.691-0.325
		c-0.038-0.016-0.071-0.032-0.103-0.047c-0.059-0.027-0.11-0.058-0.157-0.087h-0.018c-0.293,0.001-0.887,0.167-1.63,0.454
		c-0.343,0.132-0.709,0.29-1.089,0.468c-0.372,0.175-0.712,0.35-1.009,0.52c-0.004,0.003-0.009,0.005-0.014,0.008
		c0.088,0.004,0.173,0.007,0.255,0.007L21.306,55.057L21.306,55.057z"/>
	<path fill="#5D5D5D" d="M42.176,24.72c0.281-0.005,0.569-0.01,0.821-0.018c0.588-0.022,1.046-0.035,1.495-0.02
		c0.055-0.526,0.218-0.974,0.387-1.382c0.192-0.459,0.374-0.893,0.374-1.4c-0.002-0.176-0.435-0.385-0.751-0.538
		c-0.22-0.107-0.494-0.252-0.689-0.439c-0.006,0.002-0.012,0.003-0.018,0.005c-0.022,0.007-0.044,0.013-0.067,0.022
		c-0.461,0.172-0.966,0.351-1.555,0.503L42.176,24.72z"/>
	<path fill="#5D5D5D" d="M36.819,53.432c1.162-0.232,2.479-0.281,3.38-0.281c0.644,0,1.066,0.025,1.084,0.025
		c0.059-0.013,1.918-0.359,3.598-0.362c1.827,0,4.522,0.923,6.247,1.834c0.386,0.203,0.725,0.403,1.007,0.595
		c0.073,0.05,0.143,0.1,0.208,0.148c-0.582-1.945-2.829-3.803-4.864-4.811c-0.518-0.256-1.038-0.468-1.545-0.628
		c-0.505-0.157-0.987-0.257-1.432-0.297c-0.151-0.013-0.28-0.019-0.396-0.019c-1.724,0.005-4.354,0.394-7.035,1.04
		c-0.575,0.14-1.08,0.271-1.544,0.4c-0.451,0.124-0.913,0.26-1.41,0.417l-0.049,0.018c-0.206,0.065-0.386,0.124-0.541,0.175
		c-0.754,0.254-1.456,0.412-2.209,0.495c-0.535,0.06-1.125,0.086-1.911,0.086c-0.169,0-0.345-0.001-0.526-0.003
		c-0.791-0.012-1.581-0.011-2.022-0.009c0.089,0.524,0.265,0.965,0.537,1.347c0.327,0.45,0.768,0.773,1.155,1.031l0.019,0.013
		c0.118,0.081,0.215,0.146,0.306,0.21c0.533,0.371,0.853,0.595,1.817,0.595c1.695-0.003,2.438-0.422,3.3-0.907
		C34.693,54.144,35.472,53.701,36.819,53.432z"/>
	<path fill="#5D5D5D" d="M42.273,26.737h0.101c0.907,0,1.573,0.012,2.16,0.041c0.592,0.028,1.107,0.07,1.799,0.133l0.075,0.007
		c0.089-0.038,0.181-0.075,0.284-0.105l-0.045-1.052c-0.265-0.082-0.69-0.212-0.932-0.277c-0.444-0.123-0.929-0.175-1.622-0.175
		c-0.328,0-0.681,0.011-1.055,0.023l-0.127,0.004c-0.416,0.013-0.846,0.026-1.335,0.028c-0.32,0-0.651-0.003-0.985-0.007
		c-0.305-0.003-0.612-0.006-0.917-0.006c-1.046,0-2.226,0.033-3.047,0.275c-0.024,0.007-0.048,0.014-0.072,0.022l0.003,0.138
		c0.007,0.34,0.017,0.846,0.022,1.216c0.148-0.011,0.328-0.023,0.533-0.037l0.788-0.051C38.952,26.849,40.92,26.74,42.273,26.737z"
		/>
	<path fill="#5D5D5D" d="M51.293,29.217l0.003,0.026c0.02,0.203,0.04,0.413,0.041,0.661c0.003,1.954-0.406,2.53-0.706,2.952
		c-0.012,0.018-0.021,0.037-0.031,0.055c0.027,0.003,0.055,0.005,0.084,0.01c0.817,0.11,2.033,0.407,3.179,1.192
		c0.855,0.586,1.398,1.038,1.815,1.508c0.445,0.504,0.768,1.062,1.048,1.811c0.134,0.363,0.215,0.704,0.292,1.034
		c3.115,0.106,3.536-2.136,3.586-2.925c-1.104-0.24-1.881-0.466-2.554-0.888c-0.785-0.489-1.391-1.212-2.024-2.419
		c-0.217-0.412-0.8-1.178-1.453-1.786c-0.117-0.108-0.237-0.211-0.356-0.304c-0.111-0.088-0.216-0.162-0.313-0.22h-0.009
		L53.869,29.9c-0.419-0.247-0.869-0.436-1.324-0.553C52.172,29.251,51.748,29.206,51.293,29.217z"/>
	<path fill="#5D5D5D" d="M41.386,19.681c-0.013,0.226-0.077,0.487-0.138,0.74l-0.021,0.092c-0.016,0.067-0.031,0.132-0.044,0.193
		c0.25,0.006,0.933,0.021,1.298,0.021c0.068,0,0.116,0,0.149-0.001c-0.066-0.375-0.172-0.92-0.191-1.016l-0.042-0.19h0.179
		c0.149,0,0.839,0.104,1.209,0.161l0.055,0.009l0.008-1.224c-0.306,0.04-0.898,0.128-1.135,0.163
		c-0.069,0.01-0.111,0.016-0.112,0.016l-0.151,0.022V18.5c0-0.197,0.104-0.894,0.163-1.269l-1.423-0.003
		c0.059,0.349,0.198,1.233,0.198,1.258l0.027,0.175l-0.188-0.023c-0.393-0.055-0.972-0.143-1.252-0.186
		c-0.003,0.362-0.006,0.954-0.007,1.241l1.43-0.217L41.386,19.681z"/>
	<path fill="#5D5D5D" d="M15.59,61.64c0.322,0.755,0.768,1.304,1.36,1.676c0.758,0.476,1.8,0.715,3.187,0.731l0.311-0.134
		c1.775-0.769,3.78-1.637,5.102-2.407c-0.783-0.287-1.483-0.876-1.896-1.604c-0.121-0.214-0.218-0.437-0.287-0.664
		c-0.051-0.167-0.076-0.341-0.094-0.507c-0.661,0.097-0.939,0.13-1.052,0.141c-1.132,0.676-2.455,1.438-3.698,1.973
		C17.442,61.309,16.482,61.57,15.59,61.64z"/>
	<path fill="#5D5D5D" d="M51.773,113.551c-0.346,0.049-1.695,0.314-2.351,1.461c-0.34,0.598-0.339,1.361-0.293,1.834
		c0.587-0.393,1.583-0.969,2.375-0.969c0.258,0,0.731,0.086,0.953,0.127C52.587,115.486,52.722,114.359,51.773,113.551z"/>
	<path fill="#5D5D5D" d="M7.748,114.023c0.546-1.254,0.225-2.123,0.082-2.408c-0.238-0.037-0.468-0.057-0.682-0.057
		c-0.304,0-0.59,0.037-0.851,0.112c-0.428,0.119-0.756,0.332-1.02,0.522c-0.833,0.605-0.669,1.619-0.526,2.111
		c0.383-0.188,0.802-0.313,1.248-0.373C6.538,113.867,7.125,113.898,7.748,114.023z"/>
	<path fill="#5D5D5D" d="M5.078,77.627l-0.017-0.023c-0.034-0.059-0.074-0.11-0.117-0.168c-0.04-0.053-0.085-0.106-0.132-0.151
		l-0.023-0.027C4.608,77.07,4.4,76.912,4.235,76.834c-0.253,0.109-1.174,0.533-1.516,1.1l-0.024,0.037
		c-0.046,0.084-0.083,0.164-0.111,0.248c-0.039,0.121-0.063,0.227-0.075,0.328c-0.066,0.455,0,0.988,0.178,1.451
		c0.427-0.408,1.196-0.863,2.523-0.936C5.24,78.357,5.192,77.84,5.078,77.627L5.078,77.627z"/>
	<path fill="#5D5D5D" d="M12.204,117.912c-0.135-0.18-0.292-0.314-0.455-0.395c-0.084-0.045-0.168-0.066-0.243-0.066
		c-0.127,0-0.313,0.076-0.506,0.211c-0.163,0.113-0.329,0.27-0.481,0.453c-0.165,0.197-0.302,0.414-0.407,0.643
		c-0.156,0.344-0.233,0.695-0.231,1.047c0,0.445,0.104,0.762,0.208,0.969c0.364-0.309,1.074-0.752,2.137-0.752
		c0.09,0,0.182,0.004,0.273,0.011c0.009-0.021,0.018-0.046,0.028-0.074c0.022-0.06,0.041-0.123,0.059-0.205l0.005-0.022
		c0.005-0.025,0.012-0.058,0.016-0.088c0.021-0.127,0.033-0.261,0.033-0.39c0-0.215-0.028-0.424-0.083-0.619
		C12.483,118.365,12.361,118.115,12.204,117.912z"/>
	<path fill="#5D5D5D" d="M11.355,103.801c-0.171-0.057-0.307-0.096-0.426-0.121c-0.155-0.039-0.277-0.063-0.385-0.078
		c-0.11-0.02-0.223-0.029-0.329-0.029c-0.15,0-0.354,0.05-0.588,0.142c-0.121,0.05-0.24,0.104-0.353,0.166
		c-0.245,0.129-0.466,0.281-0.639,0.44c-0.06,0.054-0.11,0.105-0.151,0.152c0.7,0.256,2.123,0.887,2.632,1.91
		c1.211-0.27,1.761-1.225,1.929-1.588C12.618,104.383,12.02,104.031,11.355,103.801z"/>
	<path fill="#5D5D5D" d="M15.899,121.645c0.122,0,0.258-0.014,0.417-0.045c0.126-0.024,0.265-0.063,0.423-0.119
		c0.143-0.059,0.29-0.127,0.434-0.205c0.644-0.354,1.245-0.953,1.696-1.686c-0.337-0.459-0.487-0.943-0.487-1.557
		c-0.001-0.139,0.013-0.297,0.041-0.471c0.018-0.109,0.042-0.22,0.068-0.33c0.028-0.119,0.063-0.234,0.098-0.344
		c0.172-0.525,0.417-0.98,0.688-1.281l0.054-0.06l0.465,0.425l-0.053,0.059c-0.21,0.236-0.412,0.619-0.553,1.053l-0.017,0.059
		c-0.026,0.082-0.051,0.162-0.069,0.24c-0.025,0.098-0.044,0.191-0.06,0.281c-0.023,0.148-0.034,0.266-0.034,0.369
		c0.002,0.492,0.12,0.857,0.392,1.221c0.354,0.465,0.991,0.947,1.951,1.473c0.315,0.172,0.657,0.256,1.042,0.256
		c0.414,0,0.843-0.1,1.196-0.186l0.002-0.018c0.006-0.051,0.011-0.104,0.021-0.158h-0.008l0.03-0.104
		c0.134-0.438,0.409-0.845,0.773-1.146c0.441-0.354,0.993-0.545,1.595-0.545c0.212,0,0.464,0.036,0.789,0.114
		c0.223-0.297,0.416-0.688,0.547-1.114c0.032-0.111,0.064-0.229,0.09-0.349c0.027-0.127,0.046-0.242,0.059-0.35
		c0.018-0.143,0.026-0.271,0.025-0.389c0-0.412-0.156-0.824-0.463-1.225c-0.249-0.326-0.542-0.578-0.796-0.781
		c-0.387-0.31-1.708-0.826-1.764-0.848l-0.593-0.224l0.537-0.34c0.921-0.587,1.94-0.843,3.026-0.759
		c0.901,0.064,1.878,0.369,2.905,0.902c0.399-0.359,1.347-1.262,2.355-2.6l0.122-0.16l0.197,0.043
		c0.434,0.1,4.136,1.041,4.598,3.773c0.066,0.006,0.134,0.01,0.206,0.01c0.528,0,1.563-0.197,2.572-1.521
		c0.373-0.49,0.44-1.682,0.345-2.582c-0.014-0.129-0.031-0.277-0.057-0.387c-0.019-0.094-0.036-0.146-0.045-0.164
		c-0.408-0.719-1.545-1.572-2.895-2.176c-0.218-0.102-0.455-0.193-0.704-0.277c-0.227-0.082-0.446-0.146-0.652-0.191l-0.078-0.018
		l0.014-0.078l0.116-0.522l0.086,0.002c0.247,0.06,0.489,0.127,0.719,0.207c0.238,0.082,0.493,0.182,0.755,0.299
		c1.463,0.653,2.715,1.614,3.189,2.446c0.046,0.084,0.085,0.205,0.111,0.343c0.003,0.017,0.005,0.03,0.008,0.049
		c0.485-0.164,0.809-0.34,1.042-0.565c0.345-0.336,0.511-0.771,0.509-1.332c-0.002-0.756-0.078-1.312-0.239-1.746
		c-0.17-0.443-0.44-0.779-0.826-1.029c-1.317-0.85-3.558-1.877-3.578-1.887l-0.343-0.156l0.212-0.309
		c0.071-0.107,0.15-0.215,0.232-0.328l0.1-0.137c0.509-0.687,1.085-1.464,1.082-2.607c0-0.506-0.079-0.85-0.263-1.15
		c-0.208-0.344-0.569-0.654-1.17-1.012c-0.537-0.314-1.135-0.516-1.881-0.631c-0.743-0.113-1.564-0.129-2.341-0.129
		c-1.597,0-3.098-0.766-3.931-1.998c-0.174-0.252-0.317-0.527-0.426-0.814c-0.113-0.295-0.189-0.6-0.227-0.91
		c-0.019-0.156-0.029-0.313-0.029-0.467c-0.001-1.057,0.128-2.164,1.083-3.096c0.914-0.895,2.482-1.516,4.937-1.953
		c0.273-0.049,0.605-0.074,1.016-0.074c0.542,0,1.135,0.041,1.746,0.088c0.145,0.01,0.285,0.02,0.418,0.027
		c-0.679-0.652-1.224-1.371-1.583-2.084c-0.106-0.207-0.199-0.422-0.274-0.639c-0.079-0.232-0.134-0.441-0.168-0.637
		c-0.033-0.195-0.049-0.375-0.049-0.548c-0.001-0.784,0.091-1.584,0.26-2.248c0.034-0.144,0.075-0.282,0.122-0.422
		c0.047-0.142,0.096-0.267,0.147-0.373c0.042-0.094,0.09-0.187,0.147-0.28c0.217-0.349,0.532-0.664,0.81-0.943l0.085-0.086
		c0.14-0.141,0.432-0.432,0.438-0.51c0-0.011-0.003-0.021-0.006-0.035c-0.001-0.006-0.002-0.008-0.003-0.014
		c-0.68-0.232-1.399-0.361-2.199-0.396c-0.967-0.04-2.086,0.044-3.428,0.259l-0.025,0.002c-0.643,0.103-1.464,0.125-2.189,0.146
		c-0.802,0.02-1.632,0.043-2.27,0.16c-1.204,0.221-2.198,0.448-3.127,0.721c-0.932,0.271-1.83,0.606-2.745,1.022
		c-1.892,0.865-3.246,1.791-4.263,2.916c-0.913,1.007-1.466,2.062-2.095,3.337c-0.066,0.133-0.174,0.28-0.323,0.442
		c-0.146,0.164-0.326,0.336-0.531,0.508c-0.55,0.465-2.586,2.019-5.692,2.463c-0.874,0.125-1.563,0.226-2.153,0.226
		c-0.197,0-0.375-0.012-0.543-0.035c-0.523-0.064-0.96-0.246-1.396-0.582c0.069,1.049,0.566,3.254,3.343,4.646l0.021,0.012
		c0.34,0.164,0.693,0.311,1.039,0.43c0.37,0.117,0.729,0.207,1.066,0.262c1.822,0.313,3.753-0.074,5.672-1.133l0.367-0.203
		l0.093,0.41C17.002,94.557,17.317,96,18,96.691c1.245,1.258,2.491,2.459,4.039,3.328c1.576,0.891,3.396,1.426,5.902,1.729
		l0.298,0.037l-0.02,0.297c0,0.013-0.068,1.877-2.512,4.662c-0.121,0.137-0.238,0.26-0.347,0.366c-0.2,0.201-0.413,0.39-0.63,0.562
		c-0.207,0.168-0.441,0.336-0.693,0.498c-1.185,0.763-2.515,1.199-3.65,1.201h-0.043c-0.796,0-1.274-0.144-1.651-0.494
		c-0.385-0.358-0.651-0.955-0.892-1.987c-0.165-0.72-0.351-1.271-0.721-1.636c-0.348-0.338-0.873-0.549-1.811-0.728l-0.017-0.006
		c-0.113-0.02-0.223-0.03-0.307-0.039c-0.089-0.004-0.196-0.002-0.293,0.009c-0.424,0.03-0.791,0.18-0.964,0.391
		c-0.09,0.238-0.763,1.822-2.623,2.14c-0.339,0.254-0.54,0.49-0.647,0.762c-0.076,0.193-0.112,0.432-0.117,0.791
		c0.63-0.082,1.158-0.043,1.669,0.119c0.755,0.238,1.475,0.748,2.334,1.65l0.055,0.057l-0.457,0.438l-0.055-0.06
		c-0.779-0.819-1.416-1.276-2.063-1.481c-0.614-0.192-1.251-0.182-2.19,0.052c-1.436,0.354-1.313,1.578-1.265,1.856
		c0.154,0.26,0.765,1.474-0.095,3.25c-0.062,0.474,0.089,1.103,0.406,1.687c0.298,0.551,0.662,0.922,0.952,0.969
		c0.029,0,0.108-0.041,0.171-0.086l0.004-0.002c0.024-0.063,0.056-0.422,0.076-0.66c0.089-0.973,0.222-2.424,1.426-3.363
		l0.007-0.008c0.16-0.123,0.333-0.225,0.539-0.326c0.195-0.09,0.402-0.166,0.617-0.229c0.45-0.127,0.962-0.193,1.483-0.193
		c0.793,0,1.575,0.148,2.262,0.432l0.074,0.029l-0.24,0.586l-0.074-0.029c-0.611-0.252-1.309-0.385-2.017-0.385
		c-0.463,0-0.918,0.061-1.316,0.172c-0.188,0.053-0.364,0.117-0.521,0.193c-0.144,0.063-0.283,0.146-0.415,0.246
		c-1.008,0.783-1.123,2.076-1.198,2.932l-0.004,0.039c-0.028,0.299-0.052,0.561-0.117,0.754c0.024,0.027,0.047,0.059,0.072,0.092
		c0.005,0.006,0.01,0.012,0.015,0.021c0.012-0.013,0.024-0.025,0.036-0.039c0.053-0.054,0.107-0.106,0.166-0.149
		c0.298-0.207,0.606-0.322,0.867-0.324c0.167,0,0.342,0.043,0.521,0.131c0.252,0.127,0.485,0.324,0.677,0.576
		c0.207,0.27,0.366,0.594,0.46,0.938c0.07,0.25,0.105,0.514,0.105,0.787c0,0.16-0.014,0.33-0.04,0.488
		c-0.004,0.026-0.01,0.057-0.016,0.086l-0.011,0.059c-0.023,0.107-0.049,0.201-0.082,0.287c-0.024,0.068-0.055,0.137-0.092,0.201
		c0.003,0.004,0.005,0.008,0.009,0.012l0.018,0.023c0.068,0.084,0.151,0.168,0.246,0.252c0.099,0.086,0.218,0.178,0.353,0.27
		l0.035,0.027c0.673,0.436,1.493,0.695,2.203,0.695v0.08l0,0L15.899,121.645z"/>
	<path fill="#5D5D5D" d="M56.155,121.445c0.426-0.217,1.062-0.322,1.444-0.369c0.002-0.289-0.022-0.557-0.076-0.797
		c-0.112-0.5-0.351-0.912-0.688-1.189c-0.357-0.299-0.714-0.354-0.852-0.363c-0.019,0-0.039,0-0.057,0
		c-0.05,0-0.097,0.002-0.134,0.012c-0.114,0.025-0.444,0.3-0.826,0.828c-0.074,0.107-0.147,0.22-0.214,0.328
		c-0.065,0.107-0.132,0.229-0.205,0.371c-0.216,0.441-0.297,0.881-0.254,1.357c0.028,0.34,0.118,0.699,0.274,1.094
		C55.018,122.264,55.632,121.709,56.155,121.445z"/>
	<path fill="#5D5D5D" d="M77.259,111.752c-0.679-0.385-2.14-0.459-2.657-0.475c-0.128,0.326-0.379,1.063-0.375,1.852
		c0,0.121,0.015,0.244,0.046,0.365c0.015,0.059,0.033,0.111,0.051,0.168l0.004,0.01c0.05,0.121,0.116,0.238,0.196,0.346
		c0.042,0.06,0.091,0.117,0.147,0.178c0.288-0.166,0.853-0.405,1.711-0.414c0.844,0,1.412,0.203,1.763,0.396
		C78.174,113.521,78.114,112.232,77.259,111.752z"/>
	<path fill="#5D5D5D" d="M26.681,119.549c-0.234-0.055-0.452-0.082-0.649-0.082h-0.03c-0.46,0-0.875,0.141-1.201,0.404
		c-0.264,0.217-0.465,0.512-0.564,0.836l-0.013,0.041c-0.008,0.033-0.016,0.066-0.022,0.098c1.114,0.465,1.432,1.355,1.518,1.926
		C27.132,121.861,26.833,120.137,26.681,119.549z"/>
	<path fill="#5D5D5D" d="M11.019,96.129c0.037,0.129,0.072,0.25,0.126,0.361c0.452,0.949,1.313,1.736,2.428,2.219
		c0.774,0.334,1.621,0.504,2.515,0.504l0,0c0.491,0,0.993-0.053,1.491-0.158c0.458-0.094,0.942-0.248,1.478-0.473
		c-0.48-0.436-0.972-0.908-1.498-1.441c-0.564-0.568-0.902-1.498-1.067-2.061c-1.829,0.936-3.685,1.291-5.476,1.043
		C11.018,96.125,11.019,96.127,11.019,96.129z"/>
	<path fill="#5D5D5D" d="M3.102,71.383c0.085-0.123,0.226-0.424,0.226-1.055c0-0.19-0.048-0.48-0.083-0.681
		c-0.023-0.128-0.047-0.251-0.068-0.354c-0.03,0-0.063,0-0.098,0c-0.593,0-1.69,0.101-2.369,0.78
		c-0.36,0.361-0.554,0.844-0.578,1.436c0.339-0.153,0.679-0.245,1.06-0.288C1.739,71.162,2.351,71.215,3.102,71.383z"/>
	<path fill="#5D5D5D" d="M37.433,85.383c0.437,0.867,1.158,1.73,2.031,2.432l0.122,0.011c0.135,0.01,0.263,0.019,0.384,0.026
		c0.312,0.025,0.604,0.045,0.907,0.06c-0.055-0.17-0.114-0.349-0.176-0.517c-0.245-0.67-0.499-1.362-0.501-2.271
		c-0.002-0.922,0.207-2.052,0.408-3.144l0.004-0.02c0.159-0.859,0.323-1.746,0.375-2.49c0.013-0.17,0.019-0.324,0.019-0.473
		c-0.002-0.52-0.361-1.605-1.021-2.59c-0.167-0.248-0.355-0.487-0.557-0.711c-0.207-0.227-0.428-0.426-0.657-0.594
		c-0.229-0.174-0.476-0.313-0.733-0.414l-0.017-0.006c-0.091-0.037-0.159-0.063-0.232-0.093l-0.98,1.205
		c0.724,0.42,2.204,1.486,2.209,3.188c0,0.31-0.281,0.615-0.62,0.957l-0.079,0.078c-0.259,0.258-0.553,0.551-0.726,0.832
		c-0.035,0.058-0.07,0.121-0.114,0.213c-0.047,0.107-0.086,0.209-0.121,0.313c-0.038,0.108-0.074,0.233-0.109,0.375
		c-0.156,0.617-0.242,1.36-0.241,2.093c0,0.133,0.015,0.278,0.042,0.436c0.03,0.174,0.078,0.355,0.143,0.539
		C37.252,84.988,37.329,85.168,37.433,85.383z"/>
	<path fill="#5D5D5D" d="M5.56,47.793L5.56,47.793c0.473,0,0.875-0.095,1.099-0.161c0.11-1.515-0.48-1.833-0.717-1.899
		c-0.713,0.533-1.923,0.615-2.415,0.625l-0.129,0.001c-0.109,0-0.215-0.002-0.32-0.005C3.763,47.539,4.799,47.793,5.56,47.793z"/>
	<path fill="#5D5D5D" d="M7.01,64.36c0.017,0,0.035,0.001,0.055,0.001c0.462,0,1.268-0.155,1.507-1.184
		c-0.288-0.308-1.185-1.155-2.321-1.155c-0.516,0-1.017,0.179-1.491,0.531c0.516,0.208,0.947,0.456,1.316,0.757
		C6.428,63.595,6.718,63.92,7.01,64.36z"/>
	<path fill="#5D5D5D" d="M19.59,80.25c0.32-0.412,0.538-0.881,0.614-1.33c0.021-0.111,0.031-0.232,0.031-0.357
		c-0.001-0.117-0.014-0.24-0.037-0.35c-0.104-0.494-0.622-1.092-0.78-1.266c-1.027,0.088-1.374,1.057-1.482,1.531
		C18.555,78.852,19.258,79.779,19.59,80.25z"/>
	<path fill="#5D5D5D" d="M81.239,36.743c-0.247-0.157-0.504-0.286-0.763-0.382c-0.26-0.097-0.515-0.161-0.76-0.188
		c-0.092-0.01-0.182-0.016-0.262-0.019l-0.033-0.001c-0.158,0.091-0.301,0.139-0.454,0.151c-0.649,0.057-2.109,0.117-3.34,0.117
		c-0.261,0-0.515-0.002-0.755-0.008c-0.302-0.005-0.552-0.016-0.763-0.032c-0.227-0.017-0.43-0.041-0.589-0.07
		c-0.26-0.051-0.489-0.152-0.691-0.302c-0.126,0.017-0.244,0.038-0.357,0.064c-0.14,0.033-0.271,0.071-0.389,0.115
		c-0.703,0.247-1.35,0.694-1.825,1.258l-0.016,0.014c-0.512,0.607-0.847,1.312-1.041,2.206c-0.185,0.851-0.262,1.9-0.258,3.508
		c0,0.994,0.239,2.02,0.711,3.052c0.496,1.085,1.264,2.204,2.282,3.326c1.156,1.271,1.805,2.099,2.237,2.858
		c0.481,0.846,0.695,1.626,0.695,2.529c0.002,1.1-0.453,1.997-0.781,2.5c0.697-0.056,1.313-0.217,1.835-0.483
		c0.233-0.12,0.449-0.261,0.642-0.418c1.14-0.93,1.262-2.211,1.275-2.458c0.045-0.949-0.02-1.78-0.199-2.541
		c-0.153-0.64-0.388-1.239-0.737-1.88l0,0l-0.024-0.042c-0.102-0.188-0.223-0.391-0.371-0.622c-0.209-0.317-0.416-0.611-0.626-0.91
		c-0.641-0.908-1.246-1.766-1.249-2.557v-0.08h0.63v0.08c0.001,0.586,0.551,1.366,1.133,2.193c0.224,0.316,0.44,0.625,0.639,0.93
		c0.168,0.265,0.291,0.469,0.396,0.662l0.065,0.118h-0.001c0.354,0.664,0.596,1.291,0.755,1.963
		c0.178,0.746,0.249,1.562,0.218,2.489c0.1-0.021,0.193-0.043,0.276-0.078c0.191-0.08,0.375-0.187,0.545-0.318
		c0.159-0.124,0.309-0.274,0.448-0.447c0.602-0.753,0.87-1.8,0.867-2.504c0-0.111-0.005-0.237-0.016-0.375
		c-0.144-1.995-1.353-3.753-2.325-5.166l-0.022-0.032c-0.571-0.834-1.065-1.555-1.199-2.152l-0.018-0.078l0.613-0.138l0.018,0.078
		c0.111,0.488,0.581,1.17,1.125,1.96c0.844,1.232,1.884,2.75,2.281,4.49c1.333-1.095,1.106-3.003,0.98-4.045
		c-0.184-0.399-0.796-1.683-1.327-2.308c-0.098-0.114-0.199-0.22-0.299-0.324c-0.531-0.56-1.03-1.087-1.384-2.974l-0.015-0.078
		l0.619-0.116l0.015,0.078c0.322,1.706,0.758,2.165,1.222,2.65l0.017,0.018c0.1,0.105,0.201,0.212,0.303,0.334
		c0.433,0.506,0.906,1.389,1.245,2.083c0.317-0.47,0.539-0.91,0.695-1.375c0.227-0.673,0.331-1.423,0.33-2.362
		C83.457,38.822,82.31,37.423,81.239,36.743z"/>
	<path fill="#5D5D5D" d="M52.339,108.789c0.238-0.211,0.585-0.652,0.584-1.418c0-0.414-0.084-0.662-0.146-0.787
		c-0.364-0.041-0.697-0.051-1.007-0.033c-0.784,0.037-1.462,0.25-1.964,0.617c-0.469,0.342-0.756,0.811-0.83,1.35
		c-0.003,0.021-0.005,0.041-0.008,0.062c0.462-0.063,0.902-0.144,1.278-0.228c0.179-0.039,0.361-0.059,0.542-0.059
		C51.491,108.293,52.045,108.588,52.339,108.789z"/>
	<path fill="#5D5D5D" d="M0.575,36.874c0.054-0.007,0.107-0.013,0.16-0.018c0.114-0.01,0.226-0.015,0.335-0.015
		c0.096,0,0.19,0.004,0.283,0.012c0.938,0.07,1.718,0.503,2.262,1.255c0.28-0.222,0.754-0.785,0.503-1.94
		c-0.319-0.173-1.072-0.531-1.825-0.531c-0.249,0-0.476,0.04-0.676,0.12C1.011,35.999,0.717,36.476,0.575,36.874z"/>
	<g>
		<path fill="#5D5D5D" d="M80.723,87.633c-0.436,1.465-0.968,1.516-2.625,1.672c-0.469,0.045-1.025,0.1-1.72,0.199
			c-2.746,0.406-3.516,1.621-3.597,1.764l-0.009,0.019l-0.591,1.098l-0.003-1.25c-0.004-1.25-0.6-2.51-1.517-3.211
			c-0.211-0.161-0.436-0.293-0.668-0.392c-0.241-0.102-0.506-0.174-0.789-0.213c-0.156-0.021-0.311-0.03-0.459-0.03
			c-0.477,0-1.255,0.312-2.083,0.83c-0.183,0.114-0.374,0.245-0.566,0.389c-0.181,0.134-0.353,0.275-0.51,0.421
			c-0.15,0.131-0.293,0.272-0.424,0.42c-0.761,0.858-1.222,1.321-1.782,1.639c-0.583,0.326-1.216,0.453-2.259,0.457
			c-1.383,0-2.346-0.426-3.049-1.344c-0.683-0.89-1.129-2.265-1.402-4.33c-0.348-2.615-0.642-4.025-1.085-5.201
			c-0.455-1.205-1.081-2.176-2.028-3.644l-0.042-0.065l0.512-0.359l0.046,0.063c0.088,0.123,2.188,2.961,7.785,2.961h0.041
			c1.642-0.002,3.499-0.5,5.228-1.399c0.339-0.177,0.668-0.367,0.978-0.565c0.311-0.195,0.615-0.408,0.905-0.634
			c0.102-0.073,0.208-0.157,0.313-0.247c1.047-0.861,1.822-1.802,2.37-2.871c0.641-1.254,0.963-2.705,0.958-4.314
			c-0.004-2.231-0.141-2.786-0.594-4.569l-0.154-0.602c-0.402-1.59-0.858-3.394-1.345-5.221c-0.563-2.117-1.077-3.953-1.575-5.613
			c-1.081-3.613-1.832-6.437-2.362-8.886c-0.671-3.102-0.999-5.647-1.002-7.781c-0.009-3.113,0.529-4.141,1.003-5.048l0.068-0.129
			c0.534-1.018,1.042-1.652,1.646-2.059c0.594-0.399,1.285-0.577,2.24-0.579h0.039c1.813,0,2.988,0.36,3.592,1.101
			c0.49,0.602,0.518,1.332,0.466,1.981c0.445-0.021,1.05-0.041,1.757-0.056c0.672-0.015,1.344-0.026,1.875-0.033
			c-0.012-0.416-0.046-0.808-0.102-1.165c-0.059-0.381-0.146-0.75-0.261-1.097c-0.533-1.616-1.67-2.729-3.289-3.218
			c-0.216-0.065-0.435-0.123-0.649-0.17c-0.38-0.085-0.784-0.152-1.204-0.2c-0.436-0.05-0.881-0.08-1.325-0.086
			c-0.072,0-0.144-0.001-0.217-0.001c-1.394,0-4.023,0.221-5.964,1.704c-1.24,0.949-2.109,2.21-2.657,3.855
			c-0.452,1.375-0.669,2.995-0.662,4.955c0.005,2.542,0.391,5.449,1.178,8.887c0.716,3.131,1.68,6.344,2.531,9.179l0.003,0.022
			c0.726,2.408,1.345,4.817,1.891,6.942l0.134,0.521c0.119,0.458,0.238,0.921,0.369,1.425l0.099,0.378
			c0.445,1.686,0.74,2.801,0.745,5.343c0,0.418-0.029,0.817-0.085,1.185c-0.293,1.887-1.31,3.336-3.022,4.307
			c-1.542,0.873-3.211,1.1-4.07,1.157c-0.377,0.022-0.669,0.021-0.95,0.004c-0.468-0.028-0.939-0.106-1.402-0.231
			c-0.439-0.119-0.89-0.289-1.337-0.506c-2.128-1.047-3.894-3.09-4.972-5.755c-0.012-0.03-0.024-0.063-0.038-0.097l-0.042-0.112
			c-0.61-1.642-0.737-3.594-0.86-5.483c-0.026-0.419-0.054-0.82-0.085-1.229c-0.135-0.172-0.283-0.351-0.462-0.563
			c-0.336-0.387-0.703-0.766-1.089-1.126c-0.361-0.332-0.729-0.634-1.092-0.899c-1.523-1.113-3.207-1.751-4.619-1.751
			c-3.076,0.005-6.343,2.79-6.705,3.107l-0.292,0.256l-0.192-0.327c-0.047-0.074-0.093-0.162-0.135-0.26
			c-0.046-0.103-0.085-0.204-0.118-0.308c-0.161-0.504-0.225-1.209-0.181-1.995c-0.806,0.061-1.929,0.557-3.303,1.197
			c-0.424,0.197-0.84,0.389-1.278,0.581l-0.014,0.008c-1.467,0.645-2.974,1.048-4.483,1.203c-0.262,0.025-0.533,0.044-0.807,0.058
			c-0.264,0.009-0.522,0.012-0.778,0.007l-0.046-0.001c-0.006,0.003-0.017-0.001-0.024-0.002c-1.297,0.876-3.647,1.895-5.723,2.793
			l-0.413,0.179c-0.068,0.038-0.273,0.173-0.526,0.341l-0.123,0.082c-1.039,0.688-3.199,2.118-5.314,3.119l-0.498,0.232l0.028-0.525
			c0.005-0.092,0.11-2.237-1.501-3.824c-0.727-0.718-1.391-0.815-1.945-0.815c-0.309,0-0.627,0.035-0.964,0.071l-0.307,0.031
			c-0.375,1.456-1.588,1.615-2.097,1.615c-0.042,0-0.081-0.001-0.114-0.003c-0.333,0.275-0.539,0.56-0.613,0.844
			c-0.055,0.208-0.042,0.409-0.015,0.598c0.015-0.002,0.03-0.003,0.045-0.006c0.189-0.024,0.388-0.016,0.644,0.005
			c0.279,0.021,0.57,0.072,0.866,0.148c0.281,0.076,0.55,0.171,0.8,0.284c1.191,0.53,2.151,1.507,2.566,2.615l0.028,0.075
			l-0.589,0.224l-0.033-0.08c-0.359-0.952-1.194-1.797-2.233-2.26l-0.047-0.024c-0.226-0.096-0.441-0.17-0.657-0.226
			c-0.253-0.064-0.509-0.107-0.76-0.129c-0.134-0.012-0.269-0.019-0.401-0.019c-1.034,0.002-1.873,0.318-2.363,0.892
			c-0.098,0.117-0.18,0.241-0.245,0.368c-0.063,0.125-0.114,0.269-0.151,0.426C3.772,68.8,3.76,68.884,3.752,68.977
			c0.027,0.127,0.069,0.329,0.109,0.557c0.034,0.184,0.091,0.532,0.094,0.792c0,0.814-0.221,1.258-0.417,1.49l0.003,0.018
			c0.013,0.057,0.024,0.115,0.042,0.176c0.033,0.116,0.07,0.229,0.112,0.34c0.197,0.514,0.494,0.951,0.841,1.236
			c0.446-0.505,1.027-0.906,1.686-1.164c0.477-0.184,0.971-0.298,1.467-0.338l0.079-0.008l0.055,0.63l-0.08,0.007
			c-0.434,0.037-0.87,0.139-1.295,0.299c-0.656,0.256-1.203,0.648-1.581,1.129c-0.375,0.488-0.549,1.041-0.501,1.598
			c0.015,0.162,0.056,0.339,0.124,0.539c0.174,0.08,0.48,0.254,0.777,0.566l0.034,0.039c0.048,0.053,0.095,0.107,0.14,0.164
			c0.054,0.066,0.103,0.137,0.146,0.207l0.01,0.014c0.284,0.459,0.26,1.525,0.233,1.996c0.052,0.066,0.11,0.141,0.173,0.205
			l0.022,0.025c0.099,0.102,0.212,0.199,0.338,0.297c0.114,0.088,0.248,0.176,0.408,0.268c0.63,0.342,1.423,0.531,2.233,0.531
			c0.125,0,0.253-0.006,0.4-0.02c0.208-0.021,0.428-0.057,0.669-0.109c0.232-0.063,0.433-0.129,0.613-0.203
			c0.835-0.346,1.461-0.912,1.685-1.518c-0.324-0.404-0.563-0.82-0.709-1.238c-0.22-0.625-0.296-1.266-0.214-1.807
			c0.063-0.411,0.22-0.764,0.456-1.021l0.055-0.062l0.46,0.438l-0.055,0.059c-0.147,0.156-0.248,0.393-0.29,0.682
			c-0.068,0.436-0.002,0.969,0.183,1.5c0.191,0.543,0.501,1.037,0.874,1.391c0.336,0.318,0.706,0.51,1.101,0.57
			c0.954,0.145,1.849,0.02,2.525-0.354c0.105-0.058,0.209-0.123,0.329-0.213c0.071-0.056,0.137-0.117,0.204-0.185
			c0.071-0.394,0.461-2.013,2.057-2.164c0.115-0.213,0.229-0.506,0.315-0.812c0.03-0.104,0.055-0.203,0.077-0.295
			c0.021-0.096,0.041-0.195,0.058-0.291c0.025-0.164,0.039-0.313,0.039-0.438c-0.002-1.492-0.699-2.482-1.114-2.941
			c-0.132-0.145-0.261-0.269-0.382-0.367c-0.132-0.11-0.259-0.2-0.378-0.269c-0.069-0.038-0.132-0.073-0.192-0.101l-0.072-0.034
			l0.26-0.574l0.072,0.031c0.086,0.038,0.171,0.082,0.251,0.131c0.155,0.09,0.31,0.201,0.46,0.327
			c0.162,0.131,0.314,0.275,0.451,0.432c0.343,0.381,0.635,0.84,0.85,1.332c1.103-0.184,2.141-0.553,3.196-0.945l0.739-0.271
			l0.134,0.214c0.068,0.109,1.678,2.643,5.111,2.643c0.156,0,0.302-0.002,0.451-0.01c0.254-0.018,0.509-0.045,0.758-0.08
			c0.244-0.035,0.487-0.082,0.723-0.139c0.792-0.189,1.504-0.488,2.074-0.869c-0.063-0.009-0.125-0.021-0.188-0.037
			c-0.285-0.07-0.566-0.164-0.835-0.277c-1.278-0.543-2.383-1.547-2.955-2.683l-0.036-0.071l0.563-0.286l0.036,0.072
			c0.507,1.012,1.493,1.901,2.636,2.38c0.232,0.101,0.482,0.185,0.744,0.252c0.251,0.064,0.512,0.107,0.772,0.132
			c0.119,0.01,0.244,0.014,0.382,0.014c0.452,0,0.968-0.13,1.535-0.387c0.467-0.208,0.969-0.5,1.581-0.916
			c0.945-0.647,1.322-1.29,1.471-1.669c-0.046,0-0.092,0-0.138,0c-3.056,0.001-3.807-1.545-3.882-1.721l-0.125-0.303l0.301-0.116
			c2.594-1.012,5.088-1.479,7.382-1.375c0.498,0.024,0.995,0.074,1.478,0.149c0.479,0.076,0.959,0.183,1.43,0.317l0.201,0.057
			l0.052,0.161c0.029,0.098,0.763,2.417,3.585,2.299l0.08-0.002l0.023,0.63l-0.08,0.003c-0.479,0.02-0.91-0.03-1.384-0.155
			c-0.005,0.056-0.01,0.108-0.006,0.16c0.04,0.438,0.271,0.876,0.651,1.236c0.414,0.389,0.959,0.663,1.58,0.795
			c0.388,0.082,0.804,0.105,1.221,0.066l0.08-0.006l0.055,0.627l-0.079,0.008c-0.469,0.045-0.945,0.02-1.404-0.076
			c-0.738-0.158-1.389-0.488-1.882-0.955c-0.495-0.466-0.796-1.049-0.85-1.643c-0.011-0.138,0.003-0.275,0.019-0.408
			c-1.388-0.602-1.981-1.806-2.15-2.222c-0.397-0.11-0.813-0.2-1.235-0.268c-0.454-0.072-0.927-0.119-1.406-0.14
			c-0.197-0.009-0.394-0.013-0.591-0.013c-1.941,0-4.019,0.407-6.177,1.21c0.31,0.373,1.145,1.055,3.105,1.055
			c0.175,0,0.358-0.005,0.543-0.016l0.369-0.022l-0.038,0.37c0,0.003-0.078,1.283-1.838,2.49c-0.618,0.424-1.168,0.739-1.68,0.969
			c-0.111,0.051-0.223,0.089-0.331,0.123c-0.024,0.01-0.049,0.018-0.073,0.025c0.307,0.368,0.741,0.561,1.713,0.932
			c0.247,0.094,0.524,0.199,0.812,0.313l0.382,0.154H38.6c0.189,0.098,0.373,0.213,0.551,0.346c0.262,0.19,0.508,0.413,0.751,0.681
			c0.21,0.228,0.418,0.49,0.616,0.785c0.73,1.088,1.125,2.33,1.126,2.942c0,0.183-0.006,0.351-0.019,0.517
			c-0.055,0.78-0.223,1.682-0.384,2.553c-0.2,1.068-0.406,2.174-0.404,3.053c0,0.781,0.224,1.395,0.461,2.041
			c0.217,0.596,0.437,1.197,0.5,1.936c0.111,1.312,0.266,2.277,0.501,3.137c0.267,0.98,0.655,1.879,1.221,2.826
			c0.237,0.396,0.466,0.762,0.686,1.115l0.013,0.021c1.07,1.725,1.994,3.215,1.996,4.588c0.002,1.283-0.251,2.137-0.487,2.652
			c0.519-0.051,1.408-0.226,2.343-0.812c0.731-0.459,1.307-0.924,1.811-1.465c0.561-0.606,1.039-1.356,1.419-2.231
			c-0.762-0.558-1.419-1.148-1.953-1.769c-0.426-0.494-0.778-1.002-1.047-1.511c-0.29-0.547-0.489-1.1-0.59-1.646
			c-0.034-0.18-0.056-0.351-0.066-0.502l-0.005-0.078l0.628-0.047l0.006,0.08c0.012,0.157,0.03,0.301,0.056,0.435
			c0.088,0.479,0.266,0.971,0.526,1.463c0.251,0.475,0.577,0.942,0.967,1.393c1.877,2.182,5.061,3.824,7.406,3.824
			c3.106-0.008,6.075-1.582,6.104-1.596l0.312-0.164l0.131,0.321c0.103,0.263,0.199,0.558,0.29,0.888
			c0.087,0.313,0.17,0.668,0.246,1.057c0.416,2.139,0.519,4.641,0.264,6.375c-0.098,0.658-0.237,1.07-0.462,1.352h0.021
			l-0.148,0.139c-0.307,0.281-0.73,0.398-1.461,0.4H62.5c-0.713,0-1.188-0.078-1.543-0.254c-0.372-0.18-0.568-0.443-0.775-0.719
			c-0.937-1.26-1.682-2.039-2.414-2.527c-0.716-0.479-1.443-0.693-2.356-0.693h-0.02c-1.56,0.002-1.849,0.621-2.072,1.123
			l-0.001,0.006c0.112,0.211,0.237,0.566,0.238,1.097c0.001,1.185-0.674,1.804-0.925,1.989c-0.028,0.193-0.055,0.445-0.035,0.74
			c0.015,0.209,0.07,0.445,0.164,0.701c0.103-0.088,0.211-0.176,0.341-0.264c0.277-0.184,0.532-0.289,0.756-0.311
			c0.063-0.008,0.143-0.015,0.239-0.019c0.045-0.004,0.098-0.006,0.156-0.008c0.052-0.002,0.109-0.004,0.169-0.009
			c0.078-0.002,0.157-0.002,0.239-0.002c0.49,0,1.403,0.025,2.018,0.193l0.077,0.02l-0.165,0.609l-0.077-0.02
			c-0.534-0.146-1.351-0.166-1.791-0.166c-0.101,0-0.196,0-0.286,0.002c-0.112,0.002-0.218,0.004-0.312,0.008
			c-0.083,0.004-0.148,0.01-0.194,0.016c-0.133,0.015-0.292,0.082-0.481,0.209c-0.174,0.119-0.342,0.261-0.483,0.386
			c-0.564,0.487-0.661,1.086-0.746,1.612l-0.003,0.021c-0.001,0.008-0.003,0.016-0.004,0.025c1.343,1.184,0.924,2.861,0.8,3.256
			c0.045,0.117,0.089,0.217,0.135,0.309c0.064,0.125,0.137,0.244,0.217,0.355c0.324,0.451,0.776,0.783,1.282,0.939
			c-0.056-0.757,0.001-1.81,0.537-2.742l0.01-0.021c0.449-0.77,0.978-1.27,1.618-1.525c0.583-0.232,1.244-0.275,2.137-0.133
			l0.079,0.014l-0.098,0.623l-0.079-0.012c-0.78-0.123-1.335-0.094-1.806,0.096c-0.501,0.199-0.927,0.609-1.304,1.256
			c-0.546,0.941-0.513,2.06-0.445,2.642c0.005,0.049,0.012,0.097,0.019,0.14c0.14-0.103,0.255-0.164,0.345-0.187
			c0.111-0.022,0.237-0.031,0.368-0.021c0.413,0.026,0.853,0.213,1.208,0.506c0.449,0.371,0.761,0.903,0.901,1.541
			c0.062,0.276,0.088,0.598,0.082,0.979c0.138,0.039,0.28,0.09,0.392,0.14c0.7,0.315,1.15,0.514,1.595,0.59
			c0.43,0.071,0.849,0.053,1.674-0.084c1.235-0.207,2.069-0.703,2.624-1.56c0.563-0.866,0.852-2.104,0.91-3.896l0.01-0.306h0.305
			l0,0c0.038,0,0.175,0,0.354-0.014c-0.349-0.388-0.52-0.894-0.761-2.162l-0.015-0.078l0.618-0.116l0.015,0.077
			c0.33,1.744,0.47,1.837,1.378,2.445l0.24,0.166c1.384,0.937,2.825,1.295,4.234,1.057c0.234-0.041,0.462-0.096,0.678-0.159
			c0.082-0.025,0.16-0.054,0.235-0.078h-0.114l0.518-0.16c1.028-0.451,1.188-1.275,1.212-1.943c0.002-0.105,0.002-0.199,0.002-0.289
			v-0.027c-0.114-0.106-0.223-0.213-0.309-0.324c-0.115-0.157-0.207-0.323-0.274-0.496l-0.006-0.014
			c-0.032-0.076-0.057-0.152-0.081-0.238c-0.041-0.168-0.061-0.34-0.061-0.522c-0.002-0.971,0.327-1.858,0.451-2.155
			c-0.255-0.515-0.527-0.896-0.833-1.158c-0.347-0.305-0.739-0.476-1.199-0.527c-0.097-0.01-0.197-0.014-0.296-0.014
			c-1.21,0-2.167,0.789-2.176,0.797l-0.787,0.641l0.284-0.971c1.218-4.188,4.146-4.684,5.145-4.727
			c-0.117-2.39-0.233-5.041-0.233-5.054l-0.013-0.351l0.35,0.025c1.454,0.098,2.687-0.084,3.636-0.541
			c0.707-0.34,1.256-0.828,1.632-1.453c0.324-0.533,0.518-1.172,0.561-1.846c0.042-0.615-0.053-1.254-0.269-1.807
			c-0.572,0.326-1.128,0.494-1.697,0.512c-1.13,0.037-2.066,0.125-2.783,0.266c-0.868,0.17-1.373,0.396-1.5,0.672l-0.033,0.074
			l-0.575-0.268l0.034-0.074c0.222-0.477,0.862-0.813,1.956-1.025c0.743-0.143,1.686-0.233,2.884-0.276
			c1.222-0.041,2.313-0.808,2.917-2.054c0.119-0.241,0.217-0.508,0.294-0.791c0.075-0.276,0.125-0.567,0.15-0.866
			c0.01-0.146,0.015-0.271,0.015-0.39C81.504,88.656,81.05,87.977,80.723,87.633z M27.194,68.349
			c-0.771,0.263-1.445,0.504-2.04,0.716l-0.409,0.146c-1.834,0.657-2.942,1.054-4.085,1.194l-0.079,0.009l-0.075-0.628l0.079-0.01
			c1.072-0.131,2.152-0.519,3.942-1.161c0.671-0.24,1.497-0.536,2.463-0.867l0.076-0.026l0.204,0.6L27.194,68.349z"/>
	</g>
	<path fill="#5D5D5D" d="M39.145,30.266c-0.361-0.284-0.964-0.633-1.849-0.761c0.053,0.255,0.18,0.523,0.326,0.679
		C38.074,30.186,38.623,30.215,39.145,30.266z"/>
</g>
<g enable-background="new    ">
	<path fill="#5D5D5D" d="M91.107,40.061c0.349,0,1.509-0.087,3.48-0.262c1.97-0.175,3.392-0.262,4.266-0.262
		c1.347,0,2.482,0.168,3.405,0.505s1.634,1.004,2.133,2.002c0.324,0.599,0.487,1.397,0.487,2.395c0,2.12-1.447,3.904-4.341,5.351
		c-0.149,0.075-0.331,0.149-0.542,0.225c-0.212,0.075-0.343,0.131-0.393,0.168c-0.05,0.038-0.063,0.106-0.037,0.206
		c0.024,0.075,0.312,0.112,0.86,0.112c1.946,0.025,3.492,0.537,4.64,1.534c1.147,0.998,1.721,2.333,1.721,4.004
		c0,2.271-1.004,4.241-3.012,5.912c-2.008,1.671-4.372,2.507-7.091,2.507c-0.225,0-1.054-0.019-2.488-0.057
		c-1.435-0.037-2.389-0.056-2.862-0.056c-0.549,0-2.283,0.037-5.201,0.112v-1.011c1.197-0.074,1.983-0.273,2.357-0.599
		c0.274-0.249,0.442-0.654,0.505-1.216c0.062-0.562,0.118-1.74,0.168-3.536c0-0.249,0.006-0.667,0.019-1.253
		c0.012-0.586,0.024-1.31,0.037-2.171c0.012-0.86,0.019-1.59,0.019-2.188c0-0.923,0.006-2.096,0.019-3.518
		c0.012-1.422,0.019-2.295,0.019-2.619c-0.025-2.52-0.1-3.941-0.225-4.266c-0.05-0.199-0.149-0.374-0.299-0.523
		c-0.424-0.374-1.173-0.574-2.245-0.599v-0.974C88.5,40.037,90.035,40.061,91.107,40.061z M93.652,50.276c0.648,0,1.253,0,1.815,0
		c0.561,0,1.135-0.08,1.721-0.243c0.585-0.162,1.104-0.417,1.553-0.767c1.272-0.973,1.908-2.195,1.908-3.667
		c0-1.348-0.418-2.457-1.253-3.33c-0.836-0.873-1.978-1.31-3.424-1.31c-1.272,0-1.983,0.225-2.133,0.673
		c-0.125,0.35-0.187,1.036-0.187,2.059V50.276z M97.207,63.223c1.446,0,2.681-0.593,3.705-1.777c1.022-1.185,1.534-2.65,1.534-4.397
		c0-1.621-0.58-2.942-1.74-3.966c-1.16-1.022-2.601-1.534-4.322-1.534c-1.147,0-1.884,0.075-2.208,0.225
		c-0.35,0.175-0.524,0.661-0.524,1.459v4.191c0,1.721,0.062,2.943,0.187,3.667c0.125,0.724,0.399,1.234,0.823,1.533
		C95.21,63.023,96.059,63.223,97.207,63.223z"/>
	<path fill="#5D5D5D" d="M125.045,52.67l-0.038,2.77c-0.025,1.871-0.025,3.181,0,3.929c0.024,1.722,0.087,2.707,0.187,2.956
		c0.174,0.425,0.599,0.636,1.272,0.636c0.199,0,0.412-0.006,0.636-0.019c0.225-0.012,0.387-0.019,0.487-0.019v0.936
		c-2.271,0.499-4.303,0.811-6.099,0.936c-0.1,0-0.175-0.019-0.225-0.057c-0.05-0.037-0.088-0.149-0.112-0.337
		c-0.025-0.187-0.038-0.454-0.038-0.804s0.025-0.848,0.075-1.497c0-0.199-0.025-0.299-0.075-0.299c-0.025,0-0.063,0.037-0.112,0.111
		c-0.05,0.075-0.175,0.219-0.374,0.431c-0.2,0.212-0.449,0.455-0.749,0.729c-1.397,1.248-3.019,1.871-4.864,1.871
		c-1.347,0-2.407-0.324-3.18-0.973c-0.399-0.35-0.692-0.768-0.879-1.254s-0.293-0.922-0.318-1.31
		c-0.025-0.387-0.037-0.979-0.037-1.777c0-0.024,0.006-0.842,0.019-2.45c0.012-1.609,0.019-3.074,0.019-4.397
		c0-1.446-0.137-2.344-0.412-2.693s-0.911-0.524-1.908-0.524v-0.897c1.871-0.249,3.617-0.536,5.239-0.861h1.047
		c-0.05,2.296-0.112,4.766-0.187,7.409c-0.05,1.597-0.05,2.981,0,4.153c0.05,1.122,0.274,1.934,0.674,2.433
		c0.398,0.499,1.085,0.748,2.058,0.748c0.923,0,1.777-0.281,2.563-0.842c0.786-0.562,1.253-1.479,1.403-2.75
		c0.125-1.123,0.15-3.193,0.075-6.212c-0.05-1.671-0.188-2.669-0.412-2.993c-0.225-0.324-0.923-0.474-2.096-0.449v-0.936
		c1.572-0.05,3.368-0.262,5.388-0.636h1.048C125.07,49.204,125.045,50.85,125.045,52.67z"/>
	<path fill="#5D5D5D" d="M134.96,59.63c0.024,1.771,0.137,2.807,0.337,3.105c0.299,0.475,0.96,0.749,1.983,0.823v0.898
		c-2.32-0.075-3.729-0.112-4.228-0.112c-1.248,0-2.657,0.037-4.229,0.112v-0.898c1.023-0.099,1.659-0.386,1.909-0.86
		c0.174-0.324,0.274-1.297,0.299-2.919c0.075-1.521,0.112-3.616,0.112-6.286v-3.03c0-2.719-0.063-5.164-0.188-7.334
		c-0.05-0.973-0.387-1.559-1.01-1.759c-0.175-0.05-0.599-0.1-1.272-0.149v-0.936c1.621-0.075,3.417-0.437,5.388-1.085h1.085
		c-0.175,3.143-0.262,6.149-0.262,9.018C134.886,52.933,134.91,56.737,134.96,59.63z"/>
	<path fill="#5D5D5D" d="M154.83,47.769c-0.351,0.948-0.55,1.473-0.6,1.571c-0.125,0.175-0.287,0.263-0.486,0.263
		c-0.25,0-0.637-0.013-1.16-0.038c-0.574-0.024-0.86,0.101-0.86,0.374l0.337,0.898c0.199,0.599,0.299,1.186,0.299,1.759
		c0,1.622-0.648,3.024-1.945,4.209c-1.297,1.186-2.832,1.777-4.603,1.777c-0.225,0-0.474-0.03-0.748-0.093s-0.437-0.094-0.487-0.094
		c-0.148,0-0.411,0.237-0.785,0.711c-0.324,0.424-0.486,0.724-0.486,0.897c0,0.799,1.396,1.235,4.191,1.31
		c0.199,0,0.517,0.007,0.953,0.02s0.742,0.019,0.917,0.019s0.431,0.013,0.767,0.037c0.338,0.025,0.58,0.051,0.73,0.075
		c0.149,0.024,0.349,0.056,0.599,0.093c0.249,0.038,0.454,0.082,0.617,0.132c0.162,0.05,0.337,0.118,0.524,0.205
		c0.187,0.088,0.367,0.182,0.542,0.281c1.022,0.599,1.534,1.435,1.534,2.507c0,1.896-0.961,3.573-2.881,5.032
		c-1.922,1.459-4.129,2.19-6.623,2.19c-1.896,0-3.53-0.389-4.902-1.16c-1.372-0.774-2.058-1.697-2.058-2.769
		c0-1.099,0.586-2.146,1.759-3.144c0.174-0.125,0.449-0.337,0.823-0.636c0.374-0.3,0.673-0.536,0.897-0.711
		c-0.897-0.225-1.559-0.611-1.983-1.16c-0.1-0.149-0.2-0.412-0.299-0.786c-0.025-0.099-0.025-0.162,0-0.187
		c1.022-0.898,1.958-1.722,2.807-2.47c0.274-0.249,0.411-0.461,0.411-0.636c0-0.15-0.088-0.287-0.262-0.412
		c-0.724-0.474-1.26-0.936-1.609-1.385c-0.624-0.798-0.935-1.758-0.935-2.881c0-1.621,0.723-3.056,2.17-4.303
		c1.446-1.247,3.118-1.871,5.014-1.871c0.974,0,1.896,0.175,2.769,0.523c0.324,0.15,0.637,0.225,0.936,0.225
		C151.336,48.143,152.709,48.019,154.83,47.769z M142.931,63.971c-0.749,0.723-1.122,1.646-1.122,2.769
		c0,1.022,0.486,1.908,1.459,2.657c0.973,0.748,2.119,1.123,3.441,1.123c1.372,0,2.488-0.369,3.35-1.104
		c0.861-0.736,1.291-1.69,1.291-2.862c0-0.599-0.225-1.123-0.674-1.572c-0.523-0.448-1.396-0.673-2.619-0.673
		C145.188,64.308,143.479,64.196,142.931,63.971z M148.842,53.906c0-1.322-0.299-2.531-0.897-3.63
		c-0.599-1.097-1.397-1.646-2.395-1.646c-0.674,0-1.253,0.275-1.74,0.823c-0.486,0.549-0.718,1.397-0.692,2.545
		c0,1.571,0.313,2.881,0.936,3.929s1.409,1.571,2.357,1.571c0.249,0,0.492-0.043,0.73-0.131c0.236-0.087,0.498-0.243,0.785-0.468
		s0.511-0.592,0.674-1.104C148.762,55.285,148.842,54.654,148.842,53.906z"/>
	<path fill="#5D5D5D" d="M173.5,63.26c-0.125,0.025-0.617,0.168-1.478,0.43c-0.86,0.263-1.685,0.5-2.47,0.711
		c-0.785,0.212-1.328,0.318-1.627,0.318c-0.15,0-0.25-0.044-0.3-0.131c-0.05-0.088-0.075-0.293-0.075-0.617
		c0-0.249,0.006-0.549,0.02-0.898c0.012-0.349,0.018-0.561,0.018-0.636c0-0.249-0.037-0.374-0.111-0.374
		c-0.051,0-0.125,0.088-0.225,0.262c-0.6,0.748-1.211,1.31-1.834,1.684c-1.023,0.648-2.245,0.973-3.667,0.973
		c-1.397,0-2.525-0.355-3.386-1.066c-0.861-0.711-1.291-1.652-1.291-2.824c0-1.147,0.387-2.083,1.16-2.807
		c1.271-1.322,4.314-2.619,9.129-3.892v-3.181c0-0.848-0.23-1.509-0.691-1.983c-0.462-0.474-1.092-0.711-1.89-0.711
		c-0.499,0-1.099,0.126-1.796,0.375c-0.699,0.249-1.136,0.511-1.311,0.785c-0.1,0.175-0.312,1.285-0.636,3.33l-2.095,0.3
		c-0.025-0.424-0.057-1.061-0.094-1.908s-0.057-1.472-0.057-1.871c1.147-0.549,2.245-1.022,3.293-1.422
		c1.896-0.698,3.667-1.048,5.313-1.048c1.321,0,2.288,0.313,2.899,0.936c0.611,0.624,0.917,1.609,0.917,2.956
		c0,0.449-0.019,1.497-0.056,3.143c-0.037,1.646-0.057,3.181-0.057,4.603c0,2.245,0.037,3.48,0.112,3.705
		c0.149,0.249,0.387,0.374,0.711,0.374c0.2,0,0.724-0.15,1.571-0.449V63.26z M167.401,56.562c0-0.498-0.249-0.748-0.749-0.748
		c-1.047,0-2.244,0.387-3.592,1.16c-1.372,0.773-2.058,1.821-2.058,3.143c0,0.799,0.293,1.473,0.88,2.021
		c0.585,0.55,1.314,0.823,2.188,0.823c0.772,0,1.428-0.218,1.964-0.654c0.537-0.437,0.917-0.992,1.142-1.665
		c0.149-0.424,0.225-1.022,0.225-1.796V56.562z"/>
	<path fill="#5D5D5D" d="M181.133,47.507c-0.074,1.098-0.125,1.896-0.148,2.395c0,0.324,0.037,0.486,0.111,0.486
		c0.025,0,0.068-0.05,0.131-0.149s0.162-0.256,0.3-0.468c0.137-0.212,0.28-0.405,0.431-0.58c0.772-0.923,1.422-1.509,1.945-1.759
		c0.449-0.199,0.873-0.299,1.272-0.299c0.474,0,1.097,0.074,1.87,0.225c0.025,0,0.063,0,0.113,0c0.248,0.05,0.386,0.087,0.411,0.112
		c0,0.024,0,0.063,0,0.112l-0.038,0.111l-0.561,3.93h-1.123c-0.025-0.175-0.056-0.355-0.094-0.543
		c-0.037-0.188-0.063-0.324-0.074-0.411c-0.013-0.088-0.031-0.169-0.057-0.243c-0.024-0.075-0.05-0.132-0.074-0.169
		c-0.025-0.037-0.063-0.056-0.112-0.056c-0.025,0-0.131-0.013-0.317-0.038c-0.188-0.024-0.432-0.043-0.73-0.056
		s-0.586-0.019-0.86-0.019c-0.474,0-0.874,0.149-1.197,0.448c-0.449,0.35-0.774,0.998-0.974,1.946
		c-0.199,0.873-0.287,2.245-0.262,4.116c0,0.474,0.006,1.185,0.02,2.133c0.012,0.948,0.018,1.659,0.018,2.133
		c0.025,1.047,0.175,1.684,0.449,1.908c0.424,0.374,1.435,0.636,3.031,0.785v0.898c-1.746-0.075-3.381-0.112-4.902-0.112
		c-1.396,0-2.992,0.037-4.789,0.112v-0.898c0.848-0.024,1.447-0.199,1.797-0.523c0.225-0.199,0.398-0.611,0.523-1.234
		c0.049-0.35,0.074-1.072,0.074-2.171c0.1-2.868,0.088-5.662-0.037-8.382c-0.025-0.424-0.051-0.729-0.074-0.916
		c-0.025-0.188-0.088-0.368-0.188-0.543c-0.1-0.174-0.262-0.299-0.486-0.374c-0.299-0.125-0.773-0.188-1.422-0.188v-0.897
		c1.871-0.175,3.518-0.449,4.939-0.823H181.133z"/>
	<path fill="#5D5D5D" d="M190.937,51.436c0-1.022-0.25-1.634-0.749-1.833c-0.299-0.125-0.748-0.188-1.347-0.188V48.48
		c1.821-0.249,3.616-0.674,5.388-1.272h1.011c-0.2,2.994-0.3,5.551-0.3,7.671v4.752c0,1.746,0.113,2.794,0.338,3.144
		c0.225,0.399,0.822,0.661,1.795,0.785v0.898c-1.795-0.075-3.131-0.112-4.003-0.112c-1.073,0-2.507,0.037-4.304,0.112v-0.898
		c1.098-0.099,1.771-0.386,2.021-0.86c0.149-0.274,0.236-1.297,0.262-3.068C191.098,56.737,191.061,54.005,190.937,51.436z
		 M193.031,40.098c0.6,0,1.11,0.231,1.535,0.692c0.424,0.462,0.636,1.005,0.636,1.628c0,0.624-0.212,1.16-0.636,1.609
		c-0.425,0.448-0.936,0.673-1.535,0.673c-0.574,0-1.066-0.225-1.478-0.673c-0.411-0.449-0.617-0.985-0.617-1.609
		c0-0.623,0.206-1.166,0.617-1.628C191.965,40.33,192.457,40.098,193.031,40.098z"/>
	<path fill="#5D5D5D" d="M215.52,63.26c-0.125,0.025-0.617,0.168-1.479,0.43c-0.86,0.263-1.684,0.5-2.469,0.711
		c-0.786,0.212-1.328,0.318-1.628,0.318c-0.149,0-0.25-0.044-0.3-0.131c-0.05-0.088-0.074-0.293-0.074-0.617
		c0-0.249,0.006-0.549,0.019-0.898c0.013-0.349,0.019-0.561,0.019-0.636c0-0.249-0.037-0.374-0.112-0.374
		c-0.05,0-0.125,0.088-0.225,0.262c-0.599,0.748-1.21,1.31-1.833,1.684c-1.023,0.648-2.246,0.973-3.668,0.973
		c-1.396,0-2.525-0.355-3.386-1.066s-1.291-1.652-1.291-2.824c0-1.147,0.387-2.083,1.16-2.807c1.272-1.322,4.315-2.619,9.13-3.892
		v-3.181c0-0.848-0.23-1.509-0.692-1.983c-0.462-0.474-1.091-0.711-1.89-0.711c-0.499,0-1.098,0.126-1.796,0.375
		s-1.136,0.511-1.31,0.785c-0.1,0.175-0.313,1.285-0.637,3.33l-2.095,0.3c-0.024-0.424-0.056-1.061-0.094-1.908
		c-0.037-0.848-0.056-1.472-0.056-1.871c1.146-0.549,2.244-1.022,3.293-1.422c1.895-0.698,3.666-1.048,5.313-1.048
		c1.322,0,2.289,0.313,2.9,0.936c0.611,0.624,0.916,1.609,0.916,2.956c0,0.449-0.018,1.497-0.056,3.143
		c-0.037,1.646-0.056,3.181-0.056,4.603c0,2.245,0.037,3.48,0.111,3.705c0.15,0.249,0.387,0.374,0.711,0.374
		c0.2,0,0.724-0.15,1.572-0.449V63.26z M209.42,56.562c0-0.498-0.249-0.748-0.748-0.748c-1.048,0-2.245,0.387-3.592,1.16
		c-1.373,0.773-2.059,1.821-2.059,3.143c0,0.799,0.293,1.473,0.88,2.021c0.585,0.55,1.315,0.823,2.188,0.823
		c0.773,0,1.428-0.218,1.965-0.654c0.536-0.437,0.916-0.992,1.141-1.665c0.15-0.424,0.225-1.022,0.225-1.796V56.562z"/>
	<path fill="#5D5D5D" d="M223.04,47.694c-0.024,0.449-0.037,1.211-0.037,2.283c0,0.324,0.024,0.486,0.075,0.486
		c0.023,0,0.049-0.013,0.074-0.037c0.025-0.025,0.057-0.075,0.094-0.15c0.037-0.074,0.08-0.137,0.131-0.187
		c1.322-1.846,3.093-2.77,5.313-2.77c1.646,0,2.862,0.394,3.647,1.179c0.787,0.786,1.154,1.902,1.104,3.35
		c0,0.299-0.013,0.754-0.038,1.365c-0.024,0.611-0.037,1.066-0.037,1.366c-0.025,1.098-0.013,2.781,0.037,5.051
		c0.025,1.746,0.15,2.782,0.375,3.105c0.299,0.475,0.898,0.749,1.796,0.823v0.898c-2.395-0.075-3.741-0.112-4.041-0.112
		c-0.55,0-1.946,0.037-4.19,0.112v-0.898c1.021-0.074,1.684-0.349,1.982-0.823c0.225-0.323,0.35-1.359,0.375-3.105
		c0.049-2.319,0.037-4.402-0.038-6.249c-0.075-1.396-0.387-2.369-0.936-2.918c-0.448-0.474-1.147-0.711-2.095-0.711
		c-1.223,0-2.221,0.536-2.994,1.608c-0.35,0.475-0.561,0.986-0.636,1.534c-0.025,0.15-0.038,0.998-0.038,2.545
		c0,0.849,0.025,2.245,0.075,4.19c0.024,1.746,0.138,2.782,0.337,3.105c0.299,0.475,0.985,0.749,2.059,0.823v0.898
		c-2.695-0.075-4.129-0.112-4.304-0.112c-0.499,0-1.908,0.037-4.228,0.112v-0.898c1.047-0.074,1.721-0.349,2.02-0.823
		c0.225-0.323,0.35-1.359,0.375-3.105c0-0.249,0-0.854,0-1.814c0-0.96,0-1.902,0-2.825s0-1.759,0-2.507
		c-0.025-1.497-0.169-2.407-0.431-2.731s-0.904-0.486-1.927-0.486v-0.898c2.045-0.149,3.68-0.374,4.901-0.674H223.04z"/>
</g>
<g enable-background="new    ">
	<path fill="#5D5D5D" d="M105.738,94.867c0.15-3.018,0.174-5.125,0.075-6.324c-0.05-0.598-0.262-0.984-0.636-1.158
		c-0.399-0.225-1.297-0.375-2.694-0.449v-0.973c1.048,0.023,2.694,0.037,4.939,0.037c0.399,0,1.191-0.006,2.376-0.02
		c1.184-0.012,2.001-0.018,2.451-0.018v0.973c-0.424,0.049-0.936,0.162-1.534,0.336c-0.449,0.15-0.736,0.486-0.86,1.01
		c-0.1,0.4-0.15,1.26-0.15,2.582c0,2.072,0.112,3.768,0.337,5.09c-1.148,0.873-2.694,1.578-4.64,2.113
		c-1.945,0.537-4.066,0.805-6.361,0.805c-3.966,0-7.003-0.93-9.111-2.787c-2.108-1.859-3.162-4.547-3.162-8.064
		c0-4.49,1.459-8.113,4.378-10.869c2.918-2.756,6.598-4.135,11.038-4.135c1.771,0,3.417,0.213,4.939,0.637
		c1.272,0.35,2.146,0.711,2.62,1.084c0.049,0.025,0.075,0.088,0.075,0.188c-0.449,2.869-0.786,4.766-1.01,5.688h-1.272
		c-0.05,0-0.075-0.025-0.075-0.074c-0.025-0.6-0.137-1.598-0.337-2.994c-0.05-0.324-0.212-0.637-0.486-0.936
		c-0.499-0.498-1.384-0.967-2.657-1.402c-1.272-0.438-2.569-0.656-3.891-0.656c-1.323,0-2.507,0.232-3.555,0.693
		c-1.048,0.461-1.89,1.055-2.526,1.777s-1.167,1.564-1.59,2.525c-0.424,0.961-0.717,1.908-0.879,2.844
		c-0.163,0.936-0.243,1.877-0.243,2.824c0,3.992,0.992,6.979,2.975,8.963c1.983,1.982,4.496,2.975,7.54,2.975
		c1.097,0,2.257-0.412,3.479-1.234C105.563,95.717,105.713,95.367,105.738,94.867z"/>
	<path fill="#5D5D5D" d="M125.083,81.135c2.22,0,3.979,0.68,5.276,2.039c1.297,1.361,1.946,3.213,1.946,5.557
		c0,2.869-1.004,5.246-3.012,7.129c-2.008,1.883-4.546,2.824-7.614,2.824c-2.245,0-4.022-0.68-5.332-2.039s-1.964-3.211-1.964-5.557
		c0-2.867,1.01-5.244,3.031-7.127C119.433,82.076,121.989,81.135,125.083,81.135z M123.998,97.225c1.347,0,2.457-0.611,3.33-1.834
		c0.873-1.221,1.31-2.793,1.31-4.715c0-2.369-0.549-4.289-1.646-5.762c-1.098-1.471-2.507-2.207-4.228-2.207
		c-1.372,0-2.482,0.611-3.33,1.834c-0.849,1.223-1.272,2.805-1.272,4.752c0,2.42,0.536,4.346,1.609,5.781
		C120.842,96.508,122.251,97.225,123.998,97.225z"/>
	<path fill="#5D5D5D" d="M143.641,98.609l-0.859,0.225c-0.25-0.35-0.688-1.186-1.311-2.508c-0.822-1.67-1.858-3.928-3.105-6.771
		c-1.497-3.393-2.32-5.289-2.469-5.688c-0.25-0.6-0.512-0.973-0.786-1.123s-0.636-0.236-1.085-0.262v-0.861
		c1.596,0.051,3.056,0.076,4.378,0.076c1.596,0,2.994-0.025,4.191-0.076v0.861c-0.873,0.1-1.521,0.225-1.945,0.373
		c-0.549,0.15-0.649,0.688-0.3,1.609c1.796,5.064,2.856,8.033,3.181,8.906c0.199,0.523,0.349,0.785,0.449,0.785
		c0.049,0,0.174-0.262,0.373-0.785c0.025-0.025,0.182-0.393,0.469-1.104c0.286-0.711,0.604-1.484,0.953-2.32
		s0.705-1.709,1.066-2.619s0.661-1.709,0.898-2.395c0.236-0.686,0.355-1.117,0.355-1.291c0-0.723-0.686-1.109-2.058-1.16v-0.861
		c1.247,0.051,2.345,0.076,3.292,0.076c1.049,0,2.096-0.025,3.144-0.076v0.861c-0.923,0.074-1.597,0.336-2.021,0.785
		c-0.324,0.375-1.173,2.17-2.545,5.389c-0.398,0.898-0.929,2.133-1.59,3.705c-0.661,1.57-1.216,2.887-1.665,3.947
		C144.203,97.369,143.865,98.135,143.641,98.609z"/>
	<path fill="#5D5D5D" d="M167.851,94.344l-0.187,1.496c-0.5,0.475-1.554,1.066-3.162,1.777c-1.609,0.711-3.075,1.066-4.396,1.066
		c-2.047,0-3.662-0.691-4.846-2.076c-1.186-1.385-1.777-3.273-1.777-5.668c0-2.795,0.854-5.096,2.563-6.904s3.885-2.713,6.529-2.713
		c1.497,0,2.694,0.467,3.592,1.402c0.898,0.936,1.348,2.203,1.348,3.799c0,0.424-0.013,0.748-0.037,0.973
		c-0.051,0.35-0.168,0.568-0.355,0.654c-0.188,0.088-0.643,0.145-1.366,0.17c-5.063,0.174-7.721,0.311-7.97,0.41
		c-0.35,0.125-0.523,0.574-0.523,1.348c0,1.971,0.523,3.543,1.57,4.715c1.123,1.223,2.558,1.834,4.304,1.834
		c0.524,0,1.259-0.213,2.208-0.637C166.291,95.566,167.127,95.018,167.851,94.344z M162.275,87.234c0.473,0,0.798-0.068,0.973-0.205
		c0.174-0.137,0.262-0.418,0.262-0.842c0-0.975-0.262-1.766-0.785-2.377c-0.524-0.611-1.197-0.916-2.021-0.916
		c-0.598,0-1.122,0.143-1.571,0.43c-0.448,0.287-0.786,0.611-1.011,0.973c-0.224,0.361-0.405,0.799-0.542,1.311
		c-0.138,0.512-0.219,0.885-0.243,1.121c-0.025,0.238-0.051,0.48-0.074,0.73c0.199,0,0.448-0.006,0.748-0.02
		c0.299-0.012,0.848-0.037,1.646-0.074C160.454,87.328,161.326,87.285,162.275,87.234z"/>
	<path fill="#5D5D5D" d="M175.482,81.248c-0.074,1.098-0.125,1.895-0.148,2.395c0,0.324,0.037,0.486,0.111,0.486
		c0.025,0,0.068-0.051,0.131-0.15s0.162-0.256,0.3-0.467c0.137-0.213,0.28-0.406,0.431-0.58c0.772-0.924,1.422-1.51,1.945-1.76
		c0.449-0.199,0.873-0.299,1.272-0.299c0.474,0,1.097,0.074,1.87,0.225c0.025,0,0.063,0,0.113,0
		c0.248,0.051,0.386,0.088,0.411,0.113c0,0.023,0,0.063,0,0.111l-0.038,0.111l-0.561,3.93h-1.123
		c-0.025-0.174-0.056-0.355-0.094-0.543c-0.037-0.188-0.063-0.324-0.074-0.41c-0.013-0.088-0.031-0.17-0.057-0.244
		c-0.024-0.074-0.05-0.131-0.074-0.168c-0.025-0.037-0.063-0.057-0.112-0.057c-0.025,0-0.131-0.012-0.317-0.037
		c-0.188-0.025-0.432-0.043-0.73-0.057c-0.299-0.012-0.586-0.018-0.86-0.018c-0.474,0-0.874,0.148-1.197,0.447
		c-0.449,0.35-0.774,0.998-0.974,1.947c-0.199,0.873-0.287,2.244-0.262,4.115c0,0.475,0.006,1.186,0.02,2.133
		c0.012,0.949,0.018,1.66,0.018,2.133c0.025,1.047,0.175,1.684,0.449,1.908c0.424,0.375,1.435,0.637,3.031,0.785v0.898
		c-1.746-0.074-3.381-0.111-4.902-0.111c-1.396,0-2.992,0.037-4.789,0.111v-0.898c0.848-0.023,1.447-0.199,1.797-0.523
		c0.225-0.199,0.398-0.611,0.523-1.234c0.049-0.35,0.074-1.072,0.074-2.17c0.1-2.869,0.088-5.662-0.037-8.383
		c-0.025-0.424-0.051-0.729-0.074-0.916c-0.025-0.188-0.088-0.367-0.188-0.543c-0.1-0.174-0.262-0.299-0.486-0.373
		c-0.299-0.125-0.773-0.188-1.422-0.188V82.07c1.871-0.174,3.518-0.449,4.939-0.822H175.482z"/>
	<path fill="#5D5D5D" d="M188.766,81.434c-0.025,0.449-0.037,1.211-0.037,2.283c0,0.324,0.024,0.486,0.074,0.486
		c0.025,0,0.051-0.012,0.075-0.037s0.056-0.074,0.094-0.15c0.038-0.074,0.081-0.137,0.131-0.186c1.321-1.846,3.093-2.77,5.313-2.77
		c1.646,0,2.862,0.393,3.648,1.178c0.785,0.787,1.153,1.902,1.104,3.35c0,0.299-0.013,0.754-0.037,1.365
		c-0.025,0.611-0.037,1.066-0.037,1.367c-0.025,1.098-0.014,2.781,0.037,5.051c0.024,1.746,0.149,2.781,0.374,3.105
		c0.3,0.475,0.897,0.748,1.796,0.822v0.898c-2.395-0.074-3.742-0.111-4.041-0.111c-0.549,0-1.945,0.037-4.191,0.111v-0.898
		c1.023-0.074,1.684-0.348,1.984-0.822c0.224-0.324,0.348-1.359,0.373-3.105c0.051-2.32,0.038-4.402-0.037-6.25
		c-0.074-1.396-0.387-2.369-0.936-2.918c-0.449-0.473-1.147-0.711-2.096-0.711c-1.223,0-2.221,0.537-2.992,1.609
		c-0.35,0.475-0.563,0.986-0.637,1.533c-0.025,0.15-0.037,0.998-0.037,2.545c0,0.85,0.023,2.246,0.074,4.191
		c0.025,1.746,0.137,2.781,0.337,3.105c0.3,0.475,0.985,0.748,2.058,0.822v0.898c-2.693-0.074-4.129-0.111-4.303-0.111
		c-0.499,0-1.908,0.037-4.229,0.111v-0.898c1.049-0.074,1.722-0.348,2.021-0.822c0.225-0.324,0.349-1.359,0.373-3.105
		c0-0.25,0-0.854,0-1.814s0-1.902,0-2.826c0-0.922,0-1.758,0-2.506c-0.024-1.498-0.168-2.408-0.43-2.732s-0.904-0.486-1.928-0.486
		v-0.898c2.046-0.148,3.68-0.373,4.902-0.674H188.766z"/>
	<path fill="#5D5D5D" d="M209.195,83.979c0.574-0.674,1.341-1.291,2.301-1.852c0.961-0.561,1.965-0.842,3.013-0.842
		c1.022,0,1.821,0.193,2.396,0.58c0.572,0.387,1.047,1.166,1.422,2.338c0.023,0.176,0.061,0.262,0.111,0.262
		c0.025,0,0.081-0.061,0.168-0.188c0.088-0.123,0.263-0.322,0.524-0.598c0.263-0.273,0.567-0.561,0.917-0.861
		c1.396-1.121,2.844-1.684,4.34-1.684c2.818,0,4.229,1.359,4.229,4.078c0,0.85-0.013,2.258-0.037,4.229
		c-0.025,1.971-0.037,3.281-0.037,3.93c0,1.721,0.111,2.756,0.336,3.105c0.3,0.475,0.885,0.748,1.759,0.822v0.898
		c-2.021-0.074-3.393-0.111-4.116-0.111c-0.897,0-2.244,0.037-4.041,0.111v-0.898c1.048-0.074,1.696-0.348,1.945-0.822
		c0.25-0.398,0.375-1.434,0.375-3.105v-6.1c0-1.197-0.206-2.07-0.617-2.619c-0.412-0.549-1.142-0.822-2.189-0.822
		c-1.047,0-1.884,0.373-2.507,1.121c-0.524,0.6-0.812,1.285-0.86,2.059c-0.025,0.375-0.037,1.279-0.037,2.713
		c0,1.436,0,2.65,0,3.648c0,1.596,0.148,2.631,0.449,3.105c0.248,0.475,0.797,0.748,1.646,0.822v0.898
		c-2.021-0.074-3.317-0.111-3.892-0.111c-0.898,0-2.207,0.037-3.929,0.111v-0.898c0.848-0.074,1.422-0.348,1.722-0.822
		c0.225-0.324,0.349-1.359,0.374-3.105v-5.725c-0.025-1.172-0.175-2.021-0.449-2.545c-0.399-0.799-1.122-1.197-2.171-1.197
		c-0.973,0-1.783,0.318-2.432,0.953c-0.648,0.637-0.985,1.416-1.01,2.34c-0.025,0.475-0.037,2.531-0.037,6.174
		c0,1.721,0.111,2.756,0.336,3.105c0.299,0.475,0.923,0.748,1.871,0.822v0.898c-1.796-0.074-3.168-0.111-4.116-0.111
		c-1.073,0-2.433,0.037-4.078,0.111v-0.898c0.973-0.074,1.608-0.348,1.908-0.822c0.199-0.299,0.3-1.334,0.3-3.105
		c0.049-2.67,0.062-4.965,0.037-6.885c-0.025-1.473-0.168-2.377-0.431-2.713c-0.262-0.338-0.917-0.506-1.964-0.506v-0.898
		c1.895-0.148,3.517-0.436,4.863-0.859h1.235c-0.05,1.146-0.075,1.945-0.075,2.395c0,0.299,0.037,0.449,0.113,0.449
		C208.883,84.354,208.996,84.229,209.195,83.979z"/>
	<path fill="#5D5D5D" d="M247.1,94.344l-0.188,1.496c-0.499,0.475-1.553,1.066-3.162,1.777c-1.608,0.711-3.074,1.066-4.396,1.066
		c-2.045,0-3.66-0.691-4.846-2.076c-1.185-1.385-1.777-3.273-1.777-5.668c0-2.795,0.854-5.096,2.563-6.904
		c1.708-1.809,3.886-2.713,6.53-2.713c1.496,0,2.693,0.467,3.592,1.402c0.897,0.936,1.347,2.203,1.347,3.799
		c0,0.424-0.013,0.748-0.038,0.973c-0.05,0.35-0.168,0.568-0.355,0.654c-0.187,0.088-0.643,0.145-1.365,0.17
		c-5.064,0.174-7.721,0.311-7.97,0.41c-0.35,0.125-0.524,0.574-0.524,1.348c0,1.971,0.524,3.543,1.572,4.715
		c1.122,1.223,2.557,1.834,4.303,1.834c0.523,0,1.26-0.213,2.207-0.637C245.54,95.566,246.375,95.018,247.1,94.344z M241.524,87.234
		c0.474,0,0.798-0.068,0.973-0.205s0.262-0.418,0.262-0.842c0-0.975-0.262-1.766-0.786-2.377c-0.523-0.611-1.197-0.916-2.02-0.916
		c-0.6,0-1.123,0.143-1.572,0.43s-0.785,0.611-1.01,0.973s-0.406,0.799-0.543,1.311s-0.219,0.885-0.243,1.121
		c-0.024,0.238-0.05,0.48-0.075,0.73c0.199,0,0.449-0.006,0.749-0.02c0.3-0.012,0.848-0.037,1.646-0.074
		C239.703,87.328,240.576,87.285,241.524,87.234z"/>
	<path fill="#5D5D5D" d="M254.619,81.434c-0.024,0.449-0.037,1.211-0.037,2.283c0,0.324,0.025,0.486,0.075,0.486
		c0.024,0,0.05-0.012,0.075-0.037c0.024-0.025,0.056-0.074,0.094-0.15c0.037-0.074,0.08-0.137,0.131-0.186
		c1.321-1.846,3.092-2.77,5.313-2.77c1.646,0,2.863,0.393,3.648,1.178c0.786,0.787,1.154,1.902,1.104,3.35
		c0,0.299-0.012,0.754-0.037,1.365s-0.037,1.066-0.037,1.367c-0.025,1.098-0.014,2.781,0.037,5.051
		c0.025,1.746,0.15,2.781,0.375,3.105c0.299,0.475,0.897,0.748,1.795,0.822v0.898c-2.395-0.074-3.741-0.111-4.041-0.111
		c-0.549,0-1.945,0.037-4.19,0.111v-0.898c1.022-0.074,1.684-0.348,1.983-0.822c0.225-0.324,0.349-1.359,0.374-3.105
		c0.05-2.32,0.038-4.402-0.038-6.25c-0.074-1.396-0.387-2.369-0.936-2.918c-0.448-0.473-1.146-0.711-2.095-0.711
		c-1.223,0-2.221,0.537-2.993,1.609c-0.35,0.475-0.562,0.986-0.637,1.533c-0.025,0.15-0.037,0.998-0.037,2.545
		c0,0.85,0.024,2.246,0.074,4.191c0.025,1.746,0.138,2.781,0.338,3.105c0.299,0.475,0.984,0.748,2.058,0.822v0.898
		c-2.694-0.074-4.129-0.111-4.304-0.111c-0.498,0-1.908,0.037-4.228,0.111v-0.898c1.048-0.074,1.722-0.348,2.021-0.822
		c0.225-0.324,0.35-1.359,0.374-3.105c0-0.25,0-0.854,0-1.814s0-1.902,0-2.826c0-0.922,0-1.758,0-2.506
		c-0.024-1.498-0.169-2.408-0.431-2.732s-0.904-0.486-1.927-0.486v-0.898c2.046-0.148,3.68-0.373,4.901-0.674H254.619z"/>
	<path fill="#5D5D5D" d="M279.314,97c-2.469,1.123-4.24,1.684-5.313,1.684c-1.123,0-1.922-0.387-2.395-1.16
		c-0.25-0.373-0.4-0.922-0.449-1.646c-0.051-0.723-0.051-2.207,0-4.451c0.074-3.293,0.112-5.963,0.112-8.008H269.1v-1.311h1.123
		c0.947,0,1.596-0.305,1.945-0.916s0.524-1.74,0.524-3.387h2.356c-0.05,1.072-0.037,2.52,0.038,4.34
		c2.146,0,3.555-0.012,4.228-0.037v1.236h-3.703c-0.375,0-0.563,0.199-0.563,0.598v8.83c0,1.572,0.1,2.582,0.3,3.031
		s0.711,0.674,1.534,0.674c0.848,0,1.658-0.262,2.432-0.785V97z"/>
</g>
</svg>
