<?xml version="1.0" encoding="utf-8"?>
<!-- Generator: Adobe Illustrator 16.0.3, SVG Export Plug-In . SVG Version: 6.00 Build 0)  -->
<!DOCTYPE svg PUBLIC "-//W3C//DTD SVG 1.1//EN" "http://www.w3.org/Graphics/SVG/1.1/DTD/svg11.dtd">
<svg version="1.1" id="Layer_1" xmlns="http://www.w3.org/2000/svg" xmlns:xlink="http://www.w3.org/1999/xlink" x="0px" y="0px"
	 width="280px" height="140px" viewBox="0 0 280 140" enable-background="new 0 0 280 140" xml:space="preserve">
<g>
	<path fill="#5D5D5D" d="M121.908,51.646c-1.393-1.541-6.309-9.943-19.039-10.494C93,41.08,87.313,51.61,69.52,51.096
		c-11.887,0.55-34.487-11.924-37.569-12.915c-1.834-0.77-3.228-0.293-4.219,1.1c-0.954,1.982,0.404,3.34,0.587,3.597
		c0,0,13.28,6.456,15.923,8.217c1.834,1.064,1.43,2.531,0.917,3.155c-1.613,1.872-3.485,0.661-4.88,0.147l-22.673-11.08
		c-2.421-1.1-4.072-0.219-4.659,0.551c-0.734,0.954-1.211,3.264,0.404,4.146l22.49,10.933c2.274,1.138,2.128,2.519,1.394,3.742
		c-0.991,1.65-1.908,1.542-4.219,0.587L7.92,51.096c-2.036-0.77-4.53-0.257-5.246,1.174c-0.715,1.431-0.33,3.412,0.771,4.184
		l28.91,14.014c0.771,0.403,1.343,1.46,0.478,3.191c-0.624,1.249-2.751,0.825-4.513,0.11L6.782,64.852
		c-2.457-0.878-4.193,0.193-4.731,1.543c-0.514,1.284-0.588,3.632,1.357,4.329l41.457,15.41c2.312,0.88,1.944,3.248,1.063,4.294
		c-0.88,1.045-3.247,1.062-5.393,0.731c-2.146-0.33-11.348-3.668-14.492-3.668c-1.945,0-4.952,0.221-5.942,2.423
		c-0.647,1.436,0.293,3.136,1.834,3.85c1.541,0.715,24.03,7.557,36.431,7.154c17.572-0.734,32.073-8.631,34.439-10.778
		c5.475-3.383,18.767-21.875,20.334-23.855c3.578-4.429,4.128-8.804,20.583-8.877C132.732,54.289,125.249,52.233,121.908,51.646z
		 M102.868,65.184c-5.835,0-10.566-4.731-10.566-10.565c0-5.835,4.731-10.566,10.566-10.566s10.566,4.731,10.566,10.566
		C113.435,60.453,108.703,65.184,102.868,65.184z"/>
</g>
<circle fill="#5D5D5D" cx="102.868" cy="54.639" r="4.183"/>
<g>
	<path fill="#5D5D5D" d="M138.775,51.726V39.597h3.862c0.786,0,1.417,0.123,1.893,0.369c0.475,0.245,0.847,0.623,1.116,1.132
		c0.27,0.511,0.403,1.044,0.403,1.601c0,0.519-0.119,1.007-0.358,1.465c-0.237,0.458-0.599,0.828-1.081,1.108
		c0.623,0.215,1.102,0.583,1.436,1.1c0.336,0.519,0.503,1.131,0.503,1.837c0,0.569-0.102,1.096-0.307,1.585
		c-0.203,0.487-0.454,0.864-0.754,1.128c-0.299,0.265-0.675,0.465-1.126,0.6c-0.453,0.135-1.006,0.203-1.661,0.203H138.775z
		 M140.137,44.693h2.226c0.604,0,1.036-0.046,1.299-0.141c0.347-0.121,0.606-0.322,0.783-0.604c0.175-0.282,0.263-0.634,0.263-1.059
		c0-0.402-0.082-0.756-0.246-1.063c-0.163-0.306-0.397-0.516-0.702-0.628c-0.304-0.113-0.826-0.17-1.565-0.17h-2.057V44.693z
		 M140.137,50.294h2.563c0.438,0,0.749-0.019,0.927-0.058c0.313-0.066,0.574-0.176,0.786-0.331c0.211-0.154,0.384-0.378,0.52-0.674
		c0.137-0.294,0.203-0.635,0.203-1.021c0-0.452-0.099-0.845-0.295-1.179c-0.196-0.333-0.468-0.567-0.817-0.703
		c-0.349-0.135-0.851-0.203-1.506-0.203h-2.38V50.294z"/>
	<path fill="#5D5D5D" d="M162.654,39.597h1.362v7.008c0,1.219-0.116,2.187-0.352,2.903c-0.234,0.718-0.656,1.301-1.267,1.75
		c-0.611,0.449-1.414,0.674-2.404,0.674c-0.965,0-1.754-0.196-2.368-0.587c-0.612-0.392-1.05-0.959-1.312-1.7
		c-0.262-0.742-0.394-1.755-0.394-3.041v-7.008h1.362v7c0,1.053,0.083,1.83,0.25,2.329c0.165,0.499,0.451,0.884,0.855,1.154
		c0.405,0.271,0.901,0.406,1.485,0.406c1.001,0,1.716-0.268,2.142-0.803s0.639-1.563,0.639-3.086V39.597z"/>
	<path fill="#5D5D5D" d="M172.895,51.752V39.623h1.362v10.698h5.07v1.431H172.895z"/>
	<path fill="#5D5D5D" d="M194.054,46.969v-1.423l4.36-0.008v4.5c-0.669,0.629-1.359,1.102-2.072,1.419
		c-0.712,0.317-1.441,0.476-2.191,0.476c-1.01,0-1.929-0.254-2.755-0.765c-0.826-0.51-1.45-1.248-1.872-2.213
		c-0.421-0.965-0.631-2.043-0.631-3.234c0-1.181,0.209-2.282,0.628-3.306c0.419-1.022,1.022-1.783,1.809-2.279
		c0.785-0.497,1.692-0.745,2.718-0.745c0.743,0,1.416,0.142,2.019,0.426c0.602,0.284,1.072,0.68,1.414,1.188
		c0.341,0.507,0.601,1.169,0.78,1.985l-1.229,0.397c-0.156-0.617-0.347-1.103-0.576-1.455c-0.229-0.354-0.557-0.637-0.983-0.849
		c-0.425-0.212-0.897-0.319-1.417-0.319c-0.623,0-1.161,0.112-1.615,0.335c-0.455,0.224-0.82,0.518-1.1,0.881
		c-0.278,0.364-0.495,0.765-0.649,1.2c-0.262,0.75-0.393,1.563-0.393,2.441c0,1.081,0.157,1.985,0.475,2.713
		c0.316,0.729,0.775,1.269,1.378,1.622c0.604,0.353,1.246,0.53,1.925,0.53c0.59,0,1.165-0.134,1.728-0.401s0.987-0.553,1.277-0.857
		v-2.258H194.054z"/>
	<path fill="#5D5D5D" d="M206.768,51.726l3.954-12.129h1.468l4.213,12.129h-1.552l-1.201-3.673h-4.304l-1.131,3.673H206.768z
		 M209.738,46.746h3.49l-1.074-3.36c-0.327-1.02-0.57-1.858-0.73-2.515c-0.131,0.777-0.316,1.55-0.555,2.316L209.738,46.746z"/>
	<path fill="#5D5D5D" d="M224.989,51.726V39.597h4.563c0.918,0,1.615,0.109,2.093,0.327s0.859,0.603,1.145,1.154
		c0.285,0.551,0.428,1.161,0.428,1.828c0,0.861-0.236,1.585-0.708,2.176c-0.475,0.59-1.203,0.965-2.191,1.125
		c0.359,0.204,0.635,0.406,0.821,0.604c0.397,0.43,0.774,0.967,1.131,1.612l1.79,3.302h-1.713l-1.362-2.523
		c-0.398-0.729-0.726-1.286-0.982-1.672c-0.258-0.386-0.489-0.656-0.692-0.811c-0.204-0.154-0.411-0.262-0.621-0.322
		c-0.154-0.039-0.408-0.058-0.759-0.058h-1.58v5.385H224.989z M226.351,44.95h2.929c0.622,0,1.109-0.076,1.461-0.227
		c0.351-0.151,0.616-0.395,0.799-0.729c0.184-0.334,0.274-0.696,0.274-1.088c0-0.574-0.176-1.044-0.529-1.415
		c-0.354-0.369-0.913-0.554-1.675-0.554h-3.259V44.95z"/>
	<path fill="#5D5D5D" d="M243.291,51.752V39.623h1.362v12.129H243.291z"/>
	<path fill="#5D5D5D" d="M253.172,51.726l3.953-12.129h1.468l4.213,12.129h-1.551l-1.201-3.673h-4.306l-1.129,3.673H253.172z
		 M256.143,46.746h3.49l-1.074-3.36c-0.328-1.02-0.571-1.858-0.731-2.515c-0.13,0.777-0.316,1.55-0.555,2.316L256.143,46.746z"/>
	<path fill="#5D5D5D" d="M270.89,51.752V39.623h1.396l5.407,9.523v-9.523H279v12.129h-1.396l-5.407-9.53v9.53H270.89z"/>
	<path fill="#5D5D5D" d="M138.5,73.835V61.707h1.362v4.98h5.35v-4.98h1.362v12.128h-1.362v-5.717h-5.35v5.717H138.5z"/>
	<path fill="#5D5D5D" d="M159.895,73.81V61.68h7.443v1.432h-6.081v3.714h5.694v1.423h-5.694v4.129h6.319v1.432H159.895z"/>
	<path fill="#5D5D5D" d="M180.3,73.923V61.794h1.362v10.698h5.068v1.431H180.3z"/>
	<path fill="#5D5D5D" d="M199.186,69.939l1.286-0.133c0.059,0.606,0.2,1.103,0.424,1.494c0.221,0.387,0.567,0.702,1.035,0.941
		c0.469,0.241,0.995,0.36,1.58,0.36c0.521,0,0.979-0.092,1.376-0.272c0.397-0.182,0.693-0.431,0.889-0.748
		c0.193-0.318,0.291-0.663,0.291-1.039c0-0.381-0.094-0.712-0.281-0.996c-0.188-0.285-0.496-0.522-0.927-0.716
		c-0.275-0.126-0.887-0.324-1.832-0.591c-0.946-0.268-1.607-0.52-1.987-0.757c-0.491-0.304-0.857-0.68-1.098-1.13
		c-0.242-0.448-0.363-0.953-0.363-1.509c0-0.612,0.147-1.185,0.442-1.716c0.296-0.533,0.727-0.937,1.293-1.213
		c0.565-0.276,1.196-0.413,1.889-0.413c0.762,0,1.436,0.144,2.019,0.434c0.583,0.289,1.029,0.716,1.346,1.278
		c0.313,0.563,0.48,1.2,0.504,1.911l-1.306,0.117c-0.071-0.767-0.309-1.346-0.714-1.738c-0.404-0.392-1.002-0.587-1.793-0.587
		c-0.824,0-1.424,0.178-1.801,0.533c-0.377,0.357-0.564,0.785-0.564,1.287c0,0.436,0.133,0.794,0.399,1.075
		c0.263,0.282,0.947,0.571,2.054,0.865c1.106,0.295,1.867,0.553,2.279,0.774c0.598,0.325,1.04,0.737,1.325,1.237
		c0.287,0.499,0.43,1.074,0.43,1.725c0,0.645-0.158,1.253-0.471,1.823c-0.313,0.571-0.766,1.017-1.353,1.333
		c-0.586,0.316-1.248,0.477-1.982,0.477c-0.931,0-1.712-0.16-2.342-0.48s-1.123-0.802-1.482-1.443
		C199.394,71.477,199.203,70.748,199.186,69.939z"/>
	<path fill="#5D5D5D" d="M220.113,73.835V61.707h1.361v12.128H220.113z"/>
	<path fill="#5D5D5D" d="M234.372,73.923V61.794h1.396l5.407,9.522v-9.522h1.306v12.129h-1.396l-5.407-9.532v9.532H234.372z"/>
	<path fill="#5D5D5D" d="M257.068,73.835V61.707h1.362v6.015l5.11-6.015h1.848l-4.318,4.914l4.507,7.215h-1.797l-3.665-6.139
		l-1.685,1.936v4.203H257.068z"/>
	<path fill="#5D5D5D" d="M276.742,74.354V62.226h1.362v12.128H276.742z"/>
	<path fill="#5D5D5D" d="M145.444,92.04l1.362,0.405c-0.286,1.319-0.801,2.324-1.541,3.017c-0.743,0.691-1.649,1.038-2.721,1.038
		c-1.11,0-2.012-0.267-2.708-0.798c-0.695-0.533-1.224-1.305-1.587-2.313c-0.363-1.01-0.544-2.094-0.544-3.252
		c0-1.262,0.205-2.363,0.614-3.304c0.41-0.941,0.993-1.655,1.749-2.144c0.756-0.487,1.588-0.732,2.496-0.732
		c1.03,0,1.896,0.31,2.598,0.927c0.702,0.618,1.192,1.487,1.468,2.606l-1.341,0.373c-0.239-0.884-0.585-1.526-1.04-1.929
		c-0.453-0.402-1.025-0.604-1.713-0.604c-0.791,0-1.452,0.224-1.983,0.67c-0.531,0.447-0.905,1.047-1.12,1.8
		c-0.216,0.753-0.324,1.528-0.324,2.328c0,1.031,0.128,1.933,0.383,2.701c0.255,0.77,0.652,1.345,1.19,1.725
		c0.538,0.381,1.12,0.572,1.748,0.572c0.764,0,1.408-0.26,1.938-0.777C144.898,93.83,145.257,93.061,145.444,92.04z"/>
	<path fill="#5D5D5D" d="M154.686,90.387c0-2.015,0.458-3.59,1.376-4.729c0.917-1.138,2.103-1.708,3.552-1.708
		c0.951,0,1.809,0.268,2.57,0.803c0.763,0.535,1.345,1.281,1.745,2.238c0.4,0.956,0.6,2.042,0.6,3.255c0,1.23-0.21,2.33-0.631,3.301
		c-0.422,0.972-1.02,1.706-1.791,2.205c-0.772,0.499-1.605,0.749-2.5,0.749c-0.968,0-1.835-0.276-2.597-0.827
		c-0.764-0.552-1.342-1.305-1.735-2.259S154.686,91.45,154.686,90.387z M156.09,90.41c0,1.463,0.333,2.614,1.001,3.454
		c0.666,0.842,1.503,1.263,2.509,1.263c1.025,0,1.869-0.425,2.531-1.275c0.662-0.849,0.994-2.054,0.994-3.614
		c0-0.987-0.142-1.849-0.425-2.586c-0.283-0.735-0.698-1.308-1.243-1.713c-0.546-0.405-1.157-0.607-1.837-0.607
		c-0.963,0-1.793,0.39-2.488,1.171C156.437,87.281,156.09,88.585,156.09,90.41z"/>
	<path fill="#5D5D5D" d="M173.288,96.293V84.164h2.05l2.438,8.588c0.225,0.8,0.389,1.398,0.491,1.795
		c0.116-0.44,0.3-1.089,0.548-1.943l2.464-8.439h1.832v12.129h-1.312v-10.15l-2.991,10.15h-1.229l-2.977-10.325v10.325H173.288z"/>
	<path fill="#5D5D5D" d="M193.464,96.293V84.164h2.05l2.438,8.588c0.224,0.8,0.388,1.398,0.49,1.795
		c0.118-0.44,0.3-1.089,0.548-1.943l2.464-8.439h1.833v12.129h-1.313v-10.15l-2.991,10.15h-1.229l-2.977-10.325v10.325H193.464z"/>
	<path fill="#5D5D5D" d="M213.205,96.5V84.372h1.362V96.5H213.205z"/>
	<path fill="#5D5D5D" d="M225.779,96.386V85.688h-3.392v-1.432h8.158v1.432h-3.405v10.697H225.779z"/>
	<path fill="#5D5D5D" d="M240.889,96.386V85.688h-3.392v-1.432h8.158v1.432h-3.405v10.697H240.889z"/>
	<path fill="#5D5D5D" d="M254.037,96.5V84.372h7.443v1.43h-6.082v3.716h5.695v1.423h-5.695v4.129h6.32V96.5H254.037z"/>
	<path fill="#5D5D5D" d="M270.818,96.5V84.372h7.443v1.43h-6.082v3.716h5.695v1.423h-5.695v4.129h6.32V96.5H270.818z"/>
</g>
</svg>
