<?xml version="1.0" encoding="utf-8"?>
<!-- Generator: Adobe Illustrator 16.0.3, SVG Export Plug-In . SVG Version: 6.00 Build 0)  -->
<!DOCTYPE svg PUBLIC "-//W3C//DTD SVG 1.1//EN" "http://www.w3.org/Graphics/SVG/1.1/DTD/svg11.dtd">
<svg version="1.1" id="Layer_1" xmlns="http://www.w3.org/2000/svg" xmlns:xlink="http://www.w3.org/1999/xlink" x="0px" y="0px"
	 width="280px" height="140px" viewBox="-2 53 280 140" enable-background="new -2 53 280 140" xml:space="preserve">
<g>
	<path fill-rule="evenodd" clip-rule="evenodd" fill="#5D5D5D" d="M249.26,112.556c0.343,0,0.631-0.114,1.379-0.46
		c2.413-1.033,4.368-1.437,6.553-1.437c6.267,0,10.232,3.794,10.232,9.945v18.454c0,0.46-0.404,0.86-0.863,0.86h-3.678
		c-0.461,0-0.862-0.4-0.862-0.86V120.72c0-4.141-2.127-6.094-6.668-6.094c-1.439,0-2.645,0.229-3.907,0.688
		c-1.727,0.634-2.359,1.438-2.359,3.048v20.696c0,0.46-0.343,0.86-0.862,0.86h-3.621c-0.461,0-0.861-0.4-0.861-0.86v-38.517
		c0-0.46,0.4-0.86,0.861-0.86h3.621c0.52,0,0.862,0.4,0.862,0.86v11.956L249.26,112.556L249.26,112.556z"/>
	<path fill-rule="evenodd" clip-rule="evenodd" fill="#5D5D5D" d="M196.793,126.246c0,5.919,3.737,9.888,9.37,9.888
		c2.014,0,4.656-0.806,6.955-2.13l0.462-0.229c0.229-0.171,0.574-0.23,0.746-0.23c0.459,0,0.805,0.403,0.805,0.919v2.244
		c0,0.918-0.172,1.15-1.267,1.61c-2.471,1.149-5.688,1.84-8.562,1.84c-8.51,0-13.855-5.636-13.855-14.545
		c0-9.313,5.002-15.177,12.994-15.177c7.472,0,12.357,5.174,12.357,13.049v1.554c0,0.46-0.345,0.862-0.862,0.862h-19.144V126.246
		L196.793,126.246z M211.451,121.3c0-4.08-2.931-6.895-7.242-6.895c-4.255,0-7.358,3.104-7.416,7.471h14.658
		C211.451,121.647,211.451,121.418,211.451,121.3L211.451,121.3z"/>
	<path fill-rule="evenodd" clip-rule="evenodd" fill="#5D5D5D" d="M240.738,134.171c0.404,0,0.749,0.403,0.749,1.033v2.301
		c0,0.689-0.171,0.977-0.749,1.264c-1.952,0.977-5.286,1.61-8.276,1.61c-9.025,0-14.372-5.461-14.372-14.773
		c0-9.255,5.75-14.946,15.119-14.946c2.473,0,4.942,0.459,7.242,1.437c0.807,0.288,1.036,0.576,1.036,1.093v2.701
		c0,0.576-0.287,0.978-0.749,0.978c-0.287,0-0.403-0.058-0.918-0.345c-2.415-1.323-4.313-1.839-6.726-1.839
		c-5.979,0-9.37,3.852-9.37,10.692c0,6.956,3.506,10.979,9.484,10.979c2.127,0,4.313-0.575,6.38-1.724l0.287-0.114
		C240.222,134.285,240.509,134.171,240.738,134.171L240.738,134.171z"/>
	<path fill-rule="evenodd" clip-rule="evenodd" fill="#5D5D5D" d="M173.344,114.922c-0.461,0-0.862-0.404-0.862-0.863v-2.299
		c0-0.461,0.401-0.863,0.862-0.863h3.161v-6.782c0-0.46,0.346-0.865,0.862-0.865h3.621c0.461,0,0.864,0.405,0.864,0.865v6.782h8.275
		c0.459,0,0.863,0.402,0.863,0.863v2.299c0,0.52-0.404,0.863-0.863,0.863h-8.275v16.67c0,3.162,1.263,4.542,4.137,4.542
		c1.034,0,2.069-0.229,2.932-0.688l0.633-0.346c0.287-0.116,0.517-0.175,0.691-0.175c0.459,0,0.746,0.344,0.746,0.922v2.069
		c0,0.574-0.113,0.804-0.634,1.034c-1.437,0.748-3.907,1.208-5.977,1.208c-5.002,0-7.876-2.702-7.876-7.36v-17.876H173.344
		L173.344,114.922z"/>
	<path fill-rule="evenodd" clip-rule="evenodd" fill="#5D5D5D" d="M163.27,139.059v-27.077c0-0.459,0.401-0.863,0.862-0.863h3.621
		c0.517,0,0.862,0.404,0.862,0.863v27.077c0,0.46-0.346,0.86-0.862,0.86h-3.621C163.671,139.919,163.27,139.519,163.27,139.059
		L163.27,139.059z M165.97,99.682c2.129,0,3.22,1.147,3.22,3.218c0,2.126-1.091,3.218-3.277,3.218c-2.126,0-3.219-1.149-3.219-3.276
		C162.693,100.887,163.9,99.682,165.97,99.682L165.97,99.682z"/>
	<path fill-rule="evenodd" clip-rule="evenodd" fill="#5D5D5D" d="M151.399,138.365c-2.129,1.094-4.082,1.554-6.208,1.554
		c-8.221,0-13.681-5.748-13.681-14.37c0-8.796,5.864-14.89,14.313-14.89c1.724,0,3.334,0.287,4.597,0.806
		c0.347,0.172,0.863,0.46,1.496,0.862c0.348,0.171,0.461,0.229,0.807,0.229l0.229-0.058v-0.402c0-0.69,0.287-0.978,0.861-0.978
		h3.048c0.517,0,0.862,0.404,0.862,0.863v28.569c0,7.357-4.771,11.269-13.626,11.269c-3.275,0-7.072-0.633-9.599-1.669
		c-1.266-0.518-1.553-0.803-1.553-1.608v-2.414c0-0.575,0.287-0.979,0.748-0.979c0.229,0,0.517,0.116,0.746,0.232l0.749,0.399
		c2.299,1.208,5.75,2.012,8.623,2.012c2.645,0,5.001-0.573,6.555-1.607c1.379-0.978,2.012-2.529,2.012-5.348v-2.759
		C151.974,138.079,151.916,138.14,151.399,138.365L151.399,138.365z M151.341,115.948c-1.15-0.806-2.933-1.265-4.941-1.265
		c-5.864,0-9.257,3.909-9.257,10.692c0,6.38,3.564,10.52,9.141,10.52c1.725,0,3.565-0.46,4.828-1.092
		c0.979-0.519,1.266-1.037,1.266-2.185v-14.603C152.377,116.867,152.205,116.522,151.341,115.948L151.341,115.948z"/>
	<path fill-rule="evenodd" clip-rule="evenodd" fill="#5D5D5D" d="M115.495,110.659c8.677,0,13.853,5.634,13.853,15.061
		c0,9.371-5.23,15.177-13.681,15.177c-8.623,0-13.968-5.806-13.968-15.118C101.698,116.405,106.928,110.659,115.495,110.659
		L115.495,110.659z M109.631,134.458c1.264,1.552,3.391,2.414,5.92,2.414c5.46,0,8.163-3.679,8.163-11.152
		c0-7.471-2.702-11.094-8.218-11.094c-5.52,0-8.162,3.563-8.162,11.209C107.333,130.09,107.965,132.446,109.631,134.458
		L109.631,134.458z"/>
	<path fill-rule="evenodd" clip-rule="evenodd" fill="#5D5D5D" d="M102.114,135.556c0.346,0,0.688,0.349,0.688,0.692v2.817
		c0,0.343-0.343,0.633-0.688,0.633H83.375c-0.345,0-0.633-0.29-0.633-0.633v-37.079c0-0.346,0.288-0.632,0.633-0.632h4.309
		c0.346,0,0.632,0.286,0.632,0.632v33.569H102.114L102.114,135.556z"/>
	<path fill-rule="evenodd" clip-rule="evenodd" fill="#5D5D5D" d="M54.313,105.097c4.921-2.596,8.53-6.079,8.058-7.781
		c-0.473-1.704-2.587-2.394-4.727-1.539c-2.138,0.854-5.746,4.34-8.058,7.783C47.276,107.005,49.392,107.692,54.313,105.097
		L54.313,105.097z"/>
	<path fill-rule="evenodd" clip-rule="evenodd" fill="#5D5D5D" d="M60.589,124.233c2.743,1.232,6.438,1.271,9.073,0.179
		c2.818-1.071,3.917-2.545,2.094-3.334c-2.044-0.814-8.21-1.132-12.634-0.582C55.739,121.163,57.113,122.917,60.589,124.233
		L60.589,124.233z"/>
	<path fill-rule="evenodd" clip-rule="evenodd" fill="#5D5D5D" d="M54.094,141.558c3.081,3.786,7.809,7.384,10.223,7.634
		c1.846-0.303,0.862-3.359-1.498-6.129c-2.125-2.526-5.7-4.786-8.358-5.515C51.745,136.66,51.294,138.113,54.094,141.558
		L54.094,141.558z"/>
	<path fill-rule="evenodd" clip-rule="evenodd" fill="#5D5D5D" d="M40.28,130.054c-1.176-0.046-2.67-1.101-2.843-0.645
		c-0.434,0.932,1.498,3.701,4.124,2.828c0.609-0.201,1.599-0.777,1.846-1.054C45.87,129.075,42.139,130.295,40.28,130.054
		L40.28,130.054z M43.285,117.83c-1.699,0.263-2.899,1.125-3.737,2.165c-0.875,1.078-2.256,2.793-1.404,4.356
		c0.09,0.189,0.65,0.973,1.855,1.298c2.79,0.83,6.035,0.389,7.354-2.206c0.233-0.462,0.575-1.124,0.446-1.876
		c-0.291-1.713-1.361-2.438-1.755-2.757C45.455,118.33,44.478,117.678,43.285,117.83L43.285,117.83z M37.63,117.04
		c-3.322,0.471-4.956,3.032-3.522,6.845c0.102,0.242,0.425,0.181,0.507-0.123c0.102-0.383,0.236-0.73,0.31-1.251
		c0.125-0.878,0.63-1.805,1.06-2.342c0.922-1.489,2.454-1.89,3.444-3.012C39.725,116.685,38.25,116.952,37.63,117.04L37.63,117.04z
		 M35.072,113.496c1.092-0.339,1.688-0.518,2.966-0.729c2.611-0.433,8.986,0.404,10.882,1.37c0.84,0.427,1.646,0.898,2.366,1.487
		c1.644,1.349,3.446,2.473,2.877,5.994c-0.594,3.659-3.268,5.675-5.587,7.826c-2.271,2.104-4.611,4.012-8.206,4.941
		c-1.56,0.406-5.021-0.27-6.004-1.816c-0.371-0.581-0.719-1.271-1.034-1.838c-0.229-0.413-0.307-0.887-0.588-1.234
		c-0.245-0.301-0.896-0.596-1.232-0.787c-1.438-0.816-2.941-1.779-3.795-3.318c-0.55-0.992-1.402-4.111-0.829-5.485
		c0.692-1.661,1.854-2.611,3.255-3.671c0.54-0.405,1.492-1.006,2.059-1.361C33.082,114.315,34.044,113.816,35.072,113.496
		L35.072,113.496z"/>
	<path fill-rule="evenodd" clip-rule="evenodd" fill="#5D5D5D" d="M11.156,102.294c-5.524,5.457-10.972,14.529-9.333,25.135
		c0.94,6.339,4.269,10.998,7.12,14.467c3.738,4.337,9.684,8.315,14.922,7.393c2.414-0.475,4.279-2.452,5.158-4.071
		c3.378-6.237-3.518-14.533-4.296-17.339c-1.538-4.002-1.339-6.115-1.013-10.035c0.516-6.207,4.794-13.103,5.866-14.855
		c1.166-1.906,2.271-3.464,3.132-4.908c0.211-0.353,0.747-1.169,0.532-2.024c-0.275-1.065-1.727-1.618-2.952-1.777
		c-2.088-0.263-3.785,0.057-5.253,0.374c-3.871,0.832-6.899,2.305-9.007,3.688C14.495,99.344,12.806,100.664,11.156,102.294
		L11.156,102.294z"/>
	<path fill-rule="evenodd" clip-rule="evenodd" fill="#5D5D5D" d="M275.335,113.604c0,1.469-1.193,2.663-2.663,2.663
		s-2.663-1.194-2.663-2.663c0-1.47,1.193-2.665,2.663-2.665S275.335,112.118,275.335,113.604L275.335,113.604z M275.732,113.604
		c0-1.699-1.359-3.063-3.061-3.063c-1.699,0-3.061,1.363-3.061,3.063c0,1.684,1.377,3.062,3.061,3.062
		S275.732,115.288,275.732,113.604L275.732,113.604z M272.243,113.711h0.092c0.063,0,0.077,0.015,0.107,0.076l0.902,1.363
		c0.016,0.014,0.033,0.029,0.048,0.029h0.551c0.075,0,0.105-0.016,0.105-0.06c0-0.017,0-0.032-0.045-0.094l-0.505-0.749
		c-0.029-0.046-0.077-0.107-0.121-0.198c-0.077-0.092-0.123-0.153-0.154-0.2c-0.075-0.106-0.138-0.183-0.152-0.214l-0.018-0.017
		c0.429-0.06,0.658-0.335,0.658-0.81c0-0.551-0.319-0.827-0.979-0.827h-1.039c-0.033,0-0.063,0.03-0.063,0.063v3.046
		c0,0.03,0.029,0.06,0.063,0.06h0.488c0.03,0,0.061-0.029,0.061-0.06V113.711L272.243,113.711z M272.243,113.375v-0.95h0.413
		c0.277,0,0.444,0.184,0.444,0.475s-0.167,0.476-0.444,0.476H272.243L272.243,113.375z"/>
</g>
</svg>
