<?xml version="1.0" encoding="utf-8"?>
<!-- Generator: Adobe Illustrator 16.0.3, SVG Export Plug-In . SVG Version: 6.00 Build 0)  -->
<!DOCTYPE svg PUBLIC "-//W3C//DTD SVG 1.1//EN" "http://www.w3.org/Graphics/SVG/1.1/DTD/svg11.dtd">
<svg version="1.1" id="Layer_1" xmlns="http://www.w3.org/2000/svg" xmlns:xlink="http://www.w3.org/1999/xlink" x="0px" y="0px"
	 width="280px" height="140px" viewBox="-2 53 280 140" enable-background="new -2 53 280 140" xml:space="preserve">
<g>
	<path fill="#5D5D5D" d="M10.458,109.026l18.801,27.956h6.909l16.363-27.956v48.97l8.969-0.027V88.012h-9.211L32.27,122.445
		L10.836,88.012H1.625v69.957l8.833,0.027V109.026z M193.844,103.896L201.89,128h-16.324L193.844,103.896L193.844,103.896z
		 M236.869,127.654l27.981,30.314h11.66l-23.319-25.65c2.96-0.543,7.779-1.765,9.997-3.097c2.236-1.332,4.094-2.961,5.593-4.884
		c1.494-1.908,2.614-4.013,3.371-6.315c0.737-2.285,1.12-4.672,1.12-7.122c0-2.202-0.296-4.372-0.906-6.496
		c-0.592-2.121-1.497-4.109-2.696-5.986c-1.198-1.857-2.696-3.502-4.49-4.932c-1.809-1.43-3.535-2.635-6.257-3.703
		c-2.356-0.925-5.072-1.756-8.063-1.771L225.5,88v70l-28.274-69.988h-6.996l-25.082,64.722l-19.224-20.415
		c2.96-0.543,7.373-1.765,9.59-3.097c2.243-1.332,4.1-2.961,5.595-4.884c1.498-1.908,2.618-4.013,3.37-6.315
		c0.742-2.285,1.12-4.672,1.12-7.122c0-2.202-0.296-4.372-0.901-6.496c-0.597-2.121-1.499-4.109-2.701-5.986
		c-1.198-1.857-2.697-3.502-4.49-4.932c-1.805-1.43-3.858-2.879-6.263-3.754c-2.375-0.863-4.659-1.705-7.651-1.721L117.5,88v69.957
		l9.768,0.012V97h16.324c2.103,0.016,3.933,1.404,5.392,2.279c1.458,0.874,2.824,2.146,3.862,3.279
		c1.052,1.135,1.485,2.571,2.014,3.985c0.509,1.397,0.773,2.862,0.773,4.356c0,1.514-0.265,2.994-0.773,4.425
		c-0.528,1.413-1.298,2.711-2.351,3.849c-1.038,1.151-2.337,2.056-3.913,2.73c-1.561,0.673-2.993,1.078-5.096,1.096h-13.992
		l0.092,4.727l27.984,30.242h16.322c0.542-1.447,1.093-3.011,1.767-4.704c0.671-1.695,1.38-3.438,2.118-5.247
		c0.742-1.79,1.48-3.567,2.223-5.346c0.725-1.76,2.546-4.096,3.221-5.689h23.319l9.327,20.986h9.328l0.146,0.027L234.5,158V97h16
		c2.104,0.016,4.425,1.259,5.898,2.11c1.846,1.067,2.746,2.467,3.785,3.601c1.052,1.135,1.82,2.419,2.35,3.833
		c0.51,1.397,0.774,2.862,0.774,4.356c0,1.514-0.265,2.994-0.774,4.425c-0.529,1.413-1.298,2.711-2.35,3.849
		c-1.039,1.151-2.342,2.056-3.917,2.73c-1.563,0.673-3.245,1.078-5.35,1.096h-13.99L236.869,127.654z"/>
	<rect x="66.5" y="147" fill="#5D5D5D" width="47" height="11"/>
	<polygon fill="#5D5D5D" points="66.5,100 113.5,100 113.5,88 66.5,88 66.5,100 	"/>
	<rect x="66.5" y="118" fill="#5D5D5D" width="44" height="12"/>
</g>
</svg>
