<?xml version="1.0" encoding="utf-8"?>
<!-- Generator: Adobe Illustrator 16.0.3, SVG Export Plug-In . SVG Version: 6.00 Build 0)  -->
<!DOCTYPE svg PUBLIC "-//W3C//DTD SVG 1.1//EN" "http://www.w3.org/Graphics/SVG/1.1/DTD/svg11.dtd">
<svg version="1.1" id="Layer_1" xmlns="http://www.w3.org/2000/svg" xmlns:xlink="http://www.w3.org/1999/xlink" x="0px" y="0px"
	 width="280px" height="140px" viewBox="-2 53 280 140" enable-background="new -2 53 280 140" xml:space="preserve">
<g>
	<path fill="#5D5D5D" d="M72.902,150.518c-0.931-2.667-3.713-4.116-6.377-3.188l-9.513,3.675c1.927-1.709,3.146-4.197,3.146-6.975
		c0-5.15-4.175-9.328-9.327-9.328s-9.328,4.178-9.328,9.328c0,4.982,3.913,9.043,8.833,9.302l-9.198,2.849
		c-2.663,0.93-4.201,3.885-3.273,6.552c0.93,2.666,3.86,3.704,6.524,2.775l12.433-3.849l12.953-5.002
		C72.439,155.729,73.832,153.182,72.902,150.518z"/>
	<path fill="#5D5D5D" d="M83.947,110.228c-2.791-0.446-5.386,1.318-5.833,4.103l-1.275,10.115c-0.592-2.504-2.202-4.761-4.648-6.075
		c-4.533-2.444-10.19-0.749-12.634,3.786c-2.443,4.535-0.747,10.192,3.786,12.636c4.386,2.364,9.816,0.845,12.379-3.363
		l-1.855,9.447c-0.446,2.788,1.426,5.542,4.216,5.99c2.789,0.443,5.091-1.642,5.538-4.426l2.507-12.772l1.743-13.775
		C88.314,113.105,86.734,110.674,83.947,110.228z"/>
	<path fill="#5D5D5D" d="M53.628,81.441c-1.789,2.188-1.57,5.32,0.615,7.105l8.104,6.187c-2.464-0.746-5.222-0.487-7.59,0.964
		c-4.391,2.692-5.769,8.435-3.076,12.826c2.693,4.392,8.437,5.771,12.828,3.077c4.248-2.604,5.664-8.063,3.313-12.393l7.236,6.354
		c2.184,1.786,5.508,1.551,7.295-0.634c1.788-2.188,1.141-5.229-1.043-7.015l-9.781-8.586l-11.035-8.429
		C58.311,79.112,55.413,79.257,53.628,81.441z"/>
	<path fill="#5D5D5D" d="M13.627,92.221c0.963,2.655,3.765,4.068,6.416,3.107l9.466-3.793c-1.904,1.734-3.093,4.236-3.057,7.014
		c0.063,5.147,4.292,9.272,9.442,9.206c5.151-0.064,9.274-4.292,9.21-9.44c-0.063-4.984-4.027-8.997-8.949-9.192l9.162-2.966
		c2.652-0.96,4.151-3.937,3.19-6.587c-0.964-2.656-3.905-3.657-6.559-2.694l-12.385,4.007l-12.889,5.16
		C14.023,87.003,12.664,89.566,13.627,92.221z"/>
	<path fill="#5D5D5D" d="M32.178,161.395c1.908-2.082,1.863-5.221-0.218-7.125l-7.747-6.632c2.42,0.885,5.187,0.783,7.632-0.538
		c4.535-2.443,6.229-8.1,3.786-12.635c-2.444-4.538-8.102-6.231-12.636-3.787c-4.386,2.364-6.104,7.734-4,12.188l-6.871-6.744
		c-2.081-1.908-5.414-1.857-7.319,0.228c-1.906,2.081-1.429,5.154,0.652,7.057l9.286,9.121l10.547,9.027
		C27.373,163.46,30.273,163.479,32.178,161.395z"/>
	<path fill="#5D5D5D" d="M3.974,132.856c2.776,0.529,5.422-1.156,5.951-3.93l1.58-10.073c0.516,2.524,2.06,4.825,4.464,6.215
		c4.459,2.579,10.163,1.053,12.742-3.408c2.577-4.459,1.053-10.165-3.408-12.745c-4.314-2.492-9.787-1.139-12.473,2.996l2.136-9.391
		c0.527-2.771-1.262-5.581-4.034-6.111c-2.775-0.528-5.138,1.489-5.668,4.26l-2.889,12.69l-2.151,13.715
		C-0.305,129.849,1.202,132.327,3.974,132.856z"/>
	<g>
		<path fill="#5D5D5D" d="M98.513,80.761h2.333l9.52,16.464h0.054V80.761h1.85v18.717h-2.494l-9.358-16.143h-0.054v16.143h-1.85
			V80.761z"/>
		<path fill="#5D5D5D" d="M122.442,80.761h2.092l7.428,18.717h-1.931l-2.011-5.015h-9.439l-2.011,5.015h-1.796L122.442,80.761z
			 M123.354,82.53l-4.076,10.324h8.125L123.354,82.53z"/>
		<path fill="#5D5D5D" d="M136.285,82.369h-5.524v-1.608h12.897v1.608h-5.523v17.108h-1.851V82.369z"/>
		<path fill="#5D5D5D" d="M146.109,80.761h1.851v18.717h-1.851V80.761z"/>
		<path fill="#5D5D5D" d="M151.914,86.472c0.331-1.161,0.836-2.189,1.516-3.083c0.679-0.894,1.537-1.609,2.574-2.146
			c1.036-0.536,2.261-0.805,3.674-0.805c1.412,0,2.637,0.269,3.673,0.805c1.037,0.536,1.896,1.252,2.575,2.146
			c0.679,0.894,1.184,1.922,1.515,3.083c0.33,1.163,0.487,2.378,0.469,3.647c-0.018,1.431-0.2,2.739-0.549,3.929
			c-0.349,1.188-0.868,2.208-1.556,3.057c-0.688,0.85-1.547,1.511-2.574,1.984c-1.028,0.474-2.212,0.711-3.553,0.711
			s-2.525-0.237-3.554-0.711s-1.886-1.135-2.574-1.984c-0.688-0.849-1.206-1.868-1.555-3.057c-0.349-1.189-0.532-2.498-0.55-3.929
			C151.427,88.85,151.583,87.635,151.914,86.472z M156.821,82.745c-0.795,0.465-1.457,1.081-1.984,1.85
			c-0.527,0.77-0.916,1.636-1.166,2.602c-0.251,0.965-0.376,1.939-0.376,2.923c0,1.001,0.125,1.98,0.376,2.937
			c0.25,0.956,0.639,1.819,1.166,2.587c0.527,0.77,1.189,1.386,1.984,1.851c0.796,0.465,1.747,0.697,2.856,0.697
			c1.09,0,2.038-0.232,2.842-0.697c0.805-0.465,1.471-1.081,1.998-1.851c0.527-0.768,0.916-1.631,1.166-2.587
			c0.251-0.956,0.376-1.936,0.376-2.937c0-0.983-0.125-1.958-0.376-2.923c-0.25-0.966-0.639-1.832-1.166-2.602
			c-0.527-0.769-1.193-1.385-1.998-1.85c-0.804-0.465-1.752-0.697-2.842-0.697C158.568,82.048,157.617,82.28,156.821,82.745z"/>
		<path fill="#5D5D5D" d="M171.363,80.761h2.333l9.52,16.464h0.054V80.761h1.851v18.717h-2.494l-9.358-16.143h-0.054v16.143h-1.851
			V80.761z"/>
		<path fill="#5D5D5D" d="M195.293,80.761h2.092l7.428,18.717h-1.931l-2.011-5.015h-9.439l-2.011,5.015h-1.797L195.293,80.761z
			 M196.205,82.53l-4.076,10.324h8.125L196.205,82.53z"/>
		<path fill="#5D5D5D" d="M207.354,80.761h1.85v17.107h7.509v1.609h-9.358V80.761z"/>
		<path fill="#5D5D5D" d="M98.754,111.832h4.612c1.751,0,3.155,0.442,4.21,1.327c1.055,0.885,1.582,2.212,1.582,3.982
			c0,0.876-0.157,1.645-0.469,2.306c-0.313,0.662-0.737,1.216-1.274,1.662c-0.536,0.447-1.167,0.783-1.89,1.006
			c-0.724,0.224-1.506,0.335-2.347,0.335h-2.574v8.099h-1.85V111.832z M100.604,120.842h1.287c0.697,0,1.372-0.036,2.025-0.107
			c0.652-0.071,1.229-0.232,1.729-0.482c0.5-0.25,0.902-0.621,1.207-1.113c0.304-0.491,0.456-1.157,0.456-1.997
			c0-1.181-0.322-2.092-0.965-2.735s-1.556-0.966-2.735-0.966h-3.003V120.842z"/>
		<path fill="#5D5D5D" d="M116.216,111.832h2.092l7.428,18.717h-1.931l-2.011-5.015h-9.439l-2.011,5.015h-1.796L116.216,111.832z
			 M117.128,113.602l-4.076,10.324h8.125L117.128,113.602z"/>
		<path fill="#5D5D5D" d="M130.058,113.44h-5.524v-1.608h12.898v1.608h-5.524v17.108h-1.851V113.44z"/>
		<path fill="#5D5D5D" d="M139.883,111.832h1.85v18.717h-1.85V111.832z"/>
		<path fill="#5D5D5D" d="M146.028,111.832h9.171v1.608h-7.32v6.678h6.945v1.608h-6.945v7.213h7.643v1.609h-9.493V111.832z"/>
		<path fill="#5D5D5D" d="M158.638,111.832h2.333l9.52,16.464h0.054v-16.464h1.851v18.717H169.9l-9.358-16.143h-0.054v16.143h-1.851
			V111.832z"/>
		<path fill="#5D5D5D" d="M180.382,113.44h-5.523v-1.608h12.897v1.608h-5.523v17.108h-1.851V113.44z"/>
		<path fill="#5D5D5D" d="M189.843,128.162c0.554,0.358,1.161,0.63,1.823,0.818c0.661,0.188,1.43,0.281,2.306,0.281
			c0.572,0,1.113-0.076,1.623-0.228c0.509-0.152,0.956-0.385,1.341-0.697c0.384-0.313,0.688-0.711,0.911-1.193
			c0.224-0.483,0.335-1.055,0.335-1.717c0-0.607-0.21-1.14-0.63-1.595c-0.42-0.456-0.952-0.886-1.596-1.287
			c-0.644-0.402-1.332-0.796-2.064-1.181c-0.733-0.384-1.421-0.809-2.064-1.273s-1.176-0.992-1.596-1.582s-0.63-1.296-0.63-2.118
			c0-0.751,0.151-1.426,0.455-2.024s0.725-1.113,1.261-1.542c0.536-0.43,1.166-0.755,1.891-0.979
			c0.724-0.223,1.497-0.335,2.319-0.335c0.465,0,1.032,0.04,1.703,0.121c0.67,0.08,1.327,0.246,1.971,0.496l-0.295,1.689
			c-0.412-0.232-0.926-0.406-1.542-0.523c-0.617-0.116-1.238-0.174-1.863-0.174c-0.483,0-0.966,0.054-1.448,0.161
			c-0.482,0.106-0.917,0.286-1.301,0.536c-0.385,0.25-0.697,0.581-0.938,0.992s-0.362,0.921-0.362,1.528
			c0,0.626,0.21,1.162,0.631,1.608c0.419,0.447,0.951,0.863,1.595,1.247c0.644,0.385,1.332,0.76,2.065,1.126
			c0.732,0.367,1.421,0.791,2.064,1.274c0.644,0.482,1.175,1.041,1.596,1.676c0.42,0.635,0.63,1.408,0.63,2.319
			c0,0.948-0.184,1.757-0.55,2.427c-0.366,0.671-0.845,1.216-1.435,1.636s-1.251,0.729-1.984,0.925
			c-0.733,0.197-1.457,0.296-2.172,0.296c-0.912,0-1.721-0.081-2.427-0.242c-0.706-0.16-1.31-0.349-1.81-0.563L189.843,128.162z"/>
		<path fill="#5D5D5D" d="M98.366,149.259c0.331-1.161,0.835-2.189,1.515-3.083s1.538-1.609,2.575-2.146
			c1.036-0.536,2.261-0.805,3.673-0.805s2.637,0.269,3.674,0.805c1.037,0.536,1.895,1.252,2.574,2.146
			c0.679,0.894,1.184,1.922,1.515,3.083c0.331,1.163,0.487,2.378,0.469,3.647c-0.018,1.431-0.201,2.739-0.55,3.929
			c-0.349,1.188-0.867,2.208-1.555,3.057c-0.688,0.85-1.546,1.511-2.574,1.984c-1.028,0.474-2.212,0.711-3.553,0.711
			s-2.525-0.237-3.553-0.711c-1.028-0.474-1.886-1.135-2.574-1.984c-0.688-0.849-1.207-1.868-1.556-3.057
			c-0.349-1.189-0.532-2.498-0.549-3.929C97.878,151.637,98.035,150.422,98.366,149.259z M103.273,145.532
			c-0.796,0.465-1.458,1.081-1.984,1.85c-0.528,0.77-0.917,1.636-1.167,2.602c-0.25,0.965-0.375,1.939-0.375,2.923
			c0,1.001,0.125,1.98,0.375,2.937c0.25,0.956,0.639,1.819,1.167,2.587c0.527,0.77,1.188,1.386,1.984,1.851
			c0.795,0.465,1.747,0.697,2.855,0.697c1.09,0,2.038-0.232,2.843-0.697c0.804-0.465,1.47-1.081,1.998-1.851
			c0.527-0.768,0.916-1.631,1.167-2.587c0.25-0.956,0.375-1.936,0.375-2.937c0-0.983-0.125-1.958-0.375-2.923
			c-0.25-0.966-0.64-1.832-1.167-2.602c-0.527-0.769-1.193-1.385-1.998-1.85c-0.805-0.465-1.752-0.697-2.843-0.697
			C105.02,144.835,104.068,145.067,103.273,145.532z"/>
		<path fill="#5D5D5D" d="M117.957,143.548h4.827c1.663,0,2.994,0.38,3.996,1.14c1.001,0.76,1.501,1.997,1.501,3.714
			c0,0.607-0.107,1.157-0.322,1.649c-0.214,0.491-0.509,0.925-0.885,1.3c-0.375,0.376-0.818,0.68-1.328,0.912
			c-0.509,0.232-1.05,0.385-1.622,0.456v0.054c0.375,0.053,0.684,0.139,0.925,0.254c0.242,0.117,0.447,0.273,0.617,0.47
			c0.169,0.197,0.322,0.42,0.456,0.67c0.134,0.251,0.272,0.537,0.416,0.858l3.191,7.24h-2.038l-2.708-6.328
			c-0.268-0.607-0.527-1.077-0.777-1.408c-0.251-0.33-0.514-0.576-0.792-0.737s-0.581-0.259-0.912-0.295
			c-0.331-0.036-0.72-0.054-1.167-0.054h-1.528v8.822h-1.85V143.548z M119.807,151.834h1.958c0.536,0,1.082-0.059,1.636-0.175
			c0.554-0.116,1.055-0.309,1.501-0.576c0.447-0.269,0.813-0.621,1.1-1.06c0.286-0.438,0.429-0.979,0.429-1.622
			c0-0.769-0.125-1.368-0.375-1.797c-0.25-0.429-0.59-0.751-1.019-0.965c-0.429-0.215-0.93-0.349-1.501-0.402
			c-0.573-0.054-1.18-0.081-1.824-0.081h-1.904V151.834z"/>
		<path fill="#5D5D5D" d="M144.839,153.737h-4.344v-1.608h6.194v9.305c-0.965,0.411-1.917,0.706-2.855,0.885
			s-1.927,0.269-2.963,0.269c-1.484,0-2.807-0.233-3.969-0.697c-1.162-0.465-2.15-1.122-2.963-1.972
			c-0.814-0.849-1.435-1.867-1.864-3.057c-0.429-1.188-0.644-2.507-0.644-3.955c0-1.412,0.219-2.713,0.657-3.901
			c0.438-1.189,1.068-2.213,1.891-3.07c0.822-0.858,1.814-1.524,2.977-1.998c1.162-0.474,2.467-0.711,3.915-0.711
			c0.357,0,0.76,0.019,1.207,0.054c0.446,0.036,0.897,0.085,1.354,0.147c0.456,0.063,0.898,0.152,1.327,0.269
			c0.43,0.116,0.805,0.255,1.127,0.415l-0.215,1.717c-0.733-0.411-1.511-0.68-2.333-0.805s-1.645-0.188-2.467-0.188
			c-1.216,0-2.293,0.201-3.231,0.604c-0.938,0.401-1.729,0.965-2.373,1.689c-0.644,0.724-1.135,1.577-1.475,2.561
			c-0.339,0.983-0.509,2.056-0.509,3.218c0,1.18,0.165,2.266,0.496,3.258c0.331,0.992,0.813,1.842,1.448,2.548
			c0.634,0.706,1.425,1.26,2.373,1.662c0.947,0.402,2.038,0.604,3.271,0.604c0.285,0,0.612-0.009,0.979-0.026
			c0.366-0.019,0.733-0.054,1.1-0.107s0.72-0.121,1.06-0.201c0.339-0.081,0.616-0.192,0.831-0.335V153.737z"/>
		<path fill="#5D5D5D" d="M156.921,143.548h2.092l7.428,18.717h-1.931l-2.011-5.015h-9.439l-2.011,5.015h-1.797L156.921,143.548z
			 M157.833,145.317l-4.076,10.324h8.125L157.833,145.317z"/>
		<path fill="#5D5D5D" d="M168.944,143.548h2.333l9.52,16.464h0.054v-16.464h1.851v18.717h-2.494l-9.358-16.143h-0.054v16.143
			h-1.851V143.548z"/>
		<path fill="#5D5D5D" d="M186.892,143.548h1.851v18.717h-1.851V143.548z"/>
		<path fill="#5D5D5D" d="M191.338,160.655l9.761-15.499h-9.52v-1.608h11.477v1.608l-9.707,15.499h10.029v1.609h-12.04V160.655z"/>
		<path fill="#5D5D5D" d="M212.935,143.548h2.092l7.428,18.717h-1.931l-2.011-5.015h-9.439l-2.011,5.015h-1.797L212.935,143.548z
			 M213.847,145.317l-4.076,10.324h8.125L213.847,145.317z"/>
		<path fill="#5D5D5D" d="M226.776,145.156h-5.523v-1.608h12.897v1.608h-5.523v17.108h-1.851V145.156z"/>
		<path fill="#5D5D5D" d="M236.602,143.548h1.851v18.717h-1.851V143.548z"/>
		<path fill="#5D5D5D" d="M242.406,149.259c0.331-1.161,0.836-2.189,1.516-3.083c0.679-0.894,1.537-1.609,2.574-2.146
			c1.036-0.536,2.261-0.805,3.674-0.805c1.412,0,2.637,0.269,3.673,0.805c1.037,0.536,1.896,1.252,2.575,2.146
			c0.679,0.894,1.184,1.922,1.515,3.083c0.33,1.163,0.487,2.378,0.469,3.647c-0.018,1.431-0.2,2.739-0.549,3.929
			c-0.349,1.188-0.868,2.208-1.556,3.057c-0.688,0.85-1.547,1.511-2.574,1.984c-1.028,0.474-2.212,0.711-3.553,0.711
			s-2.525-0.237-3.554-0.711s-1.886-1.135-2.574-1.984c-0.688-0.849-1.206-1.868-1.555-3.057c-0.349-1.189-0.532-2.498-0.55-3.929
			C241.919,151.637,242.075,150.422,242.406,149.259z M247.313,145.532c-0.795,0.465-1.457,1.081-1.984,1.85
			c-0.527,0.77-0.916,1.636-1.166,2.602c-0.251,0.965-0.376,1.939-0.376,2.923c0,1.001,0.125,1.98,0.376,2.937
			c0.25,0.956,0.639,1.819,1.166,2.587c0.527,0.77,1.189,1.386,1.984,1.851c0.796,0.465,1.747,0.697,2.856,0.697
			c1.09,0,2.038-0.232,2.842-0.697c0.805-0.465,1.471-1.081,1.998-1.851c0.527-0.768,0.916-1.631,1.166-2.587
			c0.251-0.956,0.376-1.936,0.376-2.937c0-0.983-0.125-1.958-0.376-2.923c-0.25-0.966-0.639-1.832-1.166-2.602
			c-0.527-0.769-1.193-1.385-1.998-1.85c-0.804-0.465-1.752-0.697-2.842-0.697C249.061,144.835,248.109,145.067,247.313,145.532z"/>
		<path fill="#5D5D5D" d="M261.855,143.548h2.333l9.52,16.464h0.054v-16.464h1.851v18.717h-2.494l-9.358-16.143h-0.054v16.143
			h-1.851V143.548z"/>
	</g>
</g>
</svg>
