<?xml version="1.0" encoding="utf-8"?>
<!-- Generator: Adobe Illustrator 16.0.3, SVG Export Plug-In . SVG Version: 6.00 Build 0)  -->
<!DOCTYPE svg PUBLIC "-//W3C//DTD SVG 1.1//EN" "http://www.w3.org/Graphics/SVG/1.1/DTD/svg11.dtd">
<svg version="1.1" id="Layer_1" xmlns="http://www.w3.org/2000/svg" xmlns:xlink="http://www.w3.org/1999/xlink" x="0px" y="0px"
	 width="280px" height="140px" viewBox="0 0 280 140" enable-background="new 0 0 280 140" xml:space="preserve">
<radialGradient id="SVGID_1_" cx="253.4824" cy="303.2061" r="8.9031" gradientTransform="matrix(2.9403 0 0 -2.9331 -716.8743 957.9059)" gradientUnits="userSpaceOnUse">
	<stop  offset="0" style="stop-color:#FFFFFF"/>
	<stop  offset="0.6789" style="stop-color:#929292"/>
	<stop  offset="1" style="stop-color:#5D5D5D"/>
</radialGradient>
<path fill="url(#SVGID_1_)" d="M50.005,51.025c0,0-8.542-8.167-18.328-7.226c-5.468,0.525-4.606,3.783-1.148,7.226
	c3.45,3.448,15.429,11.146,19.285,16.271c4.316,5.749,6.718,14.358-4.097,23.026c-5.569,4.453-11.585,6.102-16.774,6.176
	c-4.562,0.053-8.39-0.98-9.782-1.438c-2.451-0.817-6.145-2.873-8.427-4.738c-3.866-3.17-6.014-6.402-5.43-5.782
	c3.092,3.304,6.993,7.356,15.244,8.694c4.281,0.701,6.459-1.006,7.161-2.6c1.413-3.224-1.428-5.773-2.845-6.921
	c-4.345-3.526-9.847-4.124-18.133-14.692c-7.582-9.669-1.442-19.43,7.582-24.698c4.223-2.462,8.334-3.414,12.52-3.634
	c6.88-0.364,12.808,1.613,17.853,5.168C46.181,46.916,48.522,49.151,50.005,51.025z"/>
<g enable-background="new    ">
	<path fill="#5D5D5D" d="M81.965,64.232h-1.813c-0.083-1.648-0.529-3.042-1.339-4.183c-0.811-1.14-1.916-1.984-3.317-2.534
		c-1.401-0.549-2.995-0.824-4.78-0.824c-2.088,0-3.956,0.495-5.604,1.483c-1.648,0.989-2.472,2.583-2.472,4.78
		c0,1.483,0.453,2.644,1.359,3.481c0.907,0.838,2.025,1.449,3.358,1.833c1.332,0.386,3.097,0.798,5.294,1.236
		c2.061,0.412,3.797,0.886,5.212,1.422c1.415,0.535,2.575,1.332,3.482,2.389c0.906,1.059,1.359,2.508,1.359,4.348
		c0,1.895-0.522,3.469-1.565,4.719c-1.044,1.25-2.363,2.156-3.956,2.719c-1.594,0.563-3.201,0.844-4.821,0.844
		c-3.736,0-6.744-0.85-9.024-2.555c-2.28-1.701-3.406-4.326-3.379-7.869h1.813c-0.165,3.021,0.763,5.254,2.781,6.695
		c2.019,1.443,4.622,2.164,7.809,2.164c2.169,0,4.134-0.537,5.892-1.607c1.757-1.072,2.637-2.773,2.637-5.109
		c0-1.566-0.46-2.787-1.38-3.668c-0.921-0.879-2.054-1.529-3.399-1.957c-1.346-0.426-3.104-0.844-5.274-1.256
		c-3.352-0.714-5.858-1.58-7.52-2.596c-1.663-1.016-2.493-2.761-2.493-5.232c0-2.609,0.981-4.567,2.946-5.872
		c1.964-1.305,4.278-1.957,6.943-1.957c2.087,0,3.962,0.316,5.625,0.947c1.662,0.633,2.994,1.635,3.997,3.008
		C81.34,60.455,81.883,62.171,81.965,64.232z"/>
	<path fill="#5D5D5D" d="M88.517,60.07h-1.566v-4.244h1.566V60.07z M88.517,85.246h-1.566V64.067h1.566V85.246z"/>
	<path fill="#5D5D5D" d="M95.067,64.067v4.697h0.124c0.302-0.934,0.858-1.778,1.669-2.534c0.81-0.755,1.772-1.332,2.884-1.73
		c1.113-0.398,2.3-0.583,3.564-0.557v1.566c-0.852-0.138-1.833-0.034-2.946,0.309c-1.113,0.344-2.081,0.927-2.905,1.751
		c-0.55,0.55-0.989,1.092-1.319,1.628c-0.33,0.535-0.584,1.182-0.762,1.936c-0.179,0.756-0.282,1.602-0.309,2.535v11.578h-1.565
		V64.067H95.067z"/>
	<path fill="#5D5D5D" d="M104.998,85.246V64.067h1.566v4.326h0.082c0.33-1.373,1.119-2.52,2.37-3.44
		c1.25-0.92,2.671-1.381,4.265-1.381c1.868,0,3.344,0.44,4.429,1.319c1.085,0.879,1.737,1.937,1.957,3.173h0.083
		c1.291-2.994,3.529-4.492,6.716-4.492c2.033,0,3.646,0.605,4.841,1.813c1.195,1.209,1.792,3.008,1.792,5.398v14.463h-1.565V70.742
		c0-2.334-0.55-3.887-1.648-4.657c-1.099-0.769-2.239-1.153-3.42-1.153c-2.005,0-3.612,0.68-4.821,2.039
		c-1.209,1.36-1.813,3.276-1.813,5.748v12.527h-1.566V70.742c0-2.308-0.536-3.853-1.607-4.636c-1.071-0.782-2.198-1.174-3.378-1.174
		c-1.731,0-3.283,0.68-4.656,2.039c-1.374,1.36-2.06,3.276-2.06,5.748v12.527H104.998z"/>
	<path fill="#5D5D5D" d="M153.371,69.093v12.239c0,0.824,0.082,1.455,0.247,1.895s0.55,0.66,1.153,0.66
		c0.275,0,0.66-0.043,1.154-0.125v1.318c-0.604,0.111-1.03,0.166-1.277,0.166c-1.127,0-1.882-0.262-2.266-0.783
		c-0.386-0.521-0.578-1.291-0.578-2.307v-1.113h-0.082c-0.55,1.346-1.511,2.465-2.885,3.357c-1.373,0.893-3.035,1.34-4.984,1.34
		c-4.726,0-7.088-1.992-7.088-5.975c0-2.225,0.735-3.783,2.205-4.678c1.469-0.891,3.331-1.42,5.583-1.586
		c2.391-0.164,4.072-0.363,5.049-0.598c0.975-0.232,1.592-0.609,1.854-1.133c0.261-0.521,0.392-1.415,0.392-2.678
		c0-0.851-0.454-1.757-1.36-2.719s-2.417-1.442-4.532-1.442c-1.896,0-3.427,0.48-4.595,1.442c-1.167,0.962-1.806,2.362-1.916,4.202
		h-1.565c0.109-2.333,0.851-4.084,2.225-5.252c1.373-1.168,3.323-1.752,5.851-1.752c2.143,0,3.915,0.412,5.315,1.236
		S153.371,67.061,153.371,69.093z M151.805,77.17v-3.955c-0.357,0.412-0.893,0.707-1.606,0.885c-0.714,0.18-1.745,0.33-3.091,0.453
		s-2.334,0.227-2.967,0.309c-1.95,0.221-3.406,0.709-4.367,1.463c-0.962,0.756-1.442,1.902-1.442,3.441
		c0,1.346,0.48,2.451,1.442,3.316c0.96,0.865,2.334,1.299,4.121,1.299c2.17,0,3.832-0.467,4.985-1.402
		c1.153-0.934,1.929-1.963,2.328-3.09C151.605,78.764,151.805,77.857,151.805,77.17z"/>
	<path fill="#5D5D5D" d="M183.243,70.824h12.403v14.422h-1.566v-6.264h-0.082c-0.688,2.115-2.055,3.805-4.1,5.068
		c-2.047,1.264-4.389,1.895-7.025,1.895c-2.885,0-5.371-0.672-7.459-2.018s-3.674-3.166-4.758-5.461
		c-1.086-2.293-1.629-4.883-1.629-7.766c0-2.83,0.55-5.425,1.648-7.789c1.099-2.361,2.686-4.25,4.76-5.665
		c2.073-1.415,4.566-2.122,7.479-2.122c1.978,0,3.852,0.398,5.624,1.195s3.241,1.95,4.409,3.461c1.167,1.511,1.901,3.228,2.204,5.15
		h-1.73c-0.659-2.609-1.902-4.636-3.729-6.078c-1.826-1.441-4.072-2.163-6.736-2.163c-3.818,0-6.793,1.354-8.921,4.059
		c-2.129,2.706-3.193,6.023-3.193,9.952c0,3.928,1.058,7.189,3.173,9.785s5.096,3.895,8.941,3.895c2.279,0,4.285-0.502,6.016-1.504
		c1.73-1.004,3.035-2.404,3.914-4.203s1.277-3.895,1.195-6.283h-10.837V70.824z"/>
	<path fill="#5D5D5D" d="M201.908,64.067v4.697h0.123c0.303-0.934,0.859-1.778,1.67-2.534c0.81-0.755,1.771-1.332,2.884-1.73
		s2.3-0.583,3.563-0.557v1.566c-0.852-0.138-1.833-0.034-2.945,0.309c-1.113,0.344-2.081,0.927-2.904,1.751
		c-0.551,0.55-0.99,1.092-1.319,1.628c-0.329,0.535-0.584,1.182-0.763,1.936c-0.178,0.756-0.281,1.602-0.309,2.535v11.578h-1.565
		V64.067H201.908z"/>
	<path fill="#5D5D5D" d="M210.808,74.656c0-2.033,0.385-3.895,1.153-5.583c0.77-1.689,1.896-3.028,3.379-4.018
		c1.484-0.988,3.215-1.483,5.191-1.483c3.021,0,5.398,1.065,7.129,3.193c1.73,2.13,2.596,4.76,2.596,7.891
		c0,2.033-0.385,3.895-1.153,5.584c-0.77,1.688-1.896,3.027-3.379,4.016c-1.483,0.99-3.214,1.484-5.192,1.484
		c-1.977,0-3.707-0.494-5.191-1.484c-1.482-0.988-2.609-2.328-3.379-4.016C211.192,78.551,210.808,76.689,210.808,74.656z
		 M212.373,74.656c0,2.691,0.722,4.986,2.164,6.881c1.441,1.896,3.44,2.844,5.994,2.844c2.555,0,4.554-0.947,5.996-2.844
		c1.441-1.895,2.163-4.189,2.163-6.881c0-2.746-0.722-5.054-2.163-6.922c-1.442-1.868-3.441-2.802-5.996-2.802
		c-2.554,0-4.553,0.934-5.994,2.802C213.095,69.602,212.373,71.91,212.373,74.656z"/>
	<path fill="#5D5D5D" d="M250.693,64.067v21.179h-1.566v-4.533h-0.082c-0.521,1.539-1.483,2.762-2.885,3.668
		c-1.4,0.906-2.967,1.359-4.697,1.359c-3.213,0-5.273-0.871-6.18-2.617c-0.906-1.744-1.359-3.729-1.359-5.953V64.067h1.564v13.392
		c0,4.613,2.006,6.922,6.017,6.922c2.335,0,4.188-0.811,5.563-2.432c1.373-1.621,2.06-3.764,2.06-6.428V64.067H250.693z"/>
	<path fill="#5D5D5D" d="M257.244,64.067v4.862h0.083c0.411-1.291,1.284-2.507,2.616-3.647c1.332-1.139,3.028-1.71,5.089-1.71
		c3.104,0,5.466,1.051,7.087,3.152s2.432,4.76,2.432,7.973c0,3.379-0.805,6.064-2.411,8.055c-1.606,1.992-3.976,2.988-7.107,2.988
		c-3.956,0-6.524-1.635-7.705-4.904h-0.083v11.992h-1.565V64.067H257.244z M265.032,84.381c1.757,0,3.241-0.434,4.45-1.299
		c1.208-0.865,2.094-2.045,2.657-3.543s0.845-3.111,0.845-4.842c0-2.691-0.666-4.992-1.998-6.902
		c-1.333-1.908-3.317-2.863-5.954-2.863c-2.61,0-4.554,0.934-5.831,2.802s-1.916,4.19-1.916,6.963c0,2.857,0.598,5.186,1.793,6.984
		S262.258,84.381,265.032,84.381z"/>
</g>
</svg>
